<?xml version="1.0" standalone="no"?>
<!DOCTYPE svg PUBLIC "-//W3C//DTD SVG 1.1//EN" "http://www.w3.org/Graphics/SVG/1.1/DTD/svg11.dtd" >
<svg xmlns="http://www.w3.org/2000/svg" xmlns:xlink="http://www.w3.org/1999/xlink" version="1.1">
<metadata>
Created by FontForge 20170731 at Fri Mar 31 18:32:31 2006
 By Aleksey,,,
Copyright (c) 2006 M. Hacen, All Rights Reserved / www.hacen.net
</metadata>
<defs>
<font id="HacenSamraLt" horiz-adv-x="408" >
  <font-face 
    font-family="Hacen Samra Lt"
    font-weight="400"
    font-stretch="normal"
    units-per-em="2048"
    panose-1="2 0 0 0 0 0 0 0 0 0"
    ascent="1638"
    descent="-410"
    bbox="-102 -568 1804 2134.08"
    underline-thickness="100"
    underline-position="-900"
    unicode-range="U+0020-FEFC"
  />
<missing-glyph horiz-adv-x="582" 
d="M5 1257h485v-1107h-485v1107zM76 1186v-966h343v966h-343z" />
    <glyph glyph-name=".notdef" unicode="&#x640;&#x651;&#x650;" horiz-adv-x="582" 
d="M5 1257h485v-1107h-485v1107zM76 1186v-966h343v966h-343z" />
    <glyph glyph-name="shaddawithfathatanisolated" unicode="&#x651;&#x64b;" horiz-adv-x="425" 
d="M398 1823q5 -8 5.5 -12.5t-0.5 -8.5t-1.5 -8.5t3.5 -13.5q12 -32 14.5 -66t-5 -63.5t-25.5 -50.5t-47 -26q-25 -4 -39 3t-31 18q-4 -11 -10.5 -25.5t-18 -28.5t-27 -25.5t-37.5 -16.5q-34 -9 -56 -3.5t-35 20t-17.5 35t-4.5 40.5q0 21 4.5 39.5t9.5 29.5q0 -3 4.5 1.5
t9.5 10.5t10 10.5t5 1.5q-5 -21 -7 -40t2 -32.5t17 -19t38 -0.5q28 5 41 23t17.5 40.5t5.5 46t6 39.5q1 -3 4.5 1t7.5 9t8 9.5t6 1.5q-3 -30 6.5 -54t26 -36.5t38 -11.5t42.5 21q4 10 2 23t-8.5 25.5t-15.5 24.5t-18 21q5 10 14.5 15.5t20 10t20 9.5t15.5 13zM401 1903
l-340 -193l17 91l340 193zM390 2031l-340 -193l17 91l340 193z" />
    <glyph glyph-name="shaddawithdammatanisolated" unicode="&#x651;&#x64c;" horiz-adv-x="484" arabic-form="isolated" 
d="M396 1846q13 -15 22.5 -33t17.5 -36q11 -32 13 -66t-6 -63.5t-26.5 -50t-47.5 -24.5q-25 -4 -38.5 3t-30.5 19q-4 -11 -11 -25t-18.5 -28t-27.5 -25.5t-38 -16.5q-34 -8 -56.5 1.5t-36 29.5t-19 47.5t-6 54t3.5 48.5t9 33q0 -3 5 1.5t10.5 10.5t10 10t4.5 1
q-5 -21 -6.5 -47.5t4 -49.5t19.5 -37.5t40 -9.5q28 5 41 23t18 40.5t6.5 45.5t6.5 39q1 -3 4.5 1t8 9t8 9.5t5.5 1.5q-3 -30 6 -54t25.5 -37t38 -12.5t43.5 20.5q4 10 2 23t-8.5 26t-15 25t-17.5 21q11 20 19.5 37.5t17.5 34.5zM425 1928q-7 -12 -21 -28.5t-33 -34t-42 -33
t-48 -26t-50 -13t-48 6.5q-23 10 -25 27t3 36t11 36t-2 26.5t-36.5 9t-90.5 -17.5q20 23 46.5 37.5t53 18.5t49.5 -1.5t35.5 -20.5t10.5 -40.5t-24 -61.5q48 17 89.5 38t75.5 53q-43 9 -63 27t-23.5 40t8 45t31.5 41.5t46 30t52 10.5q22 -2 29.5 -21t7 -43t-6 -46.5
t-9.5 -31.5l40 -10l-18 -65zM403 2065q-5 5 -12 6.5t-12 1.5q-14 1 -23.5 -7t-9.5 -18q-2 -10 3.5 -16.5t14.5 -11.5t21.5 -9.5t25.5 -9.5q2 17 2 30q0 11 -2 21.5t-8 14.5v-2z" />
    <glyph glyph-name="shaddawithkasratanisolated" unicode="&#x651;&#x64d;" horiz-adv-x="425" arabic-form="isolated" 
d="M370 2050q12 -15 21.5 -33.5t16.5 -36.5q10 -32 11 -66t-7.5 -63t-27.5 -49t-48 -24q-25 -3 -38.5 4t-30.5 20q-4 -11 -11.5 -25t-19 -27.5t-28 -24.5t-38.5 -16q-34 -7 -56.5 3t-35 31t-17.5 48t-4.5 53.5t4.5 49t10 32.5q0 -3 4.5 1.5l10.5 10.5t10.5 10t4.5 1
q-6 -21 -8 -48t3 -50t18.5 -37.5t39.5 -10.5q29 4 42.5 21t19 39.5t7 46t7.5 39.5q1 -3 5 0.5t8.5 9t8 9.5t5.5 1q-4 -29 4 -53.5t24 -38t37 -13.5q22 0 45 20q5 10 3 22.5t-8 25.5t-14.5 25.5t-16.5 21.5q11 20 20 37t19 34zM391 1684l-350 -141l33 75l350 141zM381 1579
l-350 -141l33 75l350 141z" />
    <glyph glyph-name="shaddawithfathaisolated" unicode="&#x651;&#x64e;" horiz-adv-x="425" arabic-form="isolated" 
d="M398 1823q5 -8 5.5 -12.5t-0.5 -8.5t-1.5 -8.5t3.5 -13.5q12 -32 14.5 -66t-5 -63.5t-25.5 -50.5t-47 -26q-25 -4 -39 3t-31 18q-4 -11 -10.5 -25.5t-18 -28.5t-27 -25.5t-37.5 -16.5q-34 -9 -56 -3.5t-35 20t-17.5 35t-4.5 40.5q0 21 4.5 39.5t9.5 29.5q0 -3 4.5 1.5
t9.5 10.5t10 10.5t5 1.5q-5 -21 -7 -40t2 -32.5t17 -19t38 -0.5q28 5 41 23t17.5 40.5t5.5 46t6 39.5q1 -3 4.5 1t7.5 9t8 9.5t6 1.5q-3 -30 6.5 -54t26 -36.5t38 -11.5t42.5 21q4 10 2 23t-8.5 25.5t-15.5 24.5t-18 21q5 10 14.5 15.5t20 10t20 9.5t15.5 13zM401 1903
l-340 -193l17 91l340 193z" />
    <glyph glyph-name="shaddawithdammaisolated" unicode="&#x651;&#x64f;" horiz-adv-x="437" arabic-form="isolated" 
d="M372 1846q13 -15 22.5 -33t17.5 -36q11 -32 13 -66t-6 -63.5t-26.5 -50t-47.5 -24.5q-25 -4 -38.5 3t-30.5 19q-4 -11 -11 -25t-18.5 -28t-27.5 -25.5t-38 -16.5q-34 -8 -56.5 1.5t-36 29.5t-19 47.5t-6 54t3.5 48.5t9 33q0 -3 5 1.5t10.5 10.5t10 10t4.5 1
q-5 -21 -6.5 -47.5t4 -49.5t19.5 -37.5t40 -9.5q28 5 41 23t18 40.5t6.5 45.5t6.5 39q1 -3 4.5 1t8 9t8 9.5t5.5 1.5q-3 -30 6 -54t25.5 -37t38 -12.5t43.5 20.5q4 10 2 23t-8.5 26t-15 25t-17.5 21q11 20 19.5 37.5t17.5 34.5zM347 1915q-11 -18 -37 -41t-61.5 -43.5
t-76.5 -34t-83 -11.5q-57 4 -75 4q-17 0 -12 2q60 20 103 34t77 28t61.5 31t54.5 43q-46 8 -67.5 26.5t-25 40.5t8.5 45t33 42t48.5 30.5t55.5 10.5q23 -1 31 -20t7.5 -43.5t-6.5 -47.5t-10 -33l43 -10l-19 -63zM322 2054q-5 5 -11.5 6.5t-11.5 1.5q-17 1 -26.5 -7
t-10.5 -19q-2 -20 19 -29.5t50 -17.5q2 16 2 30q0 11 -2 22t-9 14v-1z" />
    <glyph glyph-name="shaddawithkasraisolated" unicode="&#x651;&#x650;" horiz-adv-x="425" arabic-form="isolated" 
d="M385 1972q12 -15 21.5 -33.5t16.5 -36.5q10 -32 11 -66t-7.5 -63t-27.5 -49t-48 -24q-25 -3 -38.5 4t-30.5 20q-4 -11 -11.5 -25t-19 -27.5t-28 -24.5t-38.5 -16q-34 -7 -56.5 3t-35 31t-17.5 48t-4.5 53.5t4.5 48.5t10 33q0 -3 4.5 1.5l10.5 10.5t10.5 10t4.5 1
q-6 -21 -8 -48t3 -50t18.5 -37.5t39.5 -10.5q29 4 42.5 21t19 39.5t7 46t7.5 39.5q1 -3 5 0.5t8.5 9t8 9.5t5.5 1q-4 -29 4 -53.5t24 -38t37 -13.5q22 0 45 20q5 10 3 22.5t-8 25.5t-14.5 25.5t-16.5 21.5q11 20 20 37t19 34zM422 1590l-340 -193l17 91l340 193z" />
    <glyph glyph-name="shaddawithfathamedial" unicode="&#x640;&#x651;&#x64e;" horiz-adv-x="375" arabic-form="medial" 
d="M298 1190q5 -8 5.5 -12.5t-0.5 -8.5t-1.5 -8.5t3.5 -13.5q12 -32 14.5 -66t-5 -63.5t-25.5 -50.5t-47 -26q-25 -4 -39 3t-31 18q-4 -11 -10.5 -25.5t-18 -28.5t-27 -25.5t-37.5 -16.5q-34 -9 -56 -3.5t-35 20t-17.5 35t-4.5 40.5q0 21 4.5 39.5t9.5 29.5q0 -3 4.5 1.5
t9.5 10.5t10 10.5t5 1.5q-5 -21 -7 -40t2 -32.5t17 -19t38 -0.5q28 5 41 23t17.5 40.5t5.5 46t6 39.5q1 -3 4.5 1t7.5 9t8 9.5t6 1.5q-3 -30 6.5 -54t26 -36.5t38 -11.5t42.5 21q4 10 2 23t-8.5 25.5t-15.5 24.5t-18 21q5 10 14.5 15.5t20 10t20 9.5t15.5 13zM301 1270
l-340 -193l17 91l340 193z" />
    <glyph glyph-name="shaddawithdammamedial" unicode="&#x640;&#x651;&#x64f;" horiz-adv-x="480" arabic-form="medial" 
d="M365 1238q13 -15 22.5 -33t17.5 -36q11 -32 13 -66t-6 -63.5t-26.5 -50t-47.5 -24.5q-25 -4 -38.5 3t-30.5 19q-4 -11 -11 -25t-18.5 -28t-27.5 -25.5t-38 -16.5q-34 -8 -56.5 1.5t-36 29.5t-19 47.5t-6 54t3.5 48.5t9 33q0 -3 5 1.5t10.5 10.5t10 10t4.5 1
q-5 -21 -6.5 -47.5t4 -49.5t19.5 -37.5t40 -9.5q28 5 41 23t18 40.5t6.5 45.5t6.5 39q1 -3 4.5 1t8 9t8 9.5t5.5 1.5q-3 -30 6 -54t25.5 -37t38 -12.5t43.5 20.5q4 10 2 23t-8.5 26t-15 25t-17.5 21q11 20 19.5 37.5t17.5 34.5zM340 1307q-11 -18 -37 -41t-61.5 -43.5
t-76.5 -34t-83 -11.5q-57 4 -75 4q-17 0 -12 2q60 20 103 34t77 28t61.5 31t54.5 43q-46 8 -67.5 26.5t-25 40.5t8.5 45t33 42t48.5 30.5t55.5 10.5q23 -1 31 -20t7.5 -43.5t-6.5 -47.5t-10 -33l43 -10l-19 -63zM315 1446q-5 5 -11.5 6.5t-11.5 1.5q-17 1 -26.5 -7
t-10.5 -19q-2 -20 19 -29.5t50 -17.5q2 16 2 30q0 11 -2 22t-9 14v-1z" />
    <glyph glyph-name="allahisolated" unicode="&#xfedf;&#xfee0;&#xfeea;" horiz-adv-x="1839" arabic-form="isolated" 
d="M1276 1158v-785h292v980h124q19 0 35.5 -7t28.5 -19.5t19 -28.5t7 -34v-1017q0 -18 -7 -34t-19 -28t-28.5 -19t-35.5 -7h-1045q-37 0 -62 26t-25 62l-1 485h-292l-1 -144q-4 -53 2 -91t18 -71.5t28 -66.5t31.5 -74.5t28 -95.5t17.5 -130q-16 27 -46.5 52t-66.5 52.5
t-74 59.5t-70 72.5t-54 91.5t-26 117v353q0 38 26 64.5t63 26.5h540q38 0 63.5 -26.5t25.5 -64.5l1 -484h289v696q0 37 26.5 63t63.5 26h124zM1297 1535q17 -25 30 -54.5t16 -58.5q3 -17 0 -33t-8 -31t-14.5 -30.5t-21.5 -28t-27.5 -20t-32.5 -6.5q-11 0 -21 3t-18 9
q-9 7 -16.5 14.5t-12.5 17.5l-3 4q-15 -30 -39.5 -54t-56.5 -34q-20 -6 -41.5 -5t-38.5 16q-12 10 -17.5 24t-7 29.5t0 31t3.5 29.5l8 37l76 34l-2 -15l-9 -49q-1 -6 -3 -15t-1.5 -18.5t5.5 -17.5t18 -12q9 -2 18.5 6.5t17 20.5t12.5 24.5t5 18.5l10 84v4l75 32v-41
q0 -25 3.5 -48.5t12 -39.5t25.5 -12q17 3 24.5 17.5t8.5 30.5q3 16 -1.5 32t-13.5 30l-29 45zM1095 1547q0 33 -3 61.5t-13.5 54.5t-30.5 50.5t-55 49.5l21 75q43 -24 70.5 -57t40 -70t10.5 -76.5t-19 -78.5l263 116l-27 -62l-474 -211l27 64z" />
    <glyph glyph-name="fathamedial" unicode="&#x640;&#x64e;" horiz-adv-x="448" 
d="M396 1157q-97 -52 -191.5 -102.5t-191.5 -102.5q5 24 8 39.5t7 37.5q99 52 191.5 101.5t191.5 102.5z" />
    <glyph glyph-name="dammamedial" unicode="&#x640;&#x64f;" horiz-adv-x="490" 
d="M360 1221q-11 -23 -37.5 -52.5t-62.5 -55t-78.5 -42.5t-85.5 -15q-29 2 -47.5 3t-28.5 2t-12.5 1.5t-0.5 1.5q61 25 105.5 43t79 36t62.5 39.5t56 54.5q-47 11 -69 34t-25.5 51t9 57.5t34 53.5t49.5 39t56 13q16 -1 25 -12.5t12.5 -29t2.5 -39t-3.5 -41.5t-6.5 -36.5
t-7 -24.5l44 -13l-19 -80zM335 1398q-5 6 -12 8t-12 2q-17 2 -27 -8.5t-11 -24.5q-2 -25 20 -37t51 -23q2 20 2 38q0 15 -2 28.5t-9 18.5v-2z" />
    <glyph glyph-name="kasramedial" unicode="&#x640;&#x650;" horiz-adv-x="669" 
d="M392 506q-97 -52 -191.5 -102.5t-191.5 -102.5q5 23 8 39t7 38q99 52 191.5 101.5t191.5 102.5z" />
    <glyph glyph-name="shaddamedial" unicode="&#x640;&#x651;" horiz-adv-x="448" 
d="M386 1293q11 -17 17.5 -36t11.5 -38q6 -33 3 -67t-15 -62t-33 -45.5t-51 -17.5q-25 0 -37.5 9t-27.5 23q-6 -10 -15 -23t-22 -25t-31 -21t-40 -11q-35 -3 -56 10t-31 35t-11.5 49.5t2 53.5t10.5 47.5t14 31.5q0 -3 5 1t11.5 9t11.5 8.5t5 0.5q-8 -20 -13.5 -46.5t-3 -50
t14 -39.5t37.5 -15q29 0 44.5 16t23.5 37.5t12.5 44.5t12.5 38q1 -3 5 0t9 7.5t9.5 8t5.5 0.5q-8 -29 -2.5 -54t19.5 -40t35.5 -18t46.5 14q6 9 5.5 22t-4.5 26.5t-11 27t-14 23.5q13 18 24.5 34t22.5 32z" />
    <glyph glyph-name="lamwithalefmaddaaboveisolatedd" unicode="&#xfedf;&#xfe82;" horiz-adv-x="1098" arabic-form="isolated" 
d="M532 1353v-980h292v980h123q19 0 35.5 -7t28.5 -19.5t19 -28.5t7 -34v-1017q0 -18 -7 -34t-19 -28t-28.5 -19t-35.5 -7h-682q-81 0 -127 23t-68 57t-25.5 73t1.5 72.5t14 55.5t10 20q19 -20 46 -35.5t59 -27.5t68.5 -19t74.5 -8v894q0 18 7 34t19 28.5t28.5 19.5t35.5 7
h124zM177 1394q0 71 53.5 123t202 4.5t226.5 33.5q-36 -184 -215.5 -126.5t-266.5 -34.5z" />
    <glyph glyph-name="lamwithalefmaddaabovefinal" unicode="&#xfee0;&#xfe82;" horiz-adv-x="1114" arabic-form="final" 
d="M511 1353v-980h292v980h124q18 0 34.5 -7t28.5 -19.5t19 -28.5t7 -34v-891h100v-214h-872q-53 1 -91.5 16t-64 39t-38 55t-12.5 64q0 23 4.5 45.5t14.5 42.5q2 5 1 12t-7 22q13 -23 39 -39t59.5 -25.5t72 -14.5t76.5 -6v894q0 18 7 34t19 28.5t28.5 19.5t34.5 7h124z
M162 1394q-1 71 53.5 123t202 4.5t226.5 33.5q-37 -184 -216.5 -126.5t-265.5 -34.5z" />
    <glyph glyph-name="lamwithalefhamzaaboveisolatedd" unicode="&#xfedf;&#xfe84;" horiz-adv-x="1094" arabic-form="isolated" 
d="M532 1353v-980h292v980h123q19 0 35.5 -7t28.5 -19.5t19 -28.5t7 -34v-1017q0 -18 -7 -34t-19 -28t-28.5 -19t-35.5 -7h-682q-81 0 -127 23t-68 57t-25.5 73t1.5 72.5t14 55.5t10 20q19 -20 46 -35.5t59 -27.5t68.5 -19t74.5 -8v894q0 18 7 34t19 28.5t28.5 19.5t35.5 7
h124zM243 1384q-4 13 4 36t24 47t38.5 44t48.5 26v138q0 18 13 31t32 13h92h25q11 0 20.5 1t19.5 4t25 9q9 4 12 -13.5t-5.5 -40t-31.5 -42t-67 -20.5h-33v-74h146v-58q0 -18 -13 -31.5t-32 -13.5h-175q-21 2 -46 -3.5t-45 -16.5z" />
    <glyph glyph-name="lamwithalefhamzaabovefinal" unicode="&#xfee0;&#xfe84;" horiz-adv-x="1141" arabic-form="final" 
d="M539 1353v-980h292v980h123q18 0 34.5 -7t29 -19.5t19.5 -28.5t7 -34v-891h100v-214h-872q-64 0 -107.5 17t-71 43.5t-40 60t-12.5 65.5q0 33 10 62.5t28 47.5q13 -23 39 -39t59.5 -25.5t72 -14.5t75.5 -6v894q0 18 7 34t19 28.5t28.5 19.5t35.5 7h124zM243 1384
q-4 13 4 36t24 47t38.5 44t48.5 26v138q0 18 13 31t32 13h92h25q11 0 20.5 1t19.5 4t25 9q9 4 12 -13.5t-5.5 -40t-31.5 -42t-67 -20.5h-33v-74h146v-58q0 -18 -13 -31.5t-32 -13.5h-175q-21 2 -46 -3.5t-45 -16.5z" />
    <glyph glyph-name="lamwithalefhamzabelowisolated" unicode="&#xfedf;&#xfe88;" horiz-adv-x="1090" arabic-form="isolated" 
d="M184 -281q-4 13 4 36.5t24 47t39 43.5t49 26v138q0 18 13 31.5t32 13.5h91q15 0 25.5 -0.5t20 0.5t19.5 4t24 9q9 4 12.5 -13.5t-5 -40t-31.5 -42t-67 -19.5h-32v-74h144v-59q0 -18 -13 -31t-31 -13h-175q-20 2 -45 -3.5t-46 -16.5zM528 1353v-980h292v980h124
q18 0 34.5 -7t29 -19.5t19.5 -28.5t7 -34v-1017q0 -18 -7 -34t-19.5 -28t-29 -19t-34.5 -7h-682q-61 0 -101.5 13.5t-66 35t-38 49t-16 56t-0.5 55.5t8 48t10.5 33t6.5 11q39 -39 105.5 -63t144.5 -27v894q0 18 7 34t19 28.5t28.5 19.5t35.5 7h123z" />
    <glyph glyph-name="lamwithalefhamzabelowfinal" unicode="&#xfee0;&#xfe88;" horiz-adv-x="1141" arabic-form="final" 
d="M172 -281q-4 13 4 36.5t24 47t39 43.5t49 26v138q0 18 13 31.5t31 13.5h92q15 0 26 -0.5t20.5 0.5t19.5 4t24 9q9 4 12 -13.5t-5.5 -40t-31.5 -42t-66 -19.5h-33v-74h145v-59q0 -18 -13 -31t-32 -13h-174q-21 2 -46.5 -3.5t-45.5 -16.5zM539 1353v-980h292v980h123
q18 0 34.5 -7t29 -19.5t19.5 -28.5t7 -34v-891h100v-214h-872q-64 0 -107.5 17t-71 43.5t-40 60t-12.5 65.5q0 33 10 62.5t28 47.5q13 -23 39 -39t59.5 -25.5t72 -14.5t75.5 -6v894q0 18 7 34t19 28.5t28.5 19.5t35.5 7h124z" />
    <glyph glyph-name="lamwithalefisolated" unicode="&#xfedf;&#xfe8e;" horiz-adv-x="1098" arabic-form="isolated" 
d="M528 1353v-980h292v980h124q18 0 34.5 -7t29 -19.5t19.5 -28.5t7 -34v-1017q0 -18 -7 -34t-19.5 -28t-29 -19t-34.5 -7h-682q-61 0 -101.5 13.5t-66 35t-38 49t-16 56t-0.5 55.5t8 48t10.5 33t6.5 11q39 -39 105.5 -63t144.5 -27v894q0 18 7 34t19 28.5t28.5 19.5t35.5 7
h123z" />
    <glyph glyph-name="lamwithaleffinal" unicode="&#xfee0;&#xfe8e;" horiz-adv-x="1141" arabic-form="final" 
d="M539 1353v-980h292v980h123q18 0 34.5 -7t29 -19.5t19.5 -28.5t7 -34v-891h100v-214h-872q-64 0 -107.5 17t-71 43.5t-40 60t-12.5 65.5q0 33 10 62.5t28 47.5q13 -23 39 -39t59.5 -25.5t72 -14.5t75.5 -6v894q0 18 7 34t19 28.5t28.5 19.5t35.5 7h124z" />
    <glyph glyph-name="bullet_ara" unicode="&#xfcf4;" horiz-adv-x="532" arabic-form="medial" 
d="M424 1178q-11 -23 -37.5 -52.5t-62.5 -55t-78.5 -42.5t-85.5 -15q-29 2 -47.5 3t-28.5 2t-12.5 1.5t-0.5 1.5q61 25 105.5 43t79 36t62.5 39.5t56 54.5q-47 11 -69 34t-25.5 51t9 57.5t34 53.5t49.5 38.5t56 13.5q16 -1 25 -12.5t12.5 -29t2.5 -39t-3.5 -41.5t-6.5 -36.5
t-7 -24.5l44 -13l-19 -80zM399 1355q-5 6 -12 8t-12 2q-17 2 -27 -8.5t-11 -24.5q-2 -25 20 -37t51 -23q2 20 2 38q0 15 -2 28.5t-9 18.5v-2z" />
    <glyph glyph-name="hamzaisolated" unicode="&#x621;" horiz-adv-x="910" arabic-form="isolated" 
d="M471 635v-262h393v-126q0 -18 -7 -34t-19.5 -28t-29 -19t-35.5 -7q-122 0 -206.5 0.5t-140.5 0.5h-89h-50h-24h-10q-44 0 -76.5 -8t-56.5 -19.5t-41.5 -24l-31.5 -22.5q-10 36 -3.5 81t32 86.5t70.5 72t112 38.5v396q0 37 26 63t63 26h115h80h53h31h17h10q27 0 48.5 0.5
t44 4t47 11t57.5 21.5q-4 -36 -16 -77.5t-40 -78.5t-77 -63.5t-128 -31.5h-118z" />
    <glyph glyph-name="alefwithmaddaaboveisolated" unicode="&#x622;" horiz-adv-x="375" arabic-form="isolated" 
d="M294 1353v-1106q0 -18 -7 -34t-19 -28t-28.5 -19t-35.5 -7h-123v1105q0 18 7 34t19 28.5t28.5 19.5t35.5 7h123zM-31 1394q-1 71 53.5 123t202 4.5t227.5 33.5q-38 -184 -217.5 -126.5t-265.5 -34.5z" />
    <glyph glyph-name="alefwithmaddaabovefinal" unicode="&#x622;" horiz-adv-x="367" arabic-form="final" 
d="M274 1353v-980h97v-214h-220q-19 0 -35.5 7t-28.5 19t-19 28t-7 34v1017q0 18 7 34t19 28.5t28.5 19.5t35.5 7h123zM-31 1394q-1 71 53.5 123t202 4.5t227.5 33.5q-38 -184 -217.5 -126.5t-265.5 -34.5z" />
    <glyph glyph-name="alefwithhamzaaboveisolated" unicode="&#x623;" horiz-adv-x="375" arabic-form="isolated" 
d="M294 1353v-1106q0 -18 -7 -34t-19 -28t-28.5 -19t-35.5 -7h-123v1105q0 18 7 34t19 28.5t28.5 19.5t35.5 7h123zM-18 1385q-4 13 4 36.5t24 47.5t39 43.5t49 25.5v138q0 19 13 32t32 13h91h25q11 0 21 0.5t20 3.5t25 9q5 2 8.5 -5t3 -20t-5.5 -28.5t-17 -29t-32 -23
t-49 -9.5h-33v-74h145v-59q0 -18 -13 -31t-32 -13h-175q-20 2 -45 -3.5t-46 -16.5z" />
    <glyph glyph-name="alefwithhamzaabovefinal" unicode="&#x623;" horiz-adv-x="367" arabic-form="final" 
d="M274 1353v-980h97v-214h-220q-19 0 -35.5 7t-28.5 19t-19 28t-7 34v1017q0 18 7 34t19 28.5t28.5 19.5t35.5 7h123zM-29 1384q-3 13 4.5 36t23.5 47t39 44t49 26v138q0 18 13 31t31 13h92h26t20.5 1t19.5 4t24 9q9 4 12 -13.5t-5.5 -40t-31.5 -42t-66 -20.5h-33v-74h145
v-58q0 -18 -13 -31.5t-31 -13.5h-175q-21 2 -46.5 -3.5t-45.5 -16.5z" />
    <glyph glyph-name="wawwithhamzaaboveisolated" unicode="&#x624;" horiz-adv-x="820" arabic-form="isolated" 
d="M269 732v-359h292v359h-292zM685 948q18 0 34 -7t28 -19.5t19 -29t7 -35.5v-505q0 -88 -14.5 -152t-40 -110.5t-61 -78.5t-77 -54t-88 -37.5t-94.5 -30.5q-26 -8 -56 -22t-59 -29t-53 -26.5t-37.5 -13.5t-13.5 8t20 39q30 47 72 79t89 55q26 13 53 27t53 34.5t49 48.5
t41 70h-411q-19 0 -35.5 7t-28.5 19t-19 28t-7 34v610q0 38 26 64.5t64 26.5h540zM308 1366q0 23 16 39.5t39 16.5h114h32t25 1t25 4t31 11q7 3 11.5 -6t4 -25t-7.5 -35t-22 -36.5t-40 -29t-61 -12.5h-40v-92h181v-72q0 -23 -16.5 -39t-40.5 -16h-217q-21 1 -41 -4t-39 -15
t-37 -22t-34 -24q1 74 27.5 118t89.5 66v172z" />
    <glyph glyph-name="wawwithhamzaabovefinal" unicode="&#x624;" horiz-adv-x="871" arabic-form="final" 
d="M267 732v-359h292v359h-292zM683 948q37 0 63 -26.5t26 -64.5v-484h102v-214h-127q-24 -69 -61.5 -113.5t-83.5 -74t-98.5 -48t-106.5 -34.5q-27 -8 -57 -22t-58 -27.5t-51.5 -24.5t-37 -13t-14 7t17.5 36q31 48 73 79t88 55q27 14 55.5 28.5t55.5 35t49 48.5t36 68h-411
q-18 0 -34.5 7t-28.5 19t-19 28t-7 34v610q0 38 26 64.5t63 26.5h540zM308 1366q0 23 16 39.5t39 16.5h114h32t25 1t25 4t31 11q7 3 11.5 -6t4 -25t-7.5 -35t-22 -36.5t-40 -29t-61 -12.5h-40v-92h181v-72q0 -23 -16.5 -39t-40.5 -16h-217q-21 1 -41 -4t-39 -15t-37 -22
t-34 -24q1 74 27.5 118t89.5 66v172z" />
    <glyph glyph-name="alefwithhamzabelowisolated" unicode="&#x625;" horiz-adv-x="375" arabic-form="isolated" 
d="M294 1353v-1106q0 -18 -7 -34t-19 -28t-28.5 -19t-35.5 -7h-123v1105q0 18 7 34t19 28.5t28.5 19.5t35.5 7h123zM-38 -281q-4 13 4 36.5t24 47t39 43.5t49 26v138q0 18 13 31.5t32 13.5h91q15 0 25.5 -0.5t20 0.5t20 4t24.5 9q6 2 9.5 -5t3 -20t-5.5 -28.5t-17 -29
t-32 -23t-49 -9.5h-33v-74h145v-59q0 -18 -13 -31t-32 -13h-175q-20 2 -45 -3.5t-46 -16.5z" />
    <glyph glyph-name="alefwithhamzabelowfinal" unicode="&#x625;" horiz-adv-x="367" arabic-form="final" 
d="M274 1353v-980h97v-214h-220q-19 0 -35.5 7t-28.5 19t-19 28t-7 34v1017q0 18 7 34t19 28.5t28.5 19.5t35.5 7h123zM-38 -281q-4 13 4 36.5t24 47t39 43.5t49 26v138q0 18 13 31.5t32 13.5h91q15 0 25.5 -0.5t20 0.5t20 4t24.5 9q6 2 9.5 -5t3 -20t-5.5 -28.5t-17 -29
t-32 -23t-49 -9.5h-33v-74h145v-59q0 -18 -13 -31t-32 -13h-175q-20 2 -45 -3.5t-46 -16.5z" />
    <glyph glyph-name="yehwithhamzaaboveisolated" unicode="&#x626;" horiz-adv-x="1101" arabic-form="isolated" 
d="M267 593v-396h568v223h-205q-24 0 -49 4t-44.5 16t-32 32.5t-12.5 52.5v161q0 39 17.5 74t46 64t65.5 53t76 42q50 23 80.5 56.5t47 58.5t22 30t5.5 -29q0 -29 -9 -73.5t-29.5 -98.5t-55 -113t-85.5 -116h287q18 0 34 -7t28.5 -19.5t19.5 -29t7 -35.5v-470
q0 -18 -7 -34.5t-19.5 -29t-28.5 -19.5t-34 -7h-818q-18 0 -34 7t-28 19.5t-19 29t-7 34.5v429q0 19 7 35.5t19 29t28 19.5t34 7h125zM159 1077q0 23 16 39t39 16h114h32t25 1t25 4.5t31 11.5q7 3 11.5 -6t4 -25t-7.5 -35.5t-22 -36.5t-40 -29t-61 -13h-40v-92h181v-72
q0 -23 -16.5 -39t-39.5 -16h-218q-21 1 -41 -4t-39 -14.5t-37 -21t-34 -23.5q1 73 27.5 117t89.5 65v173z" />
    <glyph glyph-name="yehwithhamzaabovefinal" unicode="&#x626;" horiz-adv-x="1469" arabic-form="final" 
d="M883 945q-19 0 -35 -7t-28 -19.5t-19 -28.5t-7 -34l1 -448q-7 -55 -31 -95.5t-58.5 -67t-77 -39.5t-87.5 -13q-52 0 -102 17.5t-89.5 52.5t-64 87t-24.5 121l-1 184h-123q-37 0 -63 -26t-26 -64v-31q0 -62 2.5 -119.5t16 -110.5t42 -102t80.5 -94q73 -64 159.5 -94.5
t176.5 -30.5q88 0 171.5 30.5t150.5 87t110 136t51 177.5v76q0 41 -0.5 82t-0.5 81v77l154 2l1 -485q0 -36 25 -62t62 -26h224v214h-98v484q0 38 -26 64.5t-64 26.5zM159 1077q0 23 16 39t39 16h114h32t25 1t25 4.5t31 11.5q7 3 11.5 -6t4 -25t-7.5 -35.5t-22 -36.5t-40 -29
t-61 -13h-40v-92h181v-72q0 -23 -16.5 -39t-39.5 -16h-218q-21 1 -41 -4t-39 -14.5t-37 -21t-34 -23.5q1 73 27.5 117t89.5 65v173z" />
    <glyph glyph-name="yehwithhamzaaboveinitial" unicode="&#x626;" horiz-adv-x="637" arabic-form="initial" 
d="M-3 373h369v575h124q37 0 63 -26.5t26 -64.5v-610q0 -18 -7 -34t-19 -28t-28.5 -19t-34.5 -7h-493v214zM251 1352q0 23 15.5 39.5t38.5 16.5h114h32q14 0 26 1t24.5 4.5t30.5 11.5q7 3 11.5 -6.5t4 -25.5t-7 -35.5t-22 -36.5t-40 -29t-60.5 -12h-40v-92h181v-72
q0 -23 -17 -39t-40 -16h-218q-20 1 -40 -4t-39 -14.5t-37.5 -21.5t-34.5 -24q2 73 28.5 117t89.5 65v173z" />
    <glyph glyph-name="yehwithhamzaabovemedial" unicode="&#x626;" horiz-adv-x="656" arabic-form="medial" 
d="M659 373v-214h-663v214h249v484q0 19 7 35.5t19.5 29t29 19.5t35.5 7h123v-575h200zM251 1352q0 23 15.5 39.5t38.5 16.5h114h32q14 0 26 1t24.5 4.5t30.5 11.5q7 3 11.5 -6.5t4 -25.5t-7 -35.5t-22 -36.5t-40 -29t-60.5 -12h-40v-92h181v-72q0 -23 -17 -39t-40 -16h-218
q-20 1 -40 -4t-39 -14.5t-37.5 -21.5t-34.5 -24q2 73 28.5 117t89.5 65v173z" />
    <glyph glyph-name="alefisolated" unicode="&#x627;" horiz-adv-x="375" arabic-form="isolated" 
d="M294 1353v-1106q0 -18 -7 -34t-19 -28t-28.5 -19t-35.5 -7h-123v1105q0 18 7 34t19 28.5t28.5 19.5t35.5 7h123z" />
    <glyph glyph-name="aleffinal" unicode="&#x627;" horiz-adv-x="367" arabic-form="final" 
d="M274 1353v-980h97v-214h-220q-19 0 -35.5 7t-28.5 19t-19 28t-7 34v1017q0 18 7 34t19 28.5t28.5 19.5t35.5 7h123z" />
    <glyph glyph-name="behisolated" unicode="&#x628;" horiz-adv-x="1098" arabic-form="isolated" 
d="M559 -37q23 0 43.5 -9t35.5 -24.5t24 -36t9 -43.5t-9 -43.5t-24 -35.5t-35.5 -24t-43.5 -9t-43.5 9t-35.5 24t-24 35.5t-9 43.5t9 43.5t24 36t35.5 24.5t43.5 9zM263 159q-61 -2 -105.5 14t-72.5 43t-41.5 62t-13 70.5t14 68.5t38.5 56q6 -35 39 -56t77 -31.5t92 -12.5
t85 0h463v575h123q37 0 63 -26.5t26 -64.5v-610q0 -18 -7 -34t-19 -28t-28.5 -19t-34.5 -7h-699z" />
    <glyph glyph-name="behfinal" unicode="&#x628;" horiz-adv-x="1156" arabic-form="final" 
d="M601 -37q23 0 43.5 -9t35.5 -24.5t24 -36t9 -43.5t-9 -43.5t-24 -35.5t-35.5 -24t-43.5 -9t-43.5 9t-35.5 24t-23.5 35.5t-8.5 43.5t8.5 43.5t23.5 36t35.5 24.5t43.5 9zM1161 373v-214h-884q-92 -2 -148 32.5t-79 83.5t-14.5 100t45.5 82q18 -33 57 -50.5t85 -25t91 -8
t75 -0.5h464v484q0 19 7 35.5t19 29t28 19.5t34 7h124v-575h96z" />
    <glyph glyph-name="behinitial" unicode="&#x628;" horiz-adv-x="363" arabic-form="initial" 
d="M165 -37q23 0 43.5 -9t36 -24.5t24.5 -36t9 -43.5t-9 -43.5t-24.5 -35.5t-36 -24t-43.5 -9t-43 9t-35 24t-24 35.5t-9 43.5t9 43.5t24 36t35 24.5t43 9zM-3 373h93v575h123q37 0 63 -26.5t26 -64.5v-610q0 -18 -7 -34t-19 -28t-28.5 -19t-34.5 -7h-216v214z" />
    <glyph glyph-name="behmedial" unicode="&#x628;" horiz-adv-x="394" arabic-form="medial" 
d="M203 -37q23 0 43.5 -9t35.5 -24.5t24 -36t9 -43.5t-9 -43.5t-24 -35.5t-35.5 -24t-43.5 -9t-43.5 9t-36 24t-24.5 35.5t-9 43.5t9 43.5t24.5 36t36 24.5t43.5 9zM399 373v-214h-404v214h96v484q0 19 7 35.5t19.5 29t29 19.5t35.5 7h123v-575h94z" />
    <glyph glyph-name="tehmarbutaisolated" unicode="&#x629;" horiz-adv-x="823" arabic-form="isolated" 
d="M269 732v-359h291v359h-291zM685 948q18 0 34 -7t28 -19.5t19 -29t7 -35.5v-610q0 -18 -7 -34t-19 -28t-28 -19t-34 -7h-541q-18 0 -34.5 7t-29 19t-19.5 28t-7 34v610q0 38 26.5 64.5t63.5 26.5h541zM281 1364q23 0 43.5 -9t35.5 -24.5t24 -36t9 -43.5t-9 -43.5t-24 -36
t-35.5 -24.5t-43.5 -9t-43 9t-35 24.5t-24 36t-9 43.5t9 43.5t24 36t35 24.5t43 9zM559 1364q22 0 42.5 -9t35.5 -24.5t24 -36t9 -43.5t-9 -43.5t-24 -36t-35.5 -24.5t-42.5 -9q-23 0 -43.5 9t-36 24.5t-24.5 36t-9 43.5t9 43.5t24.5 36t36 24.5t43.5 9z" />
    <glyph glyph-name="tehmarbutafinal" unicode="&#x629;" horiz-adv-x="863" arabic-form="final" 
d="M679 948q18 0 34 -7t28 -19.5t19 -29t7 -35.5l1 -484h98v-214h-224q-38 0 -62.5 26t-24.5 62l-1 485h-292v-144q1 -42 6 -70t14.5 -50.5t23.5 -44t32 -49.5q45 -75 61 -156.5t-13 -166.5q-11 21 -22.5 44t-27 45.5t-35.5 43.5t-47 38q-37 23 -73.5 48t-66 53t-47.5 60.5
t-18 71.5v402q0 19 7 35.5t19 29t28 19.5t34 7h542zM281 1364q23 0 43.5 -9t35.5 -24.5t24 -36t9 -43.5t-9 -43.5t-24 -36t-35.5 -24.5t-43.5 -9t-43 9t-35 24.5t-24 36t-9 43.5t9 43.5t24 36t35 24.5t43 9zM559 1364q22 0 42.5 -9t35.5 -24.5t24 -36t9 -43.5t-9 -43.5
t-24 -36t-35.5 -24.5t-42.5 -9q-23 0 -43.5 9t-36 24.5t-24.5 36t-9 43.5t9 43.5t24.5 36t36 24.5t43.5 9z" />
    <glyph glyph-name="tehisolated" unicode="&#x62a;" horiz-adv-x="1098" arabic-form="isolated" 
d="M263 159q-61 -2 -105.5 14t-72.5 43t-41.5 62t-13 70.5t14 68.5t38.5 56q6 -35 39 -56t77 -31.5t92 -12.5t85 0h463v575h123q37 0 63 -26.5t26 -64.5v-610q0 -18 -7 -34t-19 -28t-28.5 -19t-34.5 -7h-699zM316 1141q23 0 43.5 -9t35.5 -24.5t24 -36t9 -43.5t-9 -43.5
t-24 -35.5t-35.5 -24t-43.5 -9t-43.5 9t-35.5 24t-24 35.5t-9 43.5t9 43.5t24 36t35.5 24.5t43.5 9zM593 1141q23 0 43.5 -9t36 -24.5t24.5 -36t9 -43.5t-9 -43.5t-24.5 -35.5t-36 -24t-43.5 -9t-43.5 9t-35.5 24t-24 35.5t-9 43.5t9 43.5t24 36t35.5 24.5t43.5 9z" />
    <glyph glyph-name="tehfinal" unicode="&#x62a;" horiz-adv-x="1156" arabic-form="final" 
d="M1161 373v-214h-884q-92 -2 -148 32.5t-79 83.5t-14.5 100t45.5 82q18 -33 57 -50.5t85 -25t91 -8t75 -0.5h464v484q0 19 7 35.5t19 29t28 19.5t34 7h124v-575h96zM347 1141q23 0 43.5 -9t35.5 -24.5t24 -36t9 -43.5t-9 -43.5t-24 -35.5t-35.5 -24t-43.5 -9t-43 9t-35 24
t-24 35.5t-9 43.5t9 43.5t24 36t35 24.5t43 9zM625 1141q23 0 43 -9t35 -24.5t24 -36t9 -43.5t-9 -43.5t-24 -35.5t-35 -24t-43 -9t-43.5 9t-36 24t-24.5 35.5t-9 43.5t9 43.5t24.5 36t36 24.5t43.5 9z" />
    <glyph glyph-name="tehinitial" unicode="&#x62a;" horiz-adv-x="637" arabic-form="initial" 
d="M-3 373h369v575h124q37 0 63 -26.5t26 -64.5v-610q0 -18 -7 -34t-19 -28t-28.5 -19t-34.5 -7h-493v214zM179 1364q23 0 43.5 -9t35.5 -24.5t24 -36t9 -43.5t-9 -43.5t-24 -36t-35.5 -24.5t-43.5 -9t-43 9t-35 24.5t-24 36t-9 43.5t9 43.5t24 36t35 24.5t43 9zM457 1364
q23 0 43 -9t35 -24.5t24 -36t9 -43.5t-9 -43.5t-24 -36t-35 -24.5t-43 -9t-43.5 9t-35.5 24.5t-24 36t-9 43.5t9 43.5t24 36t35.5 24.5t43.5 9z" />
    <glyph glyph-name="tehmedial" unicode="&#x62a;" horiz-adv-x="656" arabic-form="medial" 
d="M659 373v-214h-663v214h249v484q0 19 7 35.5t19.5 29t29 19.5t35.5 7h123v-575h200zM199 1364q23 0 43.5 -9t35.5 -24.5t24 -36t9 -43.5t-9 -43.5t-24 -36t-35.5 -24.5t-43.5 -9t-43 9t-35 24.5t-24 36t-9 43.5t9 43.5t24 36t35 24.5t43 9zM477 1364q23 0 43 -9t35 -24.5
t24 -36t9 -43.5t-9 -43.5t-24 -36t-35 -24.5t-43 -9t-43.5 9t-35.5 24.5t-24 36t-9 43.5t9 43.5t24 36t35.5 24.5t43.5 9z" />
    <glyph glyph-name="thehisolated" unicode="&#x62b;" horiz-adv-x="1098" arabic-form="isolated" 
d="M263 159q-61 -2 -105.5 14t-72.5 43t-41.5 62t-13 70.5t14 68.5t38.5 56q6 -35 39 -56t77 -31.5t92 -12.5t85 0h463v575h123q37 0 63 -26.5t26 -64.5v-610q0 -18 -7 -34t-19 -28t-28.5 -19t-34.5 -7h-699zM457 1340q23 0 43 -9t35 -24t24 -35.5t9 -44.5q0 -23 -9 -43
t-24 -35t-35 -24t-43 -9t-43.5 9t-35.5 24t-24 35t-9 43q0 24 9 44.5t24 35.5t35.5 24t43.5 9zM318 1097q23 0 43.5 -9t35.5 -24t24 -35.5t9 -44.5q0 -23 -9 -43t-24 -35t-35.5 -24t-43.5 -9t-43.5 9t-35.5 24t-24 35t-9 43q0 24 9 44.5t24 35.5t35.5 24t43.5 9zM595 1097
q23 0 43 -9t35 -24t24 -35.5t9 -44.5q0 -23 -9 -43t-24 -35t-35 -24t-43 -9t-43.5 9t-35.5 24t-24 35t-9 43q0 24 9 44.5t24 35.5t35.5 24t43.5 9z" />
    <glyph glyph-name="thehfinal" unicode="&#x62b;" horiz-adv-x="1156" arabic-form="final" 
d="M1161 373v-214h-884q-92 -2 -148 32.5t-79 83.5t-14.5 100t45.5 82q18 -33 57 -50.5t85 -25t91 -8t75 -0.5h464v484q0 19 7 35.5t19 29t28 19.5t34 7h124v-575h96zM471 1340q23 0 43 -9t35 -24t24 -35.5t9 -44.5q0 -23 -9 -43t-24 -35t-35 -24t-43 -9t-43.5 9t-36 24
t-24.5 35t-9 43q0 24 9 44.5t24.5 35.5t36 24t43.5 9zM331 1097q23 0 43.5 -9t36 -24t24.5 -35.5t9 -44.5q0 -23 -9 -43t-24.5 -35t-36 -24t-43.5 -9t-43 9t-35 24t-24 35t-9 43q0 24 9 44.5t24 35.5t35 24t43 9zM609 1097q23 0 43 -9t35 -24t24 -35.5t9 -44.5q0 -23 -9 -43
t-24 -35t-35 -24t-43 -9t-43.5 9t-35.5 24t-24 35t-9 43q0 24 9 44.5t24 35.5t35.5 24t43.5 9z" />
    <glyph glyph-name="thehinitial" unicode="&#x62b;" horiz-adv-x="637" arabic-form="initial" 
d="M-3 373h369v575h124q37 0 63 -26.5t26 -64.5v-610q0 -18 -7 -34t-19 -28t-28.5 -19t-34.5 -7h-493v214zM325 1606q23 0 43.5 -9t36 -24.5t24.5 -36t9 -44.5q0 -23 -9 -43t-24.5 -35t-36 -24t-43.5 -9t-43.5 9t-35.5 24t-24 35t-9 43q0 24 9 44.5t24 36t35.5 24.5t43.5 9z
M187 1364q23 0 43.5 -9t35.5 -24.5t24 -36t9 -43.5t-9 -43.5t-24 -36t-35.5 -24.5t-43.5 -9t-43.5 9t-35.5 24.5t-24 36t-9 43.5t9 43.5t24 36t35.5 24.5t43.5 9zM465 1364q22 0 42.5 -9t35.5 -24.5t24 -36t9 -43.5t-9 -43.5t-24 -36t-35.5 -24.5t-42.5 -9q-23 0 -44 9
t-36.5 24.5t-24.5 36t-9 43.5t9 43.5t24.5 36t36.5 24.5t44 9z" />
    <glyph glyph-name="thehmedial" unicode="&#x62b;" horiz-adv-x="656" arabic-form="medial" 
d="M659 373v-214h-663v214h249v484q0 19 7 35.5t19.5 29t29 19.5t35.5 7h123v-575h200zM325 1606q23 0 43.5 -9t36 -24.5t24.5 -36t9 -44.5q0 -23 -9 -43t-24.5 -35t-36 -24t-43.5 -9t-43.5 9t-35.5 24t-24 35t-9 43q0 24 9 44.5t24 36t35.5 24.5t43.5 9zM187 1364
q23 0 43.5 -9t35.5 -24.5t24 -36t9 -43.5t-9 -43.5t-24 -36t-35.5 -24.5t-43.5 -9t-43.5 9t-35.5 24.5t-24 36t-9 43.5t9 43.5t24 36t35.5 24.5t43.5 9zM465 1364q22 0 42.5 -9t35.5 -24.5t24 -36t9 -43.5t-9 -43.5t-24 -36t-35.5 -24.5t-42.5 -9q-23 0 -44 9t-36.5 24.5
t-24.5 36t-9 43.5t9 43.5t24.5 36t36.5 24.5t44 9z" />
    <glyph glyph-name="jeemisolated" unicode="&#x62c;" horiz-adv-x="926" arabic-form="isolated" 
d="M678 373q-5 87 -33 141.5t-69.5 88t-93 52.5t-103 34.5t-98.5 34t-80 51t-48.5 86t-3.5 139.5q67 -42 138.5 -69t142.5 -40q101 -18 183 -58.5t140.5 -105t92 -153t39.5 -201.5q-2 -37 -13 -73t-31 -65.5t-50.5 -50t-71.5 -25.5h-371q-17 3 -44.5 -0.5t-53 -18
t-42.5 -41.5t-14 -69.5t33 -103t98 -141.5q15 -21 5.5 -25.5t-34 6t-58.5 34.5t-68 59t-63.5 79.5t-44.5 96t-10.5 109t38.5 118.5q13 22 34.5 41.5t48 34.5t57 24t61.5 11h387zM574 -37q23 0 43.5 -9t35.5 -24.5t24 -36t9 -43.5t-9 -43.5t-24 -35.5t-35.5 -24t-43.5 -9
t-43.5 9t-35.5 24t-24 35.5t-9 43.5t9 43.5t24 36t35.5 24.5t43.5 9z" />
    <glyph glyph-name="jeemfinal" unicode="&#x62c;" horiz-adv-x="972" arabic-form="final" 
d="M978 373v-214h-630q-17 3 -44.5 -0.5t-53 -18t-42.5 -41.5t-14 -69.5t33 -103t98 -141.5q15 -21 5.5 -25.5t-34 6t-58.5 34.5t-68 59t-63.5 79.5t-44.5 96t-10.5 109t38.5 118.5q13 22 34.5 41.5t48 34.5t57 24t61.5 11h387q-5 87 -33 141.5t-69.5 88t-93 52.5t-103 34.5
t-98.5 34t-80 51t-48.5 86t-3.5 139.5q67 -42 138.5 -69t142.5 -40q101 -18 183 -58.5t140.5 -105t92 -153t39.5 -201.5h93zM574 -37q23 0 43.5 -9t35.5 -24.5t24 -36t9 -43.5t-9 -43.5t-24 -35.5t-35.5 -24t-43.5 -9t-43.5 9t-35.5 24t-24 35.5t-9 43.5t9 43.5t24 36
t35.5 24.5t43.5 9z" />
    <glyph glyph-name="jeeminitial" unicode="&#x62c;" horiz-adv-x="1027" arabic-form="initial" 
d="M986 373v-126q0 -18 -7 -34t-19 -28t-28.5 -19t-35.5 -7h-898v214h625q-14 94 -50.5 153t-85 94.5t-104 54t-109 32t-99 28.5t-74.5 43.5t-35.5 77t18.5 129.5q67 -35 128.5 -54t118.5 -31.5t109 -23t99.5 -29t89.5 -50t79.5 -86t69.5 -136.5t59 -202h149zM398 -37
q23 0 43.5 -9t35.5 -24.5t24 -36t9 -43.5t-9 -43.5t-24 -35.5t-35.5 -24t-43.5 -9t-43.5 9t-36 24t-24.5 35.5t-9 43.5t9 43.5t24.5 36t36 24.5t43.5 9z" />
    <glyph glyph-name="jeemmedial" unicode="&#x62c;" horiz-adv-x="921" arabic-form="medial" 
d="M924 373v-214h-927v214h619q-6 91 -36.5 147t-76 90t-100 51.5t-108 31.5t-101 29.5t-79.5 46t-42 81.5t11 135q66 -36 128 -55t118.5 -31t108.5 -22.5t99 -29.5t89 -50.5t79 -85.5t69 -136t58 -202h91zM398 -37q23 0 43.5 -9t35.5 -24.5t24 -36t9 -43.5t-9 -43.5
t-24 -35.5t-35.5 -24t-43.5 -9t-43.5 9t-36 24t-24.5 35.5t-9 43.5t9 43.5t24.5 36t36 24.5t43.5 9z" />
    <glyph glyph-name="hahisolated" unicode="&#x62d;" horiz-adv-x="926" arabic-form="isolated" 
d="M678 373q-5 87 -33 141.5t-69.5 88t-93 52.5t-103 34.5t-98.5 34t-80 51t-48.5 86t-3.5 139.5q67 -42 138.5 -69t142.5 -40q101 -18 183 -58.5t140.5 -105t92 -153t39.5 -201.5q-2 -37 -13 -73t-31 -65.5t-50.5 -50t-71.5 -25.5h-371q-17 3 -44.5 -0.5t-53 -18
t-42.5 -41.5t-14 -69.5t33 -103t98 -141.5q15 -21 5.5 -25.5t-34 6t-58.5 34.5t-68 59t-63.5 79.5t-44.5 96t-10.5 109t38.5 118.5q13 22 34.5 41.5t48 34.5t57 24t61.5 11h387z" />
    <glyph glyph-name="hahfinal" unicode="&#x62d;" horiz-adv-x="972" arabic-form="final" 
d="M978 373v-214h-630q-17 3 -44.5 -0.5t-53 -18t-42.5 -41.5t-14 -69.5t33 -103t98 -141.5q15 -21 5.5 -25.5t-34 6t-58.5 34.5t-68 59t-63.5 79.5t-44.5 96t-10.5 109t38.5 118.5q13 22 34.5 41.5t48 34.5t57 24t61.5 11h387q-5 87 -33 141.5t-69.5 88t-93 52.5t-103 34.5
t-98.5 34t-80 51t-48.5 86t-3.5 139.5q67 -42 138.5 -69t142.5 -40q101 -18 183 -58.5t140.5 -105t92 -153t39.5 -201.5h93z" />
    <glyph glyph-name="hahinitial" unicode="&#x62d;" horiz-adv-x="1027" arabic-form="initial" 
d="M986 373v-126q0 -18 -7 -34t-19 -28t-28.5 -19t-35.5 -7h-898v214h625q-14 94 -50.5 153t-85 94.5t-104 54t-109 32t-99 28.5t-74.5 43.5t-35.5 77t18.5 129.5q67 -35 128.5 -54t118.5 -31.5t109 -23t99.5 -29t89.5 -50t79.5 -86t69.5 -136.5t59 -202h149z" />
    <glyph glyph-name="hahmedial" unicode="&#x62d;" horiz-adv-x="921" arabic-form="medial" 
d="M924 373v-214h-927v214h619q-6 91 -36.5 147t-76 90t-100 51.5t-108 31.5t-101 29.5t-79.5 46t-42 81.5t11 135q66 -36 128 -55t118.5 -31t108.5 -22.5t99 -29.5t89 -50.5t79 -85.5t69 -136t58 -202h91z" />
    <glyph glyph-name="khahisolated" unicode="&#x62e;" horiz-adv-x="926" arabic-form="isolated" 
d="M390 1364q23 0 43 -9t35 -24.5t24 -36t9 -43.5t-9 -43.5t-24 -36t-35 -24.5t-43 -9t-43.5 9t-35.5 24.5t-24 36t-9 43.5t9 43.5t24 36t35.5 24.5t43.5 9zM678 373q-5 87 -33 141.5t-69.5 88t-93 52.5t-103 34.5t-98.5 34t-80 51t-48.5 86t-3.5 139.5q67 -42 138.5 -69
t142.5 -40q101 -18 183 -58.5t140.5 -105t92 -153t39.5 -201.5q-2 -37 -13 -73t-31 -65.5t-50.5 -50t-71.5 -25.5h-371q-17 3 -44.5 -0.5t-53 -18t-42.5 -41.5t-14 -69.5t33 -103t98 -141.5q15 -21 5.5 -25.5t-34 6t-58.5 34.5t-68 59t-63.5 79.5t-44.5 96t-10.5 109
t38.5 118.5q13 22 34.5 41.5t48 34.5t57 24t61.5 11h387z" />
    <glyph glyph-name="khahfinal" unicode="&#x62e;" horiz-adv-x="972" arabic-form="final" 
d="M367 1364q23 0 43.5 -9t35.5 -24.5t24 -36t9 -43.5t-9 -43.5t-24 -36t-35.5 -24.5t-43.5 -9t-43.5 9t-35.5 24.5t-24 36t-9 43.5t9 43.5t24 36t35.5 24.5t43.5 9zM978 373v-214h-630q-17 3 -44.5 -0.5t-53 -18t-42.5 -41.5t-14 -69.5t33 -103t98 -141.5q15 -21 5.5 -25.5
t-34 6t-58.5 34.5t-68 59t-63.5 79.5t-44.5 96t-10.5 109t38.5 118.5q13 22 34.5 41.5t48 34.5t57 24t61.5 11h387q-5 87 -33 141.5t-69.5 88t-93 52.5t-103 34.5t-98.5 34t-80 51t-48.5 86t-3.5 139.5q67 -42 138.5 -69t142.5 -40q101 -18 183 -58.5t140.5 -105t92 -153
t39.5 -201.5h93z" />
    <glyph glyph-name="khahinitial" unicode="&#x62e;" horiz-adv-x="1027" arabic-form="initial" 
d="M297 1364q23 0 43.5 -9t35.5 -24.5t24 -36t9 -43.5t-9 -43.5t-24 -36t-35.5 -24.5t-43.5 -9t-43.5 9t-35.5 24.5t-24 36t-9 43.5t9 43.5t24 36t35.5 24.5t43.5 9zM986 373v-126q0 -18 -7 -34t-19 -28t-28.5 -19t-35.5 -7h-898v214h625q-14 94 -50.5 153t-85 94.5t-104 54
t-109 32t-99 28.5t-74.5 43.5t-35.5 77t18.5 129.5q67 -35 128.5 -54t118.5 -31.5t109 -23t99.5 -29t89.5 -50t79.5 -86t69.5 -136.5t59 -202h149z" />
    <glyph glyph-name="khahmedial" unicode="&#x62e;" horiz-adv-x="921" arabic-form="medial" 
d="M291 1364q23 0 43.5 -9t36 -24.5t24.5 -36t9 -43.5t-9 -43.5t-24.5 -36t-36 -24.5t-43.5 -9t-43 9t-35 24.5t-24 36t-9 43.5t9 43.5t24 36t35 24.5t43 9zM924 373v-214h-927v214h619q-6 91 -36.5 147t-76 90t-100 51.5t-108 31.5t-101 29.5t-79.5 46t-42 81.5t11 135
q66 -36 128 -55t118.5 -31t108.5 -22.5t99 -29.5t89 -50.5t79 -85.5t69 -136t58 -202h91z" />
    <glyph glyph-name="dalisolated" unicode="&#x62f;" horiz-adv-x="847" arabic-form="isolated" 
d="M131 159q-18 0 -34 7t-28 19t-19 28t-7 34v126h537v359h-182q-73 -1 -125 13t-85.5 37t-50.5 52t-21 59t3 58t22 49q19 -11 41.5 -21t51 -17.5t65.5 -11.5t86 -2h321q18 0 33.5 -7t27.5 -19.5t19 -29t7 -35.5v-610q0 -18 -7 -34t-19 -28t-27.5 -19t-33.5 -7h-575z" />
    <glyph glyph-name="dalfinal" unicode="&#x62f;" horiz-adv-x="887" arabic-form="final" 
d="M700 948q38 0 64 -26.5t26 -64.5v-484h100v-214h-763q-18 0 -34.5 7t-29 19t-19.5 28t-7 34v126h540v359h-184q-78 -2 -132 12.5t-89.5 39t-53 55.5t-22.5 62.5t1.5 60.5t19.5 50q16 -14 39.5 -27t55.5 -22.5t73.5 -13.5t94.5 -1h320z" />
    <glyph glyph-name="thalisolated" unicode="&#x630;" horiz-adv-x="847" arabic-form="isolated" 
d="M273 1364q23 0 43.5 -9t35.5 -24.5t24 -36t9 -43.5t-9 -43.5t-24 -36t-35.5 -24.5t-43.5 -9t-43 9t-35 24.5t-24 36t-9 43.5t9 43.5t24 36t35 24.5t43 9zM131 159q-18 0 -34 7t-28 19t-19 28t-7 34v126h537v359h-182q-73 -1 -125 13t-85.5 37t-50.5 52t-21 59t3 58t22 49
q19 -11 41.5 -21t51 -17.5t65.5 -11.5t86 -2h321q18 0 33.5 -7t27.5 -19.5t19 -29t7 -35.5v-610q0 -18 -7 -34t-19 -28t-27.5 -19t-33.5 -7h-575z" />
    <glyph glyph-name="thalfinal" unicode="&#x630;" horiz-adv-x="887" arabic-form="final" 
d="M258 1364q23 0 43.5 -9t35.5 -24.5t24 -36t9 -43.5t-9 -43.5t-24 -36t-35.5 -24.5t-43.5 -9t-43.5 9t-35.5 24.5t-24 36t-9 43.5t9 43.5t24 36t35.5 24.5t43.5 9zM700 948q38 0 64 -26.5t26 -64.5v-484h100v-214h-763q-18 0 -34.5 7t-29 19t-19.5 28t-7 34v126h540v359
h-184q-78 -2 -132 12.5t-89.5 39t-53 55.5t-22.5 62.5t1.5 60.5t19.5 50q16 -14 39.5 -27t55.5 -22.5t73.5 -13.5t94.5 -1h320z" />
    <glyph glyph-name="rehisolated" unicode="&#x631;" horiz-adv-x="543" arabic-form="isolated" 
d="M403 948q37 0 63 -26.5t26 -64.5v-484q4 -113 -19.5 -200.5t-63 -153.5t-89.5 -112.5t-100 -76t-94.5 -44t-73 -17.5t-35.5 4.5t18 21.5q61 34 106 76t75 95.5t45.5 120.5t15.5 152l1 709h125z" />
    <glyph glyph-name="rehfinal" unicode="&#x631;" horiz-adv-x="613" arabic-form="final" 
d="M499 159q-10 -67 -41.5 -120.5t-75.5 -96t-94.5 -73t-98 -50.5t-87.5 -29.5t-62.5 -9t-22.5 9.5t33 27q125 67 191 168t67 254l2 709h123q38 0 64 -26.5t26 -64.5v-484h96v-214h-120z" />
    <glyph glyph-name="zainisolated" unicode="&#x632;" horiz-adv-x="543" arabic-form="isolated" 
d="M359 1364q23 0 43.5 -9t36 -24.5t24.5 -36t9 -43.5t-9 -43.5t-24.5 -36t-36 -24.5t-43.5 -9t-43 9t-35 24.5t-24 36t-9 43.5t9 43.5t24 36t35 24.5t43 9zM403 948q37 0 63 -26.5t26 -64.5v-484q4 -113 -19.5 -200.5t-63 -153.5t-89.5 -112.5t-100 -76t-94.5 -44
t-73 -17.5t-35.5 4.5t18 21.5q61 34 106 76t75 95.5t45.5 120.5t15.5 152l1 709h125z" />
    <glyph glyph-name="zainfinal" unicode="&#x632;" horiz-adv-x="613" arabic-form="final" 
d="M418 1364q23 0 43.5 -9t36 -24.5t24.5 -36t9 -43.5t-9 -43.5t-24.5 -36t-36 -24.5t-43.5 -9t-43 9t-35 24.5t-24 36t-9 43.5t9 43.5t24 36t35 24.5t43 9zM499 159q-10 -67 -41.5 -120.5t-75.5 -96t-94.5 -73t-98 -50.5t-87.5 -29.5t-62.5 -9t-22.5 9.5t33 27
q125 67 191 168t67 254l2 709h123q38 0 64 -26.5t26 -64.5v-484h96v-214h-120z" />
    <glyph glyph-name="seenisolated" unicode="&#x633;" horiz-adv-x="1784" arabic-form="isolated" 
d="M1235 948v-575h292v575h123q38 0 64 -26.5t26 -64.5v-610q0 -18 -7 -34t-19 -28t-28.5 -19t-35.5 -7h-980q-40 -60 -96.5 -99t-120 -56.5t-129.5 -13t-124.5 33.5t-104 82.5t-68.5 132.5q15 -24 45.5 -43.5t69 -31t82.5 -14t87 7t82 31.5t68 60t44.5 92.5t11.5 129.5v386
q0 38 26 64.5t64 26.5h124v-575h290v484q0 38 26 64.5t64 26.5h124z" />
    <glyph glyph-name="seenfinal" unicode="&#x633;" horiz-adv-x="1801" arabic-form="final" 
d="M1206 948v-575h292v575h125q18 0 34 -7t28 -19.5t19 -29t7 -35.5v-484h93v-214h-1161q-27 -46 -74.5 -79t-105.5 -49.5t-122 -14t-123 28t-108.5 76t-78.5 129.5q45 -30 97.5 -50t105.5 -25t101 7t84 46.5t55.5 94t14.5 149.5v385q0 38 26 64.5t63 26.5h124v-575h291v484
q0 19 7 35.5t19.5 29t28.5 19.5t34 7h124z" />
    <glyph glyph-name="seeninitial" unicode="&#x633;" horiz-adv-x="1353" arabic-form="initial" 
d="M805 948v-575h292v575h124q18 0 34 -7t28.5 -19.5t19.5 -29t7 -35.5v-610q0 -18 -7 -34t-19.5 -28t-28.5 -19t-34 -7h-1224v214h90v484q0 38 26.5 64.5t63.5 26.5h124v-575h291v484q0 38 26 64.5t63 26.5h124z" />
    <glyph glyph-name="seenmedial" unicode="&#x633;" horiz-adv-x="1402" arabic-form="medial" 
d="M806 948v-575h292v575h124q37 0 63 -26.5t26 -64.5v-484h94v-214h-1408v214h92v484q0 19 7 35.5t19 29t28 19.5t34 7h125v-575h290v484q0 38 26.5 64.5t63.5 26.5h124z" />
    <glyph glyph-name="sheenisolated" unicode="&#x634;" horiz-adv-x="1784" arabic-form="isolated" 
d="M1235 948v-575h292v575h123q38 0 64 -26.5t26 -64.5v-610q0 -18 -7 -34t-19 -28t-28.5 -19t-35.5 -7h-980q-40 -60 -96.5 -99t-120 -56.5t-129.5 -13t-124.5 33.5t-104 82.5t-68.5 132.5q15 -24 45.5 -43.5t69 -31t82.5 -14t87 7t82 31.5t68 60t44.5 92.5t11.5 129.5v386
q0 38 26 64.5t64 26.5h124v-575h290v484q0 38 26 64.5t64 26.5h124zM1128 1606q23 0 43.5 -9t35.5 -24.5t24 -36t9 -44.5q0 -23 -9 -43t-24 -35t-35.5 -24t-43.5 -9t-43.5 9t-35.5 24t-24 35t-9 43q0 24 9 44.5t24 36t35.5 24.5t43.5 9zM989 1364q23 0 43.5 -9t35.5 -24.5
t24 -36t9 -43.5t-9 -43.5t-24 -36t-35.5 -24.5t-43.5 -9t-43 9t-35 24.5t-24 36t-9 43.5t9 43.5t24 36t35 24.5t43 9zM1267 1364q23 0 43 -9t35 -24.5t24 -36t9 -43.5t-9 -43.5t-24 -36t-35 -24.5t-43 -9t-43.5 9t-36 24.5t-24.5 36t-9 43.5t9 43.5t24.5 36t36 24.5t43.5 9z
" />
    <glyph glyph-name="sheenfinal" unicode="&#x634;" horiz-adv-x="1801" arabic-form="final" 
d="M1206 948v-575h292v575h125q18 0 34 -7t28 -19.5t19 -29t7 -35.5v-484h93v-214h-1161q-27 -46 -74.5 -79t-105.5 -49.5t-122 -14t-123 28t-108.5 76t-78.5 129.5q45 -30 97.5 -50t105.5 -25t101 7t84 46.5t55.5 94t14.5 149.5v385q0 38 26 64.5t63 26.5h124v-575h291v484
q0 19 7 35.5t19.5 29t28.5 19.5t34 7h124zM1109 1606q23 0 43.5 -9t35.5 -24.5t24 -36t9 -44.5q0 -23 -9 -43t-24 -35t-35.5 -24t-43.5 -9t-43.5 9t-35.5 24t-24 35t-9 43q0 24 9 44.5t24 36t35.5 24.5t43.5 9zM970 1364q23 0 43.5 -9t35.5 -24.5t24 -36t9 -43.5t-9 -43.5
t-24 -36t-35.5 -24.5t-43.5 -9t-43 9t-35 24.5t-24 36t-9 43.5t9 43.5t24 36t35 24.5t43 9zM1248 1364q22 0 42.5 -9t35.5 -24.5t24 -36t9 -43.5t-9 -43.5t-24 -36t-35.5 -24.5t-42.5 -9q-23 0 -43.5 9t-36 24.5t-24.5 36t-9 43.5t9 43.5t24.5 36t36 24.5t43.5 9z" />
    <glyph glyph-name="sheeninitial" unicode="&#x634;" horiz-adv-x="1353" arabic-form="initial" 
d="M805 948v-575h292v575h124q18 0 34 -7t28.5 -19.5t19.5 -29t7 -35.5v-610q0 -18 -7 -34t-19.5 -28t-28.5 -19t-34 -7h-1224v214h90v484q0 38 26.5 64.5t63.5 26.5h124v-575h291v484q0 38 26 64.5t63 26.5h124zM704 1606q23 0 43 -9t35 -24.5t24 -36t9 -44.5q0 -23 -9 -43
t-24 -35t-35 -24t-43 -9t-43.5 9t-35.5 24t-24 35t-9 43q0 24 9 44.5t24 36t35.5 24.5t43.5 9zM565 1364q23 0 43.5 -9t35.5 -24.5t24 -36t9 -43.5t-9 -43.5t-24 -36t-35.5 -24.5t-43.5 -9t-43.5 9t-35.5 24.5t-24 36t-9 43.5t9 43.5t24 36t35.5 24.5t43.5 9zM842 1364
q23 0 43.5 -9t35.5 -24.5t24 -36t9 -43.5t-9 -43.5t-24 -36t-35.5 -24.5t-43.5 -9t-43.5 9t-35.5 24.5t-24 36t-9 43.5t9 43.5t24 36t35.5 24.5t43.5 9z" />
    <glyph glyph-name="sheenmedial" unicode="&#x634;" horiz-adv-x="1402" arabic-form="medial" 
d="M670 1606q23 0 43.5 -9t35.5 -24.5t24 -36t9 -44.5q0 -23 -9 -43t-24 -35t-35.5 -24t-43.5 -9t-43.5 9t-35.5 24t-24 35t-9 43q0 24 9 44.5t24 36t35.5 24.5t43.5 9zM806 948v-575h292v575h124q37 0 63 -26.5t26 -64.5v-484h94v-214h-1408v214h92v484q0 19 7 35.5t19 29
t28 19.5t34 7h125v-575h290v484q0 38 26.5 64.5t63.5 26.5h124zM531 1364q23 0 43.5 -9t36 -24.5t24.5 -36t9 -43.5t-9 -43.5t-24.5 -36t-36 -24.5t-43.5 -9t-43.5 9t-35.5 24.5t-24 36t-9 43.5t9 43.5t24 36t35.5 24.5t43.5 9zM808 1364q23 0 43.5 -9t35.5 -24.5t24 -36
t9 -43.5t-9 -43.5t-24 -36t-35.5 -24.5t-43.5 -9t-43.5 9t-35.5 24.5t-24 36t-9 43.5t9 43.5t24 36t35.5 24.5t43.5 9z" />
    <glyph glyph-name="sadisolated" unicode="&#x635;" horiz-adv-x="1742" arabic-form="isolated" 
d="M1481 734h-503q-50 -1 -91.5 -18t-74 -44.5t-56 -64t-38.5 -76t-20.5 -80.5t-2.5 -78h786v361zM480 866q0 18 7 34.5t19.5 28.5t29 19t35.5 7h122l-2 -186q19 45 54 78.5t78 56t90.5 34t93.5 10.5h599q37 0 63.5 -26.5t26.5 -64.5v-610q0 -18 -7 -34t-19.5 -28t-29 -19
t-34.5 -7h-1005q-29 -52 -76 -85t-102.5 -46.5t-115 -7t-112.5 34t-95.5 77.5t-64.5 122q18 -12 40 -25t47.5 -23.5t55 -17.5t62.5 -7q82 0 131.5 37t75 96t31.5 132.5t2 147.5v272z" />
    <glyph glyph-name="sadfinal" unicode="&#x635;" horiz-adv-x="1793" arabic-form="final" 
d="M1485 734h-503q-74 -8 -130 -45t-92 -89.5t-51.5 -112.5t-9.5 -114h786v361zM484 866q0 18 7 34.5t19 28.5t28 19t34 7h125l-2 -193q21 45 57 80.5t79.5 59.5t89.5 36t87 10h601q37 0 63 -26.5t26 -64.5v-484h97v-214h-1177q-29 -45 -74 -77.5t-99 -49.5t-112 -15
t-113 26t-102.5 72.5t-78.5 124.5q35 -24 87 -41.5t118 -17.5q82 0 131 37t74.5 96.5t32 133t2.5 146.5v272z" />
    <glyph glyph-name="sadinitial" unicode="&#x635;" horiz-adv-x="1343" arabic-form="initial" 
d="M1086 734h-504q-75 -11 -129.5 -49.5t-89.5 -91t-50.5 -111t-13.5 -109.5h787v361zM-12 159v214h96v493q0 37 26.5 63t64.5 26h123l-1 -201q18 44 51 81t75 63t90.5 39.5t98.5 10.5h598q38 0 64 -26.5t26 -64.5v-610q0 -18 -7 -34t-19 -28t-28.5 -19t-35.5 -7h-1222z" />
    <glyph glyph-name="sadmedial" unicode="&#x635;" horiz-adv-x="1398" arabic-form="medial" 
d="M1094 734h-504q-86 -12 -142.5 -52t-89.5 -92.5t-44.5 -110.5t-8.5 -106h789v361zM-5 159v214h97v493q0 18 7 34.5t19 28.5t28.5 19t35.5 7h123v-186q23 46 58.5 80.5t78 57t88.5 33t89 8.5h599q37 0 63 -26.5t26 -64.5v-484h96v-214h-1408z" />
    <glyph glyph-name="dadisolated" unicode="&#x636;" horiz-adv-x="1742" arabic-form="isolated" 
d="M1054 1364q23 0 43.5 -9t36 -24.5t24.5 -36t9 -43.5t-9 -43.5t-24.5 -36t-36 -24.5t-43.5 -9t-43 9t-35 24.5t-24 36t-9 43.5t9 43.5t24 36t35 24.5t43 9zM1481 734h-503q-50 -1 -91.5 -18t-74 -44.5t-56 -64t-38.5 -76t-20.5 -80.5t-2.5 -78h786v361zM480 866
q0 18 7 34.5t19.5 28.5t29 19t35.5 7h122l-2 -186q19 45 54 78.5t78 56t90.5 34t93.5 10.5h599q37 0 63.5 -26.5t26.5 -64.5v-610q0 -18 -7 -34t-19.5 -28t-29 -19t-34.5 -7h-1005q-29 -52 -76 -85t-102.5 -46.5t-115 -7t-112.5 34t-95.5 77.5t-64.5 122q18 -12 40 -25
t47.5 -23.5t55 -17.5t62.5 -7q82 0 131.5 37t75 96t31.5 132.5t2 147.5v272z" />
    <glyph glyph-name="dadfinal" unicode="&#x636;" horiz-adv-x="1793" arabic-form="final" 
d="M1051 1364q23 0 43.5 -9t35.5 -24.5t24 -36t9 -43.5t-9 -43.5t-24 -36t-35.5 -24.5t-43.5 -9t-43 9t-35 24.5t-24 36t-9 43.5t9 43.5t24 36t35 24.5t43 9zM1485 734h-503q-74 -8 -130 -45t-92 -89.5t-51.5 -112.5t-9.5 -114h786v361zM484 866q0 18 7 34.5t19 28.5t28 19
t34 7h125l-2 -193q21 45 57 80.5t79.5 59.5t89.5 36t87 10h601q37 0 63 -26.5t26 -64.5v-484h97v-214h-1177q-29 -45 -74 -77.5t-99 -49.5t-112 -15t-113 26t-102.5 72.5t-78.5 124.5q35 -24 87 -41.5t118 -17.5q82 0 131 37t74.5 96.5t32 133t2.5 146.5v272z" />
    <glyph glyph-name="dadinitial" unicode="&#x636;" horiz-adv-x="1343" arabic-form="initial" 
d="M649 1364q23 0 43.5 -9t35.5 -24.5t24 -36t9 -43.5t-9 -43.5t-24 -36t-35.5 -24.5t-43.5 -9t-43.5 9t-35.5 24.5t-24 36t-9 43.5t9 43.5t24 36t35.5 24.5t43.5 9zM1086 734h-504q-75 -11 -129.5 -49.5t-89.5 -91t-50.5 -111t-13.5 -109.5h787v361zM-12 159v214h96v493
q0 37 26.5 63t64.5 26h123l-1 -201q18 44 51 81t75 63t90.5 39.5t98.5 10.5h598q38 0 64 -26.5t26 -64.5v-610q0 -18 -7 -34t-19 -28t-28.5 -19t-35.5 -7h-1222z" />
    <glyph glyph-name="dadmedial" unicode="&#x636;" horiz-adv-x="1398" arabic-form="medial" 
d="M682 1364q23 0 43 -9t35 -24.5t24 -36t9 -43.5t-9 -43.5t-24 -36t-35 -24.5t-43 -9t-43.5 9t-35.5 24.5t-24 36t-9 43.5t9 43.5t24 36t35.5 24.5t43.5 9zM1094 734h-504q-86 -12 -142.5 -52t-89.5 -92.5t-44.5 -110.5t-8.5 -106h789v361zM-5 159v214h97v493q0 18 7 34.5
t19 28.5t28.5 19t35.5 7h123v-186q23 46 58.5 80.5t78 57t88.5 33t89 8.5h599q37 0 63 -26.5t26 -64.5v-484h96v-214h-1408z" />
    <glyph glyph-name="tahisolated" unicode="&#x637;" horiz-adv-x="1625" arabic-form="isolated" 
d="M1366 734h-788v-361h788v361zM578 948h911q38 0 64 -26.5t26 -64.5v-610q0 -18 -7 -34t-19 -28t-28.5 -19t-35.5 -7h-1244q-81 3 -125.5 31.5t-64 67t-19.5 80.5q0 43 9.5 75t22.5 46.5t18 -2.5q6 -19 25.5 -36.5t53.5 -30t83.5 -18t116.5 0.5v891q0 18 7 34t19 28.5
t28.5 19.5t34.5 7h124v-405z" />
    <glyph glyph-name="tahfinal" unicode="&#x637;" horiz-adv-x="1683" arabic-form="final" 
d="M1380 734h-788v-361h788v361zM1593 373h95v-214h-1428q-57 -2 -98.5 13.5t-69.5 41.5t-42.5 58.5t-17 66t6 65t26.5 53.5q17 -30 54 -46.5t82.5 -25t92.5 -10.5t85 -2v891q0 18 7 34t19 28.5t28.5 19.5t35.5 7h123v-405h913q18 0 34 -7t28 -19.5t19 -29t7 -35.5v-484z
" />
    <glyph glyph-name="tahinitial" unicode="&#x637;" horiz-adv-x="1356" arabic-form="initial" 
d="M1094 734h-788v-361h788v361zM-3 373h96v891q0 18 7 34t19 28.5t28.5 19.5t35.5 7h123v-405h912q38 0 64 -26.5t26 -64.5v-610q0 -18 -7 -34t-19.5 -28t-29 -19t-34.5 -7h-1221v214z" />
    <glyph glyph-name="tahmedial" unicode="&#x637;" horiz-adv-x="1402" arabic-form="medial" 
d="M1096 734h-788v-361h788v361zM1310 373h98v-214h-1411v214h98v891q0 18 7 34t19 28.5t28.5 19.5t34.5 7h124v-405h913q18 0 34 -7t28.5 -19.5t19.5 -29t7 -35.5v-484z" />
    <glyph glyph-name="zahisolated" unicode="&#x638;" horiz-adv-x="1625" arabic-form="isolated" 
d="M996 1364q23 0 43.5 -9t35.5 -24.5t24 -36t9 -43.5t-9 -43.5t-24 -36t-35.5 -24.5t-43.5 -9t-43.5 9t-35.5 24.5t-23.5 36t-8.5 43.5t8.5 43.5t23.5 36t35.5 24.5t43.5 9zM1366 734h-788v-361h788v361zM578 948h911q38 0 64 -26.5t26 -64.5v-610q0 -18 -7 -34t-19 -28
t-28.5 -19t-35.5 -7h-1244q-81 3 -125.5 31.5t-64 67t-19.5 80.5q0 43 9.5 75t22.5 46.5t18 -2.5q6 -19 25.5 -36.5t53.5 -30t83.5 -18t116.5 0.5v891q0 18 7 34t19 28.5t28.5 19.5t34.5 7h124v-405z" />
    <glyph glyph-name="zahfinal" unicode="&#x638;" horiz-adv-x="1683" arabic-form="final" 
d="M1004 1364q23 0 43.5 -9t35.5 -24.5t23.5 -36t8.5 -43.5t-8.5 -43.5t-23.5 -36t-35.5 -24.5t-43.5 -9t-43.5 9t-35.5 24.5t-23.5 36t-8.5 43.5t8.5 43.5t23.5 36t35.5 24.5t43.5 9zM1380 734h-788v-361h788v361zM1593 373h95v-214h-1428q-57 -2 -98.5 13.5t-69.5 41.5
t-42.5 58.5t-17 66t6 65t26.5 53.5q17 -30 54 -46.5t82.5 -25t92.5 -10.5t85 -2v891q0 18 7 34t19 28.5t28.5 19.5t35.5 7h123v-405h913q18 0 34 -7t28 -19.5t19 -29t7 -35.5v-484z" />
    <glyph glyph-name="zahinitial" unicode="&#x638;" horiz-adv-x="1356" arabic-form="initial" 
d="M711 1364q23 0 43.5 -9t35.5 -24.5t24 -36t9 -43.5t-9 -43.5t-24 -36t-35.5 -24.5t-43.5 -9t-43.5 9t-35.5 24.5t-24 36t-9 43.5t9 43.5t24 36t35.5 24.5t43.5 9zM1094 734h-788v-361h788v361zM-3 373h96v891q0 18 7 34t19 28.5t28.5 19.5t35.5 7h123v-405h912
q38 0 64 -26.5t26 -64.5v-610q0 -18 -7 -34t-19.5 -28t-29 -19t-34.5 -7h-1221v214z" />
    <glyph glyph-name="zahmedial" unicode="&#x638;" horiz-adv-x="1402" arabic-form="medial" 
d="M712 1364q23 0 43 -9t35 -24.5t24 -36t9 -43.5t-9 -43.5t-24 -36t-35 -24.5t-43 -9t-43.5 9t-36 24.5t-24.5 36t-9 43.5t9 43.5t24.5 36t36 24.5t43.5 9zM1096 734h-788v-361h788v361zM1310 373h98v-214h-1411v214h98v891q0 18 7 34t19 28.5t28.5 19.5t34.5 7h124v-405
h913q18 0 34 -7t28.5 -19.5t19.5 -29t7 -35.5v-484z" />
    <glyph glyph-name="ainisolated" unicode="&#x639;" horiz-adv-x="1039" arabic-form="isolated" 
d="M242 857q0 38 26 64.5t63 26.5h321q38 0 79 1t81.5 5t79 10t72.5 17q-1 -29 -20 -71t-59 -80.5t-101 -67t-145 -30.5h-184v-359h539v-126q0 -18 -7 -34t-19 -28t-28.5 -19t-34.5 -7h-558q-51 -7 -77.5 -30t-36 -55.5t-5.5 -72t14.5 -78.5t24 -75t23 -61.5t11 -38.5
t-11.5 -6q-18 11 -44 32.5t-54 50.5t-56 64t-50 74.5t-35 82t-11 85.5q4 64 27.5 109t54.5 73.5t64 42.5t57 17v484z" />
    <glyph glyph-name="ainfinal" unicode="&#x639;" horiz-adv-x="1043" arabic-form="final" 
d="M721 732q-87 0 -142.5 2.5t-92.5 6t-60 9t-44 13.5q-4 -60 9.5 -119.5t36 -113t50.5 -100t52 -81.5q59 82 109 174t82 209zM252 414q-24 43 -42.5 100.5t-31 120t-19 125t-6.5 116.5q0 29 1 54t2.5 43t4 27t6.5 8q37 -17 95 -28.5t123.5 -18.5t132 -10t122.5 -4t95 -0.5
t48 1.5q48 0 80.5 -11t52 -29.5t28 -44t8.5 -54.5q0 -32 -9 -70.5t-23.5 -79t-33 -82t-37.5 -79t-36.5 -70t-30.5 -55.5h265v-214h-699q-22 -1 -39.5 -8t-30 -18t-19.5 -24.5t-7 -26.5q26 -59 36 -114t10.5 -101.5t-6 -81.5t-14 -53.5t-13 -18t-3.5 24.5q-17 31 -51.5 79.5
t-70.5 103t-65 109.5t-35 101q-6 52 9.5 96.5t47 78.5t76 55.5t97.5 26.5z" />
    <glyph glyph-name="aininitial" unicode="&#x639;" horiz-adv-x="906" arabic-form="initial" 
d="M311 732v-359h538v-126q0 -36 -25.5 -62t-63.5 -26h-763v214h100v484q0 38 26 64.5t64 26.5h320q38 0 80.5 2t84.5 6t82.5 11t73.5 17q3 -30 -13 -73t-56 -82.5t-105 -68t-160 -28.5h-183z" />
    <glyph glyph-name="ainmedial" unicode="&#x639;" horiz-adv-x="984" arabic-form="medial" 
d="M662 732q-88 0 -144 2.5t-93 6t-60 9t-44 13.5q-3 -60 10.5 -119.5t36 -113.5t50 -100.5t52.5 -81.5q57 80 108 173t84 211zM106 1008q55 -19 120 -31t131 -19.5t129 -10t113.5 -3t83.5 1t40 2.5q48 0 80.5 -11t52 -29.5t28 -44t8.5 -54.5q0 -32 -9 -70.5t-23.5 -79
t-33 -82t-37.5 -79t-37 -70t-31 -55.5h266v-214h-990v214h222q-31 54 -55 119.5t-40 133.5t-24 132.5t-8 117.5q0 30 1 55t2.5 43t4.5 27t6 7z" />
    <glyph glyph-name="ghainisolated" unicode="&#x63a;" horiz-adv-x="1039" arabic-form="isolated" 
d="M577 1364q23 0 43.5 -9t35.5 -24.5t24 -36t9 -43.5t-9 -43.5t-24 -36t-35.5 -24.5t-43.5 -9t-43.5 9t-35.5 24.5t-24 36t-9 43.5t9 43.5t24 36t35.5 24.5t43.5 9zM242 857q0 38 26 64.5t63 26.5h321q38 0 79 1t81.5 5t79 10t72.5 17q-1 -29 -20 -71t-59 -80.5t-101 -67
t-145 -30.5h-184v-359h539v-126q0 -18 -7 -34t-19 -28t-28.5 -19t-34.5 -7h-558q-51 -7 -77.5 -30t-36 -55.5t-5.5 -72t14.5 -78.5t24 -75t23 -61.5t11 -38.5t-11.5 -6q-18 11 -44 32.5t-54 50.5t-56 64t-50 74.5t-35 82t-11 85.5q4 64 27.5 109t54.5 73.5t64 42.5t57 17
v484z" />
    <glyph glyph-name="ghainfinal" unicode="&#x63a;" horiz-adv-x="1043" arabic-form="final" 
d="M531 1364q23 0 43.5 -9t35.5 -24.5t24 -36t9 -43.5t-9 -43.5t-24 -36t-35.5 -24.5t-43.5 -9t-43.5 9t-36 24.5t-24.5 36t-9 43.5t9 43.5t24.5 36t36 24.5t43.5 9zM721 732q-87 0 -142.5 2.5t-92.5 6t-60 9t-44 13.5q-4 -60 9.5 -119.5t36 -113t50.5 -100t52 -81.5
q59 82 109 174t82 209zM252 414q-24 43 -42.5 100.5t-31 120t-19 125t-6.5 116.5q0 29 1 54t2.5 43t4 27t6.5 8q37 -17 95 -28.5t123.5 -18.5t132 -10t122.5 -4t95 -0.5t48 1.5q48 0 80.5 -11t52 -29.5t28 -44t8.5 -54.5q0 -32 -9 -70.5t-23.5 -79t-33 -82t-37.5 -79
t-36.5 -70t-30.5 -55.5h265v-214h-699q-22 -1 -39.5 -8t-30 -18t-19.5 -24.5t-7 -26.5q26 -59 36 -114t10.5 -101.5t-6 -81.5t-14 -53.5t-13 -18t-3.5 24.5q-17 31 -51.5 79.5t-70.5 103t-65 109.5t-35 101q-6 52 9.5 96.5t47 78.5t76 55.5t97.5 26.5z" />
    <glyph glyph-name="ghaininitial" unicode="&#x63a;" horiz-adv-x="906" arabic-form="initial" 
d="M450 1364q23 0 43.5 -9t35.5 -24.5t24 -36t9 -43.5t-9 -43.5t-24 -36t-35.5 -24.5t-43.5 -9t-43.5 9t-35.5 24.5t-24 36t-9 43.5t9 43.5t24 36t35.5 24.5t43.5 9zM311 732v-359h538v-126q0 -36 -25.5 -62t-63.5 -26h-763v214h100v484q0 38 26 64.5t64 26.5h320
q38 0 80.5 2t84.5 6t82.5 11t73.5 17q3 -30 -13 -73t-56 -82.5t-105 -68t-160 -28.5h-183z" />
    <glyph glyph-name="ghainmedial" unicode="&#x63a;" horiz-adv-x="984" arabic-form="medial" 
d="M471 1364q23 0 43.5 -9t35.5 -24.5t24 -36t9 -43.5t-9 -43.5t-24 -36t-35.5 -24.5t-43.5 -9t-43.5 9t-35.5 24.5t-24 36t-9 43.5t9 43.5t24 36t35.5 24.5t43.5 9zM662 732q-88 0 -144 2.5t-93 6t-60 9t-44 13.5q-3 -60 10.5 -119.5t36 -113.5t50 -100.5t52.5 -81.5
q57 80 108 173t84 211zM106 1008q55 -19 120 -31t131 -19.5t129 -10t113.5 -3t83.5 1t40 2.5q48 0 80.5 -11t52 -29.5t28 -44t8.5 -54.5q0 -32 -9 -70.5t-23.5 -79t-33 -82t-37.5 -79t-37 -70t-31 -55.5h266v-214h-990v214h222q-31 54 -55 119.5t-40 133.5t-24 132.5
t-8 117.5q0 30 1 55t2.5 43t4.5 27t6 7z" />
    <glyph glyph-name="fehisolated" unicode="&#x641;" horiz-adv-x="1312" arabic-form="isolated" 
d="M907 1364q23 0 43.5 -9t35.5 -24.5t24 -36t9 -43.5t-9 -43.5t-24 -36t-35.5 -24.5t-43.5 -9t-43 9t-35 24.5t-24 36t-9 43.5t9 43.5t24 36t35 24.5t43 9zM760 732v-359h291v359h-291zM1175 948q37 0 63 -26.5t26 -64.5v-610q0 -18 -7 -34t-19 -28t-28.5 -19t-34.5 -7
h-898q-70 -2 -117.5 13.5t-76.5 41t-41.5 58.5t-11 66.5t15 65t35.5 54.5q12 -23 34 -38t49.5 -24t58.5 -14t61 -7t57 -2h48h157v484q0 38 26 64.5t63 26.5h540z" />
    <glyph glyph-name="fehfinal" unicode="&#x641;" horiz-adv-x="1371" arabic-form="final" 
d="M916 1364q23 0 43.5 -9t35.5 -24.5t24 -36t9 -43.5t-9 -43.5t-24 -36t-35.5 -24.5t-43.5 -9t-43 9t-35 24.5t-24 36t-9 43.5t9 43.5t24 36t35 24.5t43 9zM766 732v-359h293v359h-293zM1182 948q37 0 63.5 -26.5t26.5 -64.5v-484h102v-214h-1090q-67 -2 -114.5 14t-78 42
t-44.5 59t-13.5 66.5t15 64.5t40.5 52q18 -33 57 -50.5t84.5 -25t90.5 -8t75 -0.5h156v484q0 38 26.5 64.5t64.5 26.5h539z" />
    <glyph glyph-name="fehinitial" unicode="&#x641;" horiz-adv-x="874" arabic-form="initial" 
d="M454 1364q23 0 43.5 -9t35.5 -24.5t24 -36t9 -43.5t-9 -43.5t-24 -36t-35.5 -24.5t-43.5 -9t-43.5 9t-35.5 24.5t-24 36t-9 43.5t9 43.5t24 36t35.5 24.5t43.5 9zM305 732v-359h293v359h-293zM721 948q19 0 35.5 -7t29 -19.5t19.5 -29t7 -35.5v-610q0 -18 -7 -34
t-19.5 -28t-29 -19t-35.5 -7h-724v214h96v484q0 38 26 64.5t63 26.5h539z" />
    <glyph glyph-name="fehmedial" unicode="&#x641;" horiz-adv-x="901" arabic-form="medial" 
d="M452 1364q23 0 43.5 -9t35.5 -24.5t24 -36t9 -43.5t-9 -43.5t-24 -36t-35.5 -24.5t-43.5 -9t-43.5 9t-35.5 24.5t-24 36t-9 43.5t9 43.5t24 36t35.5 24.5t43.5 9zM305 732v-359h292v359h-292zM720 948q38 0 64 -26.5t26 -64.5v-484h95v-214h-908v214h93v484
q0 38 26.5 64.5t64.5 26.5h539z" />
    <glyph glyph-name="qafisolated" unicode="&#x642;" horiz-adv-x="1086" arabic-form="isolated" 
d="M532 732v-359h293v359h-293zM244 159q-59 1 -100 17.5t-67 42t-37.5 57t-11 64t12.5 62.5t33 52q12 -26 37 -42.5t57.5 -25t71.5 -11.5t80 -2v484q0 38 25.5 64.5t62.5 26.5h540q38 0 64.5 -26.5t26.5 -64.5v-610q0 -18 -7 -34t-19.5 -28t-29 -19t-35.5 -7h-704z
M531 1364q23 0 43.5 -9t36 -24.5t24.5 -36t9 -43.5t-9 -43.5t-24.5 -36t-36 -24.5t-43.5 -9t-43.5 9t-35.5 24.5t-24 36t-9 43.5t9 43.5t24 36t35.5 24.5t43.5 9zM808 1364q23 0 43.5 -9t35.5 -24.5t24 -36t9 -43.5t-9 -43.5t-24 -36t-35.5 -24.5t-43.5 -9t-43.5 9
t-35.5 24.5t-24 36t-9 43.5t9 43.5t24 36t35.5 24.5t43.5 9z" />
    <glyph glyph-name="qaffinal" unicode="&#x642;" horiz-adv-x="1168" arabic-form="final" 
d="M565 732v-359h293v359h-293zM278 159q-69 1 -116.5 17.5t-77.5 42.5t-43 58.5t-11.5 65.5t15.5 63t39 51q12 -30 40.5 -48t66 -26.5t79.5 -10t81 0.5v484q0 38 26.5 64.5t63.5 26.5h540q37 0 63.5 -26.5t26.5 -64.5v-484h102v-214h-895zM566 1364q23 0 43.5 -9t36 -24.5
t24.5 -36t9 -43.5t-9 -43.5t-24.5 -36t-36 -24.5t-43.5 -9t-43.5 9t-35.5 24.5t-24 36t-9 43.5t9 43.5t24 36t35.5 24.5t43.5 9zM844 1364q23 0 43 -9t35 -24.5t24 -36t9 -43.5t-9 -43.5t-24 -36t-35 -24.5t-43 -9t-43.5 9t-36 24.5t-24.5 36t-9 43.5t9 43.5t24.5 36
t36 24.5t43.5 9z" />
    <glyph glyph-name="qafinitial" unicode="&#x642;" horiz-adv-x="874" arabic-form="initial" 
d="M305 732v-359h293v359h-293zM721 948q19 0 35.5 -7t29 -19.5t19.5 -29t7 -35.5v-610q0 -18 -7 -34t-19.5 -28t-29 -19t-35.5 -7h-724v214h96v484q0 38 26 64.5t63 26.5h539zM308 1364q23 0 43.5 -9t35.5 -24.5t24 -36t9 -43.5t-9 -43.5t-24 -36t-35.5 -24.5t-43.5 -9
t-43 9t-35 24.5t-24 36t-9 43.5t9 43.5t24 36t35 24.5t43 9zM586 1364q22 0 42.5 -9t35.5 -24.5t24 -36t9 -43.5t-9 -43.5t-24 -36t-35.5 -24.5t-42.5 -9q-23 0 -43.5 9t-36 24.5t-24.5 36t-9 43.5t9 43.5t24.5 36t36 24.5t43.5 9z" />
    <glyph glyph-name="qafmedial" unicode="&#x642;" horiz-adv-x="901" arabic-form="medial" 
d="M305 732v-359h292v359h-292zM720 948q38 0 64 -26.5t26 -64.5v-484h95v-214h-908v214h93v484q0 38 26.5 64.5t64.5 26.5h539zM308 1364q23 0 43.5 -9t35.5 -24.5t24 -36t9 -43.5t-9 -43.5t-24 -36t-35.5 -24.5t-43.5 -9t-43 9t-35 24.5t-24 36t-9 43.5t9 43.5t24 36
t35 24.5t43 9zM586 1364q22 0 42.5 -9t35.5 -24.5t24 -36t9 -43.5t-9 -43.5t-24 -36t-35.5 -24.5t-42.5 -9q-23 0 -43.5 9t-36 24.5t-24.5 36t-9 43.5t9 43.5t24.5 36t36 24.5t43.5 9z" />
    <glyph glyph-name="kafisolated" unicode="&#x643;" horiz-adv-x="1316" arabic-form="isolated" 
d="M1061 373v282h-634q-24 0 -48.5 4t-44 16t-32 32.5t-12.5 53.5v161q0 39 29 72t72 61.5t90.5 53t85.5 45.5q63 36 99 71.5t54 55t22 14t4 -51.5q0 -33 -8.5 -75t-37 -91t-83 -101.5t-146.5 -106.5h715q18 0 34.5 -7t28.5 -19.5t19 -29t7 -35.5v-531q0 -18 -7 -34t-19 -28
t-28.5 -19t-34.5 -7h-924q-84 2 -135.5 29t-74 69t-17.5 94.5t33 105.5q18 -33 57 -50.5t84.5 -25t90.5 -8t75 -0.5h686z" />
    <glyph glyph-name="arabickaffinal" unicode="&#x643;" horiz-adv-x="1367" arabic-form="final" 
d="M1058 655h-635q-24 0 -49 4t-44.5 16t-32 32.5t-12.5 53.5v161q5 50 34 90.5t71 74t92 63t98.5 58t91 59t68.5 65.5q20 28 29 22.5t4.5 -36t-23.5 -81t-56 -111.5t-93 -127.5t-133 -129.5h714q18 0 34.5 -7t28.5 -19.5t19 -29t7 -35.5l2 -405h99v-214h-1108
q-84 2 -135.5 29t-74 69t-17.5 94.5t33 105.5q18 -33 56.5 -50.5t84 -25t90.5 -8t76 -0.5h682z" />
    <glyph glyph-name="kafinitial" unicode="&#x643;" horiz-adv-x="1128" arabic-form="initial" 
d="M867 655h-634q-25 0 -49.5 4t-44 16t-32 32.5t-12.5 53.5v161q11 48 48 90t86 79t104 70t103 63.5t82 59t41 56.5t18 24.5t14.5 -31.5t-6 -76t-43.5 -109.5t-97.5 -133t-168.5 -145.5h715q18 0 34.5 -7t28.5 -19.5t19 -29t7 -35.5v-531q0 -18 -7 -34t-19 -28t-28.5 -19
t-34.5 -7h-994v214h870v282z" />
    <glyph glyph-name="kafmedial" unicode="&#x643;" horiz-adv-x="1172" arabic-form="medial" 
d="M865 655h-635q-25 0 -49.5 4t-44 16t-32 32.5t-12.5 53.5v161q5 50 34 90.5t70.5 74t92 63t99 58t90.5 59t68 65.5q20 28 29 22.5t5 -36t-23.5 -81t-56.5 -111.5t-93 -127.5t-133 -129.5h714q19 0 35.5 -7t28.5 -19.5t19 -29t7 -35.5v-405h96v-214h-1177v214h868v282z
" />
    <glyph glyph-name="lamisolated" unicode="&#x644;" horiz-adv-x="824" arabic-form="isolated" 
d="M266 948v-575h293v980h123q18 0 34.5 -7t29 -19.5t19.5 -28.5t7 -34v-1017q0 -18 -7 -34t-19.5 -28t-29 -19t-34.5 -7h-539q-18 0 -34.5 7t-29 19t-19.5 28t-7 34v610q0 38 26.5 64.5t63.5 26.5h123z" />
    <glyph glyph-name="lamfinal" unicode="&#x644;" horiz-adv-x="863" arabic-form="final" 
d="M261 948v-575h291v980h126q18 0 34 -7t28 -19.5t19 -28.5t7 -34v-891h100v-214h-729q-18 0 -34.5 7t-28.5 19t-19 28t-7 34v610q0 38 26 64.5t63 26.5h124z" />
    <glyph glyph-name="laminitial" unicode="&#x644;" horiz-adv-x="367" arabic-form="initial" 
d="M-5 373h100v980h124q19 0 35.5 -7t28.5 -19.5t19 -28.5t7 -34v-1017q0 -18 -7 -34t-19 -28t-28.5 -19t-35.5 -7h-224v214z" />
    <glyph glyph-name="lammedial" unicode="&#x644;" horiz-adv-x="403" arabic-form="medial" 
d="M405 373v-214h-408v214h100v891q0 18 7 34t19 28.5t28.5 19.5t34.5 7h125v-980h94z" />
    <glyph glyph-name="meemisolated" unicode="&#x645;" horiz-adv-x="1032" arabic-form="isolated" 
d="M478 732v-359h292v359h-292zM894 948q37 0 63 -26.5t26 -64.5v-610q0 -18 -7 -34t-19 -28t-28.5 -19t-34.5 -7h-556q-43 -7 -64.5 -24t-28 -41t-0.5 -54t18 -62.5t26.5 -67t26 -67t16 -62.5t-3.5 -54q-10 11 -43.5 43t-75 77.5t-82.5 102t-66 116.5t-25 120q0 61 41 116
q10 14 25 25t36.5 20t52.5 16t73 13v481q0 38 26.5 64.5t63.5 26.5h540z" />
    <glyph glyph-name="meemfinal" unicode="&#x645;" horiz-adv-x="1082" arabic-form="final" 
d="M482 732v-359h291v359h-291zM899 948q18 0 34 -7t28 -19.5t19 -29t7 -35.5v-484h98v-214h-744q-59 -3 -84 -23.5t-28.5 -52.5t9.5 -74.5t30 -89.5t33 -97.5t19 -98.5q0 7 -17.5 26t-45 47t-61 64t-64.5 77.5t-56 87t-35 92.5t-2.5 94t42.5 91q11 12 26 23t37 20.5
t52.5 17t72.5 12.5v482q0 38 25.5 64.5t63.5 26.5h541z" />
    <glyph glyph-name="meeminitial" unicode="&#x645;" horiz-adv-x="874" arabic-form="initial" 
d="M305 732v-359h293v359h-293zM721 948q19 0 35.5 -7t29 -19.5t19.5 -29t7 -35.5v-610q0 -18 -7 -34t-19.5 -28t-29 -19t-35.5 -7h-724v214h96v484q0 38 26 64.5t63 26.5h539z" />
    <glyph glyph-name="meemmedial" unicode="&#x645;" horiz-adv-x="902" arabic-form="medial" 
d="M305 732v-359h292v359h-292zM720 948q38 0 64 -26.5t26 -64.5v-484h95v-214h-908v214h93v484q0 38 26.5 64.5t64.5 26.5h539z" />
    <glyph glyph-name="noonisolated" unicode="&#x646;" horiz-adv-x="828" arabic-form="isolated" 
d="M418 1364q23 0 43.5 -9t35.5 -24.5t24 -36t9 -43.5t-9 -43.5t-24 -36t-35.5 -24.5t-43.5 -9t-43.5 9t-35.5 24.5t-24 36t-9 43.5t9 43.5t24 36t35.5 24.5t43.5 9zM272 948v-575h292v575h124q37 0 63 -26.5t26 -64.5v-610q0 -18 -7 -34t-19 -28t-28.5 -19t-34.5 -7h-540
q-19 0 -35.5 7t-28.5 19t-19 28t-7 34v610q0 38 26 64.5t64 26.5h124z" />
    <glyph glyph-name="noonfinal" unicode="&#x646;" horiz-adv-x="855" arabic-form="final" 
d="M408 1364q23 0 43 -9t35 -24.5t24 -36t9 -43.5t-9 -43.5t-24 -36t-35 -24.5t-43 -9t-43.5 9t-36 24.5t-24.5 36t-9 43.5t9 43.5t24.5 36t36 24.5t43.5 9zM262 948v-575h291v575h125q18 0 34 -7t28 -19.5t19 -29t7 -35.5v-484h92v-214h-721q-18 0 -34.5 7t-28.5 19t-19 28
t-7 34v610q0 38 26 64.5t63 26.5h125z" />
    <glyph glyph-name="nooninitial" unicode="&#x646;" horiz-adv-x="359" arabic-form="initial" 
d="M182 1364q23 0 43.5 -9t35.5 -24.5t24 -36t9 -43.5t-9 -43.5t-24 -36t-35.5 -24.5t-43.5 -9t-43.5 9t-35.5 24.5t-24 36t-9 43.5t9 43.5t24 36t35.5 24.5t43.5 9zM-3 373h93v575h123q37 0 63 -26.5t26 -64.5v-610q0 -18 -7 -34t-19 -28t-28.5 -19t-34.5 -7h-216v214z" />
    <glyph glyph-name="noonmedial" unicode="&#x646;" horiz-adv-x="394" arabic-form="medial" 
d="M195 1364q23 0 43 -9t35 -24.5t24 -36t9 -43.5t-9 -43.5t-24 -36t-35 -24.5t-43 -9t-43.5 9t-35.5 24.5t-24 36t-9 43.5t9 43.5t24 36t35.5 24.5t43.5 9zM399 373v-214h-404v214h96v484q0 19 7 35.5t19.5 29t29 19.5t35.5 7h123v-575h94z" />
    <glyph glyph-name="hehisolated" unicode="&#x647;" horiz-adv-x="823" arabic-form="isolated" 
d="M269 732v-359h291v359h-291zM685 948q18 0 34 -7t28 -19.5t19 -29t7 -35.5v-610q0 -18 -7 -34t-19 -28t-28 -19t-34 -7h-541q-18 0 -34.5 7t-29 19t-19.5 28t-7 34v610q0 38 26.5 64.5t63.5 26.5h541z" />
    <glyph glyph-name="hehfinal" unicode="&#x647;" horiz-adv-x="863" arabic-form="final" 
d="M679 948q18 0 34 -7t28 -19.5t19 -29t7 -35.5l1 -484h98v-214h-224q-38 0 -62.5 26t-24.5 62l-1 485h-292v-144q1 -42 6 -70t14.5 -50.5t23.5 -44t32 -49.5q45 -75 61 -156.5t-13 -166.5q-11 21 -22.5 44t-27 45.5t-35.5 43.5t-47 38q-37 23 -73.5 48t-66 53t-47.5 60.5
t-18 71.5v402q0 19 7 35.5t19 29t28 19.5t34 7h542z" />
    <glyph glyph-name="hehinitial" unicode="&#x647;" horiz-adv-x="1511" arabic-form="initial" 
d="M97 373v484q0 38 26 64.5t64 26.5h416q-14 9 -21 23.5t-8 30.5t4.5 32.5t15.5 28.5q60 -38 124.5 -60t127.5 -41q48 -14 95.5 -31.5t93.5 -44.5t89 -67t81 -101t69.5 -145.5t55.5 -199.5h150v-126q0 -18 -7 -34t-19.5 -28t-29 -19t-34.5 -7h-1393v214h100zM311 373h292
v359h-292v-359zM1114 373q-7 73 -34.5 130.5t-68.5 102.5t-91.5 79t-103.5 61v-373h298z" />
    <glyph glyph-name="hehmedial" unicode="&#x647;" horiz-adv-x="1414" arabic-form="medial" 
d="M95 373v484q0 19 7 35.5t19.5 29t28.5 19.5t34 7h416q-11 12 -17.5 28t-7.5 32t3 30.5t14 24.5q60 -38 124.5 -60t127.5 -41q48 -14 96 -31.5t93.5 -44.5t88.5 -67t81 -101t69.5 -145.5t55.5 -199.5h90v-214h-1422v214h99zM308 373h292v359h-292v-359zM1113 372
q-5 75 -32 132.5t-69 102.5t-93.5 79t-105.5 60v-373z" />
    <glyph glyph-name="wawisolated" unicode="&#x648;" horiz-adv-x="820" arabic-form="isolated" 
d="M269 732v-359h292v359h-292zM685 948q18 0 34 -7t28 -19.5t19 -29t7 -35.5v-505q0 -88 -14.5 -152t-40 -110.5t-61 -78.5t-77 -54t-88 -37.5t-94.5 -30.5q-26 -8 -56 -22t-59 -29t-53 -26.5t-37.5 -13.5t-13.5 8t20 39q30 47 72 79t89 55q26 13 53 27t53 34.5t49 48.5
t41 70h-411q-19 0 -35.5 7t-28.5 19t-19 28t-7 34v610q0 38 26 64.5t64 26.5h540z" />
    <glyph glyph-name="wawfinal" unicode="&#x648;" horiz-adv-x="871" arabic-form="final" 
d="M267 732v-359h292v359h-292zM683 948q37 0 63 -26.5t26 -64.5v-484h102v-214h-127q-24 -69 -61.5 -113.5t-83.5 -74t-98.5 -48t-106.5 -34.5q-27 -8 -57 -22t-58 -27.5t-51.5 -24.5t-37 -13t-14 7t17.5 36q31 48 73 79t88 55q27 14 55.5 28.5t55.5 35t49 48.5t36 68h-411
q-18 0 -34.5 7t-28.5 19t-19 28t-7 34v610q0 38 26 64.5t63 26.5h540z" />
    <glyph glyph-name="alefmaksuraisolated" unicode="&#x649;" horiz-adv-x="1101" arabic-form="isolated" 
d="M267 593v-396h568v223h-205q-24 0 -49 4t-44.5 16t-32 32.5t-12.5 52.5v161q0 39 17.5 74t46 64t65.5 53t76 42q50 23 80.5 56.5t47 58.5t22 30t5.5 -29q0 -29 -9 -73.5t-29.5 -98.5t-55 -113t-85.5 -116h287q18 0 34 -7t28.5 -19.5t19.5 -29t7 -35.5v-470
q0 -18 -7 -34.5t-19.5 -29t-28.5 -19.5t-34 -7h-818q-18 0 -34 7t-28 19.5t-19 29t-7 34.5v429q0 19 7 35.5t19 29t28 19.5t34 7h125z" />
    <glyph glyph-name="alefmaksurafinal" unicode="&#x649;" horiz-adv-x="1469" arabic-form="final" 
d="M1285 948q38 0 64 -26.5t26 -64.5v-484h98v-214h-224q-37 0 -62 26t-25 62l-1 485l-154 -2v-77q0 -40 0.5 -81t0.5 -82v-76q-8 -98 -51 -177.5t-110 -136t-150.5 -87t-171.5 -30.5q-90 0 -176.5 30.5t-159.5 94.5q-52 45 -80.5 94t-42 102t-16 110.5t-2.5 119.5v31
q0 38 26 64t63 26h123l1 -184q0 -69 24.5 -121t64 -87t89.5 -52.5t102 -17.5q45 0 87.5 13t77 39.5t58.5 67t31 95.5l-1 448q0 18 7 34t19 28.5t28 19.5t35 7z" />
    <glyph glyph-name="yehisolated" unicode="&#x64a;" horiz-adv-x="1101" arabic-form="isolated" 
d="M267 593v-396h568v223h-205q-24 0 -49 4t-44.5 16t-32 32.5t-12.5 52.5v161q0 39 17.5 74t46 64t65.5 53t76 42q50 23 80.5 56.5t47 58.5t22 30t5.5 -29q0 -29 -9 -73.5t-29.5 -98.5t-55 -113t-85.5 -116h287q18 0 34 -7t28.5 -19.5t19.5 -29t7 -35.5v-470
q0 -18 -7 -34.5t-19.5 -29t-28.5 -19.5t-34 -7h-818q-18 0 -34 7t-28 19.5t-19 29t-7 34.5v429q0 19 7 35.5t19 29t28 19.5t34 7h125zM410 -152q23 0 43.5 -9t35.5 -24t24 -35.5t9 -44.5q0 -23 -9 -43t-24 -35t-35.5 -24t-43.5 -9t-43.5 9t-35.5 24t-24 35t-9 43
q0 24 9 44.5t24 35.5t35.5 24t43.5 9zM687 -152q23 0 43.5 -9t35.5 -24t24 -35.5t9 -44.5q0 -23 -9 -43t-24 -35t-35.5 -24t-43.5 -9t-43.5 9t-35.5 24t-24 35t-9 43q0 24 9 44.5t24 35.5t35.5 24t43.5 9z" />
    <glyph glyph-name="yehfinal" unicode="&#x64a;" horiz-adv-x="1469" arabic-form="final" 
d="M1285 948q38 0 64 -26.5t26 -64.5v-484h98v-214h-224q-37 0 -62 26t-25 62l-1 485l-154 -2v-77q0 -40 0.5 -81t0.5 -82v-76q-8 -98 -51 -177.5t-110 -136t-150.5 -87t-171.5 -30.5q-90 0 -176.5 30.5t-159.5 94.5q-52 45 -80.5 94t-42 102t-16 110.5t-2.5 119.5v31
q0 38 26 64t63 26h123l1 -184q0 -69 24.5 -121t64 -87t89.5 -52.5t102 -17.5q45 0 87.5 13t77 39.5t58.5 67t31 95.5l-1 448q0 18 7 34t19 28.5t28 19.5t35 7zM418 -148q23 0 43.5 -9t36 -24.5t24.5 -36t9 -44.5q0 -23 -9 -43t-24.5 -35t-36 -24t-43.5 -9t-43.5 9t-35.5 24
t-24 35t-9 43q0 24 9 44.5t24 36t35.5 24.5t43.5 9zM695 -148q23 0 43.5 -9t35.5 -24.5t24 -36t9 -44.5q0 -23 -9 -43t-24 -35t-35.5 -24t-43.5 -9t-43.5 9t-35.5 24t-24 35t-9 43q0 24 9 44.5t24 36t35.5 24.5t43.5 9z" />
    <glyph glyph-name="yehinitial" unicode="&#x64a;" horiz-adv-x="637" arabic-form="initial" 
d="M-3 373h369v575h124q37 0 63 -26.5t26 -64.5v-610q0 -18 -7 -34t-19 -28t-28.5 -19t-34.5 -7h-493v214zM203 -37q23 0 43.5 -9t36 -24.5t24.5 -36t9 -43.5t-9 -43.5t-24.5 -35.5t-36 -24t-43.5 -9t-43.5 9t-35.5 24t-24 35.5t-9 43.5t9 43.5t24 36t35.5 24.5t43.5 9z
M480 -37q23 0 43.5 -9t35.5 -24.5t24 -36t9 -43.5t-9 -43.5t-24 -35.5t-35.5 -24t-43.5 -9t-43.5 9t-35.5 24t-24 35.5t-9 43.5t9 43.5t24 36t35.5 24.5t43.5 9z" />
    <glyph glyph-name="yehmedial" unicode="&#x64a;" horiz-adv-x="656" arabic-form="medial" 
d="M203 -37q23 0 43.5 -9t36 -24.5t24.5 -36t9 -43.5t-9 -43.5t-24.5 -35.5t-36 -24t-43.5 -9t-43.5 9t-35.5 24t-24 35.5t-9 43.5t9 43.5t24 36t35.5 24.5t43.5 9zM480 -37q23 0 43.5 -9t35.5 -24.5t24 -36t9 -43.5t-9 -43.5t-24 -35.5t-35.5 -24t-43.5 -9t-43.5 9
t-35.5 24t-24 35.5t-9 43.5t9 43.5t24 36t35.5 24.5t43.5 9zM659 373v-214h-663v214h249v484q0 19 7 35.5t19.5 29t29 19.5t35.5 7h123v-575h200z" />
    <glyph glyph-name=".null" horiz-adv-x="0" 
 />
    <glyph glyph-name="nonmarkingreturn" horiz-adv-x="682" 
 />
    <glyph glyph-name="space" unicode=" " horiz-adv-x="435" 
 />
    <glyph glyph-name="arabiccomma" unicode="&#x60c;" horiz-adv-x="471" 
d="M254 152q-27 4 -50 21t-39 40.5t-25 52t-9 56.5q0 34 11 69.5t31 76.5q40 75 104 114q-46 -86 -46 -150q0 -53 27 -93t78 -66z" />
    <glyph glyph-name="arabicsemicolon" unicode="&#x61b;" horiz-adv-x="497" 
d="M255 342q22 0 42 -8.5t35 -23t23.5 -34.5t8.5 -43t-8.5 -42.5t-23.5 -34.5t-35 -23.5t-42 -8.5q-23 0 -42.5 8.5t-34.5 23.5t-23.5 34.5t-8.5 42.5t8.5 43t23.5 34.5t34.5 23t42.5 8.5zM247 488q-27 5 -50 21.5t-39 40.5t-25 52t-9 57q0 33 11 69t31 76q40 75 104 115
q-46 -86 -46 -150q0 -53 27 -93t78 -67z" />
    <glyph glyph-name="arabicquestionmark" unicode="&#x61f;" horiz-adv-x="961" 
d="M134 1286q0 24 18.5 41.5t43.5 17.5q30 -1 81.5 -3.5t113 -5t127.5 -3.5t125 0t105.5 5.5t68.5 14.5q-35 -54 -79.5 -100.5t-104.5 -65.5q-101 -6 -166 -7t-103 0.5t-54 4t-19 2.5v-320q39 4 82.5 5t85.5 -3.5t81 -16t68 -33.5t46.5 -56.5t17.5 -84.5q0 -21 -8.5 -61
t-19.5 -86q-55 -73 -58 -78q23 84 13 136t-41.5 81t-79 39.5t-98.5 11.5t-100 -3t-84 -4q-25 0 -43.5 17.5t-18.5 40.5v514zM600 342q22 0 42 -8.5t35 -23t24 -34.5t9 -43t-9 -42.5t-24 -34.5t-35 -23.5t-42 -8.5q-23 0 -42.5 8.5t-34.5 23.5t-23.5 34.5t-8.5 42.5t8.5 43
t23.5 34.5t34.5 23t42.5 8.5z" />
    <glyph glyph-name="hamza" unicode="&#x621;" horiz-adv-x="910" 
d="M471 635v-262h393v-126q0 -18 -7 -34t-19.5 -28t-29 -19t-35.5 -7q-122 0 -206.5 0.5t-140.5 0.5h-89h-50h-24h-10q-44 0 -76.5 -8t-56.5 -19.5t-41.5 -24l-31.5 -22.5q-10 36 -3.5 81t32 86.5t70.5 72t112 38.5v396q0 37 26 63t63 26h115h80h53h31h17h10q27 0 48.5 0.5
t44 4t47 11t57.5 21.5q-4 -36 -16 -77.5t-40 -78.5t-77 -63.5t-128 -31.5h-118z" />
    <glyph glyph-name="alefwithmaddaabove" unicode="&#x622;" horiz-adv-x="375" 
d="M294 1353v-1106q0 -18 -7 -34t-19 -28t-28.5 -19t-35.5 -7h-123v1105q0 18 7 34t19 28.5t28.5 19.5t35.5 7h123zM-31 1394q-1 71 53.5 123t202 4.5t227.5 33.5q-38 -184 -217.5 -126.5t-265.5 -34.5z" />
    <glyph glyph-name="alefwithhamzaabove" unicode="&#x623;" horiz-adv-x="375" 
d="M294 1353v-1106q0 -18 -7 -34t-19 -28t-28.5 -19t-35.5 -7h-123v1105q0 18 7 34t19 28.5t28.5 19.5t35.5 7h123zM-18 1385q-4 13 4 36.5t24 47.5t39 43.5t49 25.5v138q0 19 13 32t32 13h91h25q11 0 21 0.5t20 3.5t25 9q5 2 8.5 -5t3 -20t-5.5 -28.5t-17 -29t-32 -23
t-49 -9.5h-33v-74h145v-59q0 -18 -13 -31t-32 -13h-175q-20 2 -45 -3.5t-46 -16.5z" />
    <glyph glyph-name="wawwithhamzaabove" unicode="&#x624;" horiz-adv-x="820" 
d="M269 732v-359h292v359h-292zM685 948q18 0 34 -7t28 -19.5t19 -29t7 -35.5v-505q0 -88 -14.5 -152t-40 -110.5t-61 -78.5t-77 -54t-88 -37.5t-94.5 -30.5q-26 -8 -56 -22t-59 -29t-53 -26.5t-37.5 -13.5t-13.5 8t20 39q30 47 72 79t89 55q26 13 53 27t53 34.5t49 48.5
t41 70h-411q-19 0 -35.5 7t-28.5 19t-19 28t-7 34v610q0 38 26 64.5t64 26.5h540zM308 1366q0 23 16 39.5t39 16.5h114h32t25 1t25 4t31 11q7 3 11.5 -6t4 -25t-7.5 -35t-22 -36.5t-40 -29t-61 -12.5h-40v-92h181v-72q0 -23 -16.5 -39t-40.5 -16h-217q-21 1 -41 -4t-39 -15
t-37 -22t-34 -24q1 74 27.5 118t89.5 66v172z" />
    <glyph glyph-name="alefwithhamzabelow" unicode="&#x625;" horiz-adv-x="375" 
d="M294 1353v-1106q0 -18 -7 -34t-19 -28t-28.5 -19t-35.5 -7h-123v1105q0 18 7 34t19 28.5t28.5 19.5t35.5 7h123zM-38 -281q-4 13 4 36.5t24 47t39 43.5t49 26v138q0 18 13 31.5t32 13.5h91q15 0 25.5 -0.5t20 0.5t20 4t24.5 9q6 2 9.5 -5t3 -20t-5.5 -28.5t-17 -29
t-32 -23t-49 -9.5h-33v-74h145v-59q0 -18 -13 -31t-32 -13h-175q-20 2 -45 -3.5t-46 -16.5z" />
    <glyph glyph-name="yehwithhamzaabove" unicode="&#x626;" horiz-adv-x="1101" 
d="M267 593v-396h568v223h-205q-24 0 -49 4t-44.5 16t-32 32.5t-12.5 52.5v161q0 39 17.5 74t46 64t65.5 53t76 42q50 23 80.5 56.5t47 58.5t22 30t5.5 -29q0 -29 -9 -73.5t-29.5 -98.5t-55 -113t-85.5 -116h287q18 0 34 -7t28.5 -19.5t19.5 -29t7 -35.5v-470
q0 -18 -7 -34.5t-19.5 -29t-28.5 -19.5t-34 -7h-818q-18 0 -34 7t-28 19.5t-19 29t-7 34.5v429q0 19 7 35.5t19 29t28 19.5t34 7h125zM159 1077q0 23 16 39t39 16h114h32t25 1t25 4.5t31 11.5q7 3 11.5 -6t4 -25t-7.5 -35.5t-22 -36.5t-40 -29t-61 -13h-40v-92h181v-72
q0 -23 -16.5 -39t-39.5 -16h-218q-21 1 -41 -4t-39 -14.5t-37 -21t-34 -23.5q1 73 27.5 117t89.5 65v173z" />
    <glyph glyph-name="arabicalef" unicode="&#x627;" horiz-adv-x="375" 
d="M294 1353v-1106q0 -18 -7 -34t-19 -28t-28.5 -19t-35.5 -7h-123v1105q0 18 7 34t19 28.5t28.5 19.5t35.5 7h123z" />
    <glyph glyph-name="beh" unicode="&#x628;" horiz-adv-x="1098" 
d="M559 -37q23 0 43.5 -9t35.5 -24.5t24 -36t9 -43.5t-9 -43.5t-24 -35.5t-35.5 -24t-43.5 -9t-43.5 9t-35.5 24t-24 35.5t-9 43.5t9 43.5t24 36t35.5 24.5t43.5 9zM263 159q-61 -2 -105.5 14t-72.5 43t-41.5 62t-13 70.5t14 68.5t38.5 56q6 -35 39 -56t77 -31.5t92 -12.5
t85 0h463v575h123q37 0 63 -26.5t26 -64.5v-610q0 -18 -7 -34t-19 -28t-28.5 -19t-34.5 -7h-699z" />
    <glyph glyph-name="tehmarbuta" unicode="&#x629;" horiz-adv-x="823" 
d="M269 732v-359h291v359h-291zM685 948q18 0 34 -7t28 -19.5t19 -29t7 -35.5v-610q0 -18 -7 -34t-19 -28t-28 -19t-34 -7h-541q-18 0 -34.5 7t-29 19t-19.5 28t-7 34v610q0 38 26.5 64.5t63.5 26.5h541zM281 1364q23 0 43.5 -9t35.5 -24.5t24 -36t9 -43.5t-9 -43.5t-24 -36
t-35.5 -24.5t-43.5 -9t-43 9t-35 24.5t-24 36t-9 43.5t9 43.5t24 36t35 24.5t43 9zM559 1364q22 0 42.5 -9t35.5 -24.5t24 -36t9 -43.5t-9 -43.5t-24 -36t-35.5 -24.5t-42.5 -9q-23 0 -43.5 9t-36 24.5t-24.5 36t-9 43.5t9 43.5t24.5 36t36 24.5t43.5 9z" />
    <glyph glyph-name="teh" unicode="&#x62a;" horiz-adv-x="1098" 
d="M263 159q-61 -2 -105.5 14t-72.5 43t-41.5 62t-13 70.5t14 68.5t38.5 56q6 -35 39 -56t77 -31.5t92 -12.5t85 0h463v575h123q37 0 63 -26.5t26 -64.5v-610q0 -18 -7 -34t-19 -28t-28.5 -19t-34.5 -7h-699zM316 1141q23 0 43.5 -9t35.5 -24.5t24 -36t9 -43.5t-9 -43.5
t-24 -35.5t-35.5 -24t-43.5 -9t-43.5 9t-35.5 24t-24 35.5t-9 43.5t9 43.5t24 36t35.5 24.5t43.5 9zM593 1141q23 0 43.5 -9t36 -24.5t24.5 -36t9 -43.5t-9 -43.5t-24.5 -35.5t-36 -24t-43.5 -9t-43.5 9t-35.5 24t-24 35.5t-9 43.5t9 43.5t24 36t35.5 24.5t43.5 9z" />
    <glyph glyph-name="theh" unicode="&#x62b;" horiz-adv-x="1098" 
d="M263 159q-61 -2 -105.5 14t-72.5 43t-41.5 62t-13 70.5t14 68.5t38.5 56q6 -35 39 -56t77 -31.5t92 -12.5t85 0h463v575h123q37 0 63 -26.5t26 -64.5v-610q0 -18 -7 -34t-19 -28t-28.5 -19t-34.5 -7h-699zM457 1340q23 0 43 -9t35 -24t24 -35.5t9 -44.5q0 -23 -9 -43
t-24 -35t-35 -24t-43 -9t-43.5 9t-35.5 24t-24 35t-9 43q0 24 9 44.5t24 35.5t35.5 24t43.5 9zM318 1097q23 0 43.5 -9t35.5 -24t24 -35.5t9 -44.5q0 -23 -9 -43t-24 -35t-35.5 -24t-43.5 -9t-43.5 9t-35.5 24t-24 35t-9 43q0 24 9 44.5t24 35.5t35.5 24t43.5 9zM595 1097
q23 0 43 -9t35 -24t24 -35.5t9 -44.5q0 -23 -9 -43t-24 -35t-35 -24t-43 -9t-43.5 9t-35.5 24t-24 35t-9 43q0 24 9 44.5t24 35.5t35.5 24t43.5 9z" />
    <glyph glyph-name="jeem" unicode="&#x62c;" horiz-adv-x="926" 
d="M678 373q-5 87 -33 141.5t-69.5 88t-93 52.5t-103 34.5t-98.5 34t-80 51t-48.5 86t-3.5 139.5q67 -42 138.5 -69t142.5 -40q101 -18 183 -58.5t140.5 -105t92 -153t39.5 -201.5q-2 -37 -13 -73t-31 -65.5t-50.5 -50t-71.5 -25.5h-371q-17 3 -44.5 -0.5t-53 -18
t-42.5 -41.5t-14 -69.5t33 -103t98 -141.5q15 -21 5.5 -25.5t-34 6t-58.5 34.5t-68 59t-63.5 79.5t-44.5 96t-10.5 109t38.5 118.5q13 22 34.5 41.5t48 34.5t57 24t61.5 11h387zM574 -37q23 0 43.5 -9t35.5 -24.5t24 -36t9 -43.5t-9 -43.5t-24 -35.5t-35.5 -24t-43.5 -9
t-43.5 9t-35.5 24t-24 35.5t-9 43.5t9 43.5t24 36t35.5 24.5t43.5 9z" />
    <glyph glyph-name="hah" unicode="&#x62d;" horiz-adv-x="926" 
d="M678 373q-5 87 -33 141.5t-69.5 88t-93 52.5t-103 34.5t-98.5 34t-80 51t-48.5 86t-3.5 139.5q67 -42 138.5 -69t142.5 -40q101 -18 183 -58.5t140.5 -105t92 -153t39.5 -201.5q-2 -37 -13 -73t-31 -65.5t-50.5 -50t-71.5 -25.5h-371q-17 3 -44.5 -0.5t-53 -18
t-42.5 -41.5t-14 -69.5t33 -103t98 -141.5q15 -21 5.5 -25.5t-34 6t-58.5 34.5t-68 59t-63.5 79.5t-44.5 96t-10.5 109t38.5 118.5q13 22 34.5 41.5t48 34.5t57 24t61.5 11h387z" />
    <glyph glyph-name="khah" unicode="&#x62e;" horiz-adv-x="926" 
d="M390 1364q23 0 43 -9t35 -24.5t24 -36t9 -43.5t-9 -43.5t-24 -36t-35 -24.5t-43 -9t-43.5 9t-35.5 24.5t-24 36t-9 43.5t9 43.5t24 36t35.5 24.5t43.5 9zM678 373q-5 87 -33 141.5t-69.5 88t-93 52.5t-103 34.5t-98.5 34t-80 51t-48.5 86t-3.5 139.5q67 -42 138.5 -69
t142.5 -40q101 -18 183 -58.5t140.5 -105t92 -153t39.5 -201.5q-2 -37 -13 -73t-31 -65.5t-50.5 -50t-71.5 -25.5h-371q-17 3 -44.5 -0.5t-53 -18t-42.5 -41.5t-14 -69.5t33 -103t98 -141.5q15 -21 5.5 -25.5t-34 6t-58.5 34.5t-68 59t-63.5 79.5t-44.5 96t-10.5 109
t38.5 118.5q13 22 34.5 41.5t48 34.5t57 24t61.5 11h387z" />
    <glyph glyph-name="dal" unicode="&#x62f;" horiz-adv-x="847" 
d="M131 159q-18 0 -34 7t-28 19t-19 28t-7 34v126h537v359h-182q-73 -1 -125 13t-85.5 37t-50.5 52t-21 59t3 58t22 49q19 -11 41.5 -21t51 -17.5t65.5 -11.5t86 -2h321q18 0 33.5 -7t27.5 -19.5t19 -29t7 -35.5v-610q0 -18 -7 -34t-19 -28t-27.5 -19t-33.5 -7h-575z" />
    <glyph glyph-name="thal" unicode="&#x630;" horiz-adv-x="847" 
d="M273 1364q23 0 43.5 -9t35.5 -24.5t24 -36t9 -43.5t-9 -43.5t-24 -36t-35.5 -24.5t-43.5 -9t-43 9t-35 24.5t-24 36t-9 43.5t9 43.5t24 36t35 24.5t43 9zM131 159q-18 0 -34 7t-28 19t-19 28t-7 34v126h537v359h-182q-73 -1 -125 13t-85.5 37t-50.5 52t-21 59t3 58t22 49
q19 -11 41.5 -21t51 -17.5t65.5 -11.5t86 -2h321q18 0 33.5 -7t27.5 -19.5t19 -29t7 -35.5v-610q0 -18 -7 -34t-19 -28t-27.5 -19t-33.5 -7h-575z" />
    <glyph glyph-name="reh" unicode="&#x631;" horiz-adv-x="543" 
d="M403 948q37 0 63 -26.5t26 -64.5v-484q4 -113 -19.5 -200.5t-63 -153.5t-89.5 -112.5t-100 -76t-94.5 -44t-73 -17.5t-35.5 4.5t18 21.5q61 34 106 76t75 95.5t45.5 120.5t15.5 152l1 709h125z" />
    <glyph glyph-name="zain" unicode="&#x632;" horiz-adv-x="543" 
d="M359 1364q23 0 43.5 -9t36 -24.5t24.5 -36t9 -43.5t-9 -43.5t-24.5 -36t-36 -24.5t-43.5 -9t-43 9t-35 24.5t-24 36t-9 43.5t9 43.5t24 36t35 24.5t43 9zM403 948q37 0 63 -26.5t26 -64.5v-484q4 -113 -19.5 -200.5t-63 -153.5t-89.5 -112.5t-100 -76t-94.5 -44
t-73 -17.5t-35.5 4.5t18 21.5q61 34 106 76t75 95.5t45.5 120.5t15.5 152l1 709h125z" />
    <glyph glyph-name="seen" unicode="&#x633;" horiz-adv-x="1784" 
d="M1235 948v-575h292v575h123q38 0 64 -26.5t26 -64.5v-610q0 -18 -7 -34t-19 -28t-28.5 -19t-35.5 -7h-980q-40 -60 -96.5 -99t-120 -56.5t-129.5 -13t-124.5 33.5t-104 82.5t-68.5 132.5q15 -24 45.5 -43.5t69 -31t82.5 -14t87 7t82 31.5t68 60t44.5 92.5t11.5 129.5v386
q0 38 26 64.5t64 26.5h124v-575h290v484q0 38 26 64.5t64 26.5h124z" />
    <glyph glyph-name="sheen" unicode="&#x634;" horiz-adv-x="1784" 
d="M1235 948v-575h292v575h123q38 0 64 -26.5t26 -64.5v-610q0 -18 -7 -34t-19 -28t-28.5 -19t-35.5 -7h-980q-40 -60 -96.5 -99t-120 -56.5t-129.5 -13t-124.5 33.5t-104 82.5t-68.5 132.5q15 -24 45.5 -43.5t69 -31t82.5 -14t87 7t82 31.5t68 60t44.5 92.5t11.5 129.5v386
q0 38 26 64.5t64 26.5h124v-575h290v484q0 38 26 64.5t64 26.5h124zM1128 1606q23 0 43.5 -9t35.5 -24.5t24 -36t9 -44.5q0 -23 -9 -43t-24 -35t-35.5 -24t-43.5 -9t-43.5 9t-35.5 24t-24 35t-9 43q0 24 9 44.5t24 36t35.5 24.5t43.5 9zM989 1364q23 0 43.5 -9t35.5 -24.5
t24 -36t9 -43.5t-9 -43.5t-24 -36t-35.5 -24.5t-43.5 -9t-43 9t-35 24.5t-24 36t-9 43.5t9 43.5t24 36t35 24.5t43 9zM1267 1364q23 0 43 -9t35 -24.5t24 -36t9 -43.5t-9 -43.5t-24 -36t-35 -24.5t-43 -9t-43.5 9t-36 24.5t-24.5 36t-9 43.5t9 43.5t24.5 36t36 24.5t43.5 9z
" />
    <glyph glyph-name="sad" unicode="&#x635;" horiz-adv-x="1742" 
d="M1481 734h-503q-50 -1 -91.5 -18t-74 -44.5t-56 -64t-38.5 -76t-20.5 -80.5t-2.5 -78h786v361zM480 866q0 18 7 34.5t19.5 28.5t29 19t35.5 7h122l-2 -186q19 45 54 78.5t78 56t90.5 34t93.5 10.5h599q37 0 63.5 -26.5t26.5 -64.5v-610q0 -18 -7 -34t-19.5 -28t-29 -19
t-34.5 -7h-1005q-29 -52 -76 -85t-102.5 -46.5t-115 -7t-112.5 34t-95.5 77.5t-64.5 122q18 -12 40 -25t47.5 -23.5t55 -17.5t62.5 -7q82 0 131.5 37t75 96t31.5 132.5t2 147.5v272z" />
    <glyph glyph-name="dad" unicode="&#x636;" horiz-adv-x="1742" 
d="M1054 1364q23 0 43.5 -9t36 -24.5t24.5 -36t9 -43.5t-9 -43.5t-24.5 -36t-36 -24.5t-43.5 -9t-43 9t-35 24.5t-24 36t-9 43.5t9 43.5t24 36t35 24.5t43 9zM1481 734h-503q-50 -1 -91.5 -18t-74 -44.5t-56 -64t-38.5 -76t-20.5 -80.5t-2.5 -78h786v361zM480 866
q0 18 7 34.5t19.5 28.5t29 19t35.5 7h122l-2 -186q19 45 54 78.5t78 56t90.5 34t93.5 10.5h599q37 0 63.5 -26.5t26.5 -64.5v-610q0 -18 -7 -34t-19.5 -28t-29 -19t-34.5 -7h-1005q-29 -52 -76 -85t-102.5 -46.5t-115 -7t-112.5 34t-95.5 77.5t-64.5 122q18 -12 40 -25
t47.5 -23.5t55 -17.5t62.5 -7q82 0 131.5 37t75 96t31.5 132.5t2 147.5v272z" />
    <glyph glyph-name="tah" unicode="&#x637;" horiz-adv-x="1625" 
d="M1366 734h-788v-361h788v361zM578 948h911q38 0 64 -26.5t26 -64.5v-610q0 -18 -7 -34t-19 -28t-28.5 -19t-35.5 -7h-1244q-81 3 -125.5 31.5t-64 67t-19.5 80.5q0 43 9.5 75t22.5 46.5t18 -2.5q6 -19 25.5 -36.5t53.5 -30t83.5 -18t116.5 0.5v891q0 18 7 34t19 28.5
t28.5 19.5t34.5 7h124v-405z" />
    <glyph glyph-name="zah" unicode="&#x638;" horiz-adv-x="1625" 
d="M996 1364q23 0 43.5 -9t35.5 -24.5t24 -36t9 -43.5t-9 -43.5t-24 -36t-35.5 -24.5t-43.5 -9t-43.5 9t-35.5 24.5t-23.5 36t-8.5 43.5t8.5 43.5t23.5 36t35.5 24.5t43.5 9zM1366 734h-788v-361h788v361zM578 948h911q38 0 64 -26.5t26 -64.5v-610q0 -18 -7 -34t-19 -28
t-28.5 -19t-35.5 -7h-1244q-81 3 -125.5 31.5t-64 67t-19.5 80.5q0 43 9.5 75t22.5 46.5t18 -2.5q6 -19 25.5 -36.5t53.5 -30t83.5 -18t116.5 0.5v891q0 18 7 34t19 28.5t28.5 19.5t34.5 7h124v-405z" />
    <glyph glyph-name="ain" unicode="&#x639;" horiz-adv-x="1039" 
d="M242 857q0 38 26 64.5t63 26.5h321q38 0 79 1t81.5 5t79 10t72.5 17q-1 -29 -20 -71t-59 -80.5t-101 -67t-145 -30.5h-184v-359h539v-126q0 -18 -7 -34t-19 -28t-28.5 -19t-34.5 -7h-558q-51 -7 -77.5 -30t-36 -55.5t-5.5 -72t14.5 -78.5t24 -75t23 -61.5t11 -38.5
t-11.5 -6q-18 11 -44 32.5t-54 50.5t-56 64t-50 74.5t-35 82t-11 85.5q4 64 27.5 109t54.5 73.5t64 42.5t57 17v484z" />
    <glyph glyph-name="ghain" unicode="&#x63a;" horiz-adv-x="1039" 
d="M577 1364q23 0 43.5 -9t35.5 -24.5t24 -36t9 -43.5t-9 -43.5t-24 -36t-35.5 -24.5t-43.5 -9t-43.5 9t-35.5 24.5t-24 36t-9 43.5t9 43.5t24 36t35.5 24.5t43.5 9zM242 857q0 38 26 64.5t63 26.5h321q38 0 79 1t81.5 5t79 10t72.5 17q-1 -29 -20 -71t-59 -80.5t-101 -67
t-145 -30.5h-184v-359h539v-126q0 -18 -7 -34t-19 -28t-28.5 -19t-34.5 -7h-558q-51 -7 -77.5 -30t-36 -55.5t-5.5 -72t14.5 -78.5t24 -75t23 -61.5t11 -38.5t-11.5 -6q-18 11 -44 32.5t-54 50.5t-56 64t-50 74.5t-35 82t-11 85.5q4 64 27.5 109t54.5 73.5t64 42.5t57 17
v484z" />
    <glyph glyph-name="tatweel" unicode="&#x640;" horiz-adv-x="432" 
d="M444 373v-214h-448v214h448z" />
    <glyph glyph-name="feh" unicode="&#x641;" horiz-adv-x="1312" 
d="M907 1364q23 0 43.5 -9t35.5 -24.5t24 -36t9 -43.5t-9 -43.5t-24 -36t-35.5 -24.5t-43.5 -9t-43 9t-35 24.5t-24 36t-9 43.5t9 43.5t24 36t35 24.5t43 9zM760 732v-359h291v359h-291zM1175 948q37 0 63 -26.5t26 -64.5v-610q0 -18 -7 -34t-19 -28t-28.5 -19t-34.5 -7
h-898q-70 -2 -117.5 13.5t-76.5 41t-41.5 58.5t-11 66.5t15 65t35.5 54.5q12 -23 34 -38t49.5 -24t58.5 -14t61 -7t57 -2h48h157v484q0 38 26 64.5t63 26.5h540z" />
    <glyph glyph-name="qaf" unicode="&#x642;" horiz-adv-x="1086" 
d="M532 732v-359h293v359h-293zM244 159q-59 1 -100 17.5t-67 42t-37.5 57t-11 64t12.5 62.5t33 52q12 -26 37 -42.5t57.5 -25t71.5 -11.5t80 -2v484q0 38 25.5 64.5t62.5 26.5h540q38 0 64.5 -26.5t26.5 -64.5v-610q0 -18 -7 -34t-19.5 -28t-29 -19t-35.5 -7h-704z
M531 1364q23 0 43.5 -9t36 -24.5t24.5 -36t9 -43.5t-9 -43.5t-24.5 -36t-36 -24.5t-43.5 -9t-43.5 9t-35.5 24.5t-24 36t-9 43.5t9 43.5t24 36t35.5 24.5t43.5 9zM808 1364q23 0 43.5 -9t35.5 -24.5t24 -36t9 -43.5t-9 -43.5t-24 -36t-35.5 -24.5t-43.5 -9t-43.5 9
t-35.5 24.5t-24 36t-9 43.5t9 43.5t24 36t35.5 24.5t43.5 9z" />
    <glyph glyph-name="arabickaf" unicode="&#x643;" horiz-adv-x="1316" 
d="M1061 373v282h-634q-24 0 -48.5 4t-44 16t-32 32.5t-12.5 53.5v161q0 39 29 72t72 61.5t90.5 53t85.5 45.5q63 36 99 71.5t54 55t22 14t4 -51.5q0 -33 -8.5 -75t-37 -91t-83 -101.5t-146.5 -106.5h715q18 0 34.5 -7t28.5 -19.5t19 -29t7 -35.5v-531q0 -18 -7 -34t-19 -28
t-28.5 -19t-34.5 -7h-924q-84 2 -135.5 29t-74 69t-17.5 94.5t33 105.5q18 -33 57 -50.5t84.5 -25t90.5 -8t75 -0.5h686z" />
    <glyph glyph-name="lam" unicode="&#x644;" horiz-adv-x="824" 
d="M266 948v-575h293v980h123q18 0 34.5 -7t29 -19.5t19.5 -28.5t7 -34v-1017q0 -18 -7 -34t-19.5 -28t-29 -19t-34.5 -7h-539q-18 0 -34.5 7t-29 19t-19.5 28t-7 34v610q0 38 26.5 64.5t63.5 26.5h123z" />
    <glyph glyph-name="meem" unicode="&#x645;" horiz-adv-x="1032" 
d="M478 732v-359h292v359h-292zM894 948q37 0 63 -26.5t26 -64.5v-610q0 -18 -7 -34t-19 -28t-28.5 -19t-34.5 -7h-556q-43 -7 -64.5 -24t-28 -41t-0.5 -54t18 -62.5t26.5 -67t26 -67t16 -62.5t-3.5 -54q-10 11 -43.5 43t-75 77.5t-82.5 102t-66 116.5t-25 120q0 61 41 116
q10 14 25 25t36.5 20t52.5 16t73 13v481q0 38 26.5 64.5t63.5 26.5h540z" />
    <glyph glyph-name="noon" unicode="&#x646;" horiz-adv-x="828" 
d="M418 1364q23 0 43.5 -9t35.5 -24.5t24 -36t9 -43.5t-9 -43.5t-24 -36t-35.5 -24.5t-43.5 -9t-43.5 9t-35.5 24.5t-24 36t-9 43.5t9 43.5t24 36t35.5 24.5t43.5 9zM272 948v-575h292v575h124q37 0 63 -26.5t26 -64.5v-610q0 -18 -7 -34t-19 -28t-28.5 -19t-34.5 -7h-540
q-19 0 -35.5 7t-28.5 19t-19 28t-7 34v610q0 38 26 64.5t64 26.5h124z" />
    <glyph glyph-name="heh" unicode="&#x647;" horiz-adv-x="823" 
d="M269 732v-359h291v359h-291zM685 948q18 0 34 -7t28 -19.5t19 -29t7 -35.5v-610q0 -18 -7 -34t-19 -28t-28 -19t-34 -7h-541q-18 0 -34.5 7t-29 19t-19.5 28t-7 34v610q0 38 26.5 64.5t63.5 26.5h541z" />
    <glyph glyph-name="waw" unicode="&#x648;" horiz-adv-x="820" 
d="M269 732v-359h292v359h-292zM685 948q18 0 34 -7t28 -19.5t19 -29t7 -35.5v-505q0 -88 -14.5 -152t-40 -110.5t-61 -78.5t-77 -54t-88 -37.5t-94.5 -30.5q-26 -8 -56 -22t-59 -29t-53 -26.5t-37.5 -13.5t-13.5 8t20 39q30 47 72 79t89 55q26 13 53 27t53 34.5t49 48.5
t41 70h-411q-19 0 -35.5 7t-28.5 19t-19 28t-7 34v610q0 38 26 64.5t64 26.5h540z" />
    <glyph glyph-name="alefmaksura" unicode="&#x649;" horiz-adv-x="1101" 
d="M267 593v-396h568v223h-205q-24 0 -49 4t-44.5 16t-32 32.5t-12.5 52.5v161q0 39 17.5 74t46 64t65.5 53t76 42q50 23 80.5 56.5t47 58.5t22 30t5.5 -29q0 -29 -9 -73.5t-29.5 -98.5t-55 -113t-85.5 -116h287q18 0 34 -7t28.5 -19.5t19.5 -29t7 -35.5v-470
q0 -18 -7 -34.5t-19.5 -29t-28.5 -19.5t-34 -7h-818q-18 0 -34 7t-28 19.5t-19 29t-7 34.5v429q0 19 7 35.5t19 29t28 19.5t34 7h125z" />
    <glyph glyph-name="yeh" unicode="&#x64a;" horiz-adv-x="1101" 
d="M267 593v-396h568v223h-205q-24 0 -49 4t-44.5 16t-32 32.5t-12.5 52.5v161q0 39 17.5 74t46 64t65.5 53t76 42q50 23 80.5 56.5t47 58.5t22 30t5.5 -29q0 -29 -9 -73.5t-29.5 -98.5t-55 -113t-85.5 -116h287q18 0 34 -7t28.5 -19.5t19.5 -29t7 -35.5v-470
q0 -18 -7 -34.5t-19.5 -29t-28.5 -19.5t-34 -7h-818q-18 0 -34 7t-28 19.5t-19 29t-7 34.5v429q0 19 7 35.5t19 29t28 19.5t34 7h125zM410 -152q23 0 43.5 -9t35.5 -24t24 -35.5t9 -44.5q0 -23 -9 -43t-24 -35t-35.5 -24t-43.5 -9t-43.5 9t-35.5 24t-24 35t-9 43
q0 24 9 44.5t24 35.5t35.5 24t43.5 9zM687 -152q23 0 43.5 -9t35.5 -24t24 -35.5t9 -44.5q0 -23 -9 -43t-24 -35t-35.5 -24t-43.5 -9t-43.5 9t-35.5 24t-24 35t-9 43q0 24 9 44.5t24 35.5t35.5 24t43.5 9z" />
    <glyph glyph-name="fathatan" unicode="&#x64b;" 
d="M389 1675l-340 -193l17 91l340 193zM403 1842l-340 -193l17 91l340 193z" />
    <glyph glyph-name="dammatan" unicode="&#x64c;" horiz-adv-x="469" 
d="M409 1632q-6 -14 -19.5 -33.5t-32 -40t-40.5 -39.5t-45.5 -31t-47.5 -15t-46 8t-24 31.5t3 42t10.5 42t-2 32t-34.5 10.5t-86 -20q19 27 44.5 43.5t50.5 22t47 -1t34 -24.5t10.5 -48t-23.5 -72q46 20 85.5 44t71.5 62q-41 10 -60.5 31.5t-22 47.5t8 53t30 49.5t44 36
t49.5 12.5q21 -2 28 -24.5t6.5 -51t-6 -55.5t-8.5 -37l38 -12l-17 -76zM388 1793q-10 10 -23 10q-14 1 -22.5 -8.5t-8.5 -21.5q-2 -11 3 -19t14 -14t20.5 -11.5t24.5 -11.5q2 19 2 35q0 14 -2.5 26.5t-7.5 16.5v-2z" />
    <glyph glyph-name="kasratan" unicode="&#x64d;" 
d="M405 -148l-340 -193l17 91l340 193zM378 -316l-340 -193l17 91l340 193z" />
    <glyph glyph-name="fatha" unicode="&#x64e;" 
d="M389 1675l-340 -193l17 91l340 193z" />
    <glyph glyph-name="damma" unicode="&#x64f;" horiz-adv-x="414" 
d="M366 1664q-11 -23 -37.5 -52.5t-62.5 -55t-78.5 -42.5t-85.5 -15q-29 2 -47.5 3t-28.5 2t-12.5 1.5t-0.5 1.5q61 25 105.5 43t79 36t62.5 39.5t56 54.5q-47 11 -69 34t-25.5 51t9 57.5t34 53.5t49.5 38.5t56 13.5q16 -1 25 -12.5t12.5 -29t2.5 -39t-3.5 -41.5t-6.5 -36.5
t-7 -24.5l44 -13l-19 -80zM341 1841q-5 6 -12 8t-12 2q-17 2 -27 -8.5t-11 -24.5q-2 -25 20 -37t51 -23q2 20 2 38q0 15 -2 28.5t-9 18.5v-2z" />
    <glyph glyph-name="kasra" unicode="&#x650;" 
d="M395 -148l-340 -193l17 91l340 193z" />
    <glyph glyph-name="shadda" unicode="&#x651;" horiz-adv-x="425" 
d="M398 1823q11 -17 17.5 -36t11.5 -38q6 -33 3 -67t-15 -62t-33 -45.5t-51 -17.5q-25 0 -37.5 9t-27.5 23q-6 -10 -15 -23t-22 -25t-31 -21t-40 -11q-35 -3 -56 10t-31 35t-11.5 49.5t2 53.5t10.5 47.5t14 31.5q0 -3 5 1t11.5 9t11.5 8.5t5 0.5q-8 -20 -13.5 -46.5t-3 -50
t14 -39.5t37.5 -15q29 0 44.5 16t23.5 37.5t12.5 44.5t12.5 38q1 -3 5 0t9 7.5t9.5 8t5.5 0.5q-8 -29 -2.5 -54t19.5 -40t35.5 -18t46.5 14q6 9 5.5 22t-4.5 26.5t-11 27t-14 23.5q13 18 24.5 34t22.5 32z" />
    <glyph glyph-name="sukun" unicode="&#x652;" horiz-adv-x="328" 
d="M347 1696q5 -34 -10 -71.5t-41 -87.5v1q0 1 1 2l-3 -5q-24 -14 -61.5 -26.5t-74 -15t-65 11t-34.5 51.5q-5 33 3.5 75.5t27 81.5t46 67t59.5 33q28 4 54 -6.5t46.5 -28.5t34.5 -40.5t17 -41.5zM283 1628q-3 14 -13.5 30t-25 29.5t-31.5 22t-35 5.5q-30 -5 -44 -27
t-11 -45q3 -22 21 -32.5t42 -11t50 6.5t46 21zM296 1537q0 -1 -1 -1zM295 1536q0 -1 -1 -1q1 0 1 1z" />
    <glyph glyph-name="arabicindicdigitzero" unicode="&#x660;" horiz-adv-x="1149" 
d="M739 733q-24 -80 -44.5 -150.5t-42.5 -148.5q-35 20 -64.5 37.5t-57.5 34.5t-57 34t-62 37q23 81 43.5 153.5t43.5 151.5z" />
    <glyph glyph-name="arabicindicdigitone" unicode="&#x661;" horiz-adv-x="1149" 
d="M760 372q0 -310 -46 -310q-2 0 -6.5 24.5t-12 65.5t-17 95t-22 113t-27 120t-31.5 115q-69 209 -209 445q0 11 4.5 37t12 58.5t17 67.5t19.5 64t19 47.5t16 18.5q11 0 42 -55q117 -203 179.5 -430.5t61.5 -475.5z" />
    <glyph glyph-name="arabicindicdigittwo" unicode="&#x662;" horiz-adv-x="1149" 
d="M909 1243q0 -378 -245 -420l-35 -23q26 -77 47 -174t30 -197.5t3 -195t-34 -165.5q-26 9 -33.5 36t-15.5 81q-21 109 -48.5 215.5t-61.5 206t-74 190t-85 166.5l-117 167l108 190q25 -33 51.5 -68t58 -62.5t69.5 -44.5t86 -15q47 0 81 5.5t62.5 22.5t55.5 48.5t60 84.5
q19 31 40 31q-2 0 -2.5 -23.5t-0.5 -55.5z" />
    <glyph glyph-name="arabicindicdigitthree" unicode="&#x663;" horiz-adv-x="1149" 
d="M1048 1220q0 -64 -16 -127t-43 -113.5t-64 -81.5t-79 -31q-18 0 -52 10t-67 22q-39 14 -82 33q-45 -38 -96 -72t-110 -63q66 -279 66 -508q0 -227 -48 -227q-12 0 -20.5 19.5t-14.5 52t-11 76t-10 91.5q-5 44 -18 101.5t-32 121t-42 128.5t-47 124.5t-47.5 110
t-43.5 83.5q-14 18 -26.5 37t-22 34t-15.5 25t-6 11q0 4 13.5 27t32 51.5t38 57.5t32.5 46q40 -41 76.5 -77.5t68.5 -64t60 -43.5t52 -16q38 0 80 36.5t88 106.5q35 54 57 85.5t31 28.5q6 -17 11 -37.5t9.5 -38.5t7.5 -31.5t5 -17.5q33 -65 129 -65q55 0 96 94q29 59 43 59
q17 0 17 -58z" />
    <glyph glyph-name="arabicindicdigitfour" unicode="&#x664;" horiz-adv-x="1149" 
d="M477 448q75 -46 168.5 -77t201.5 -62q-7 -40 -81 -236q-29 -2 -73.5 4t-95 19.5t-101.5 34t-92 46t-66.5 56.5t-25.5 65q0 67 74 177q6 10 139 185q-20 28 -49.5 50.5t-61.5 45t-62 46.5t-51 54q-6 47 8.5 100t44 105.5t70 102t86 89.5t92 67.5t88.5 36.5
q-5 -29 -8.5 -53.5t-7.5 -47.5t-7.5 -46.5t-7.5 -50.5q-32 -7 -65 -18.5t-59 -26t-42.5 -31t-16.5 -34.5q0 -23 33.5 -49.5t98.5 -56.5q64 -30 98 -45.5t34 -35.5q0 -39 -27 -85t-81 -102q-67 -68 -105.5 -125t-49.5 -102z" />
    <glyph glyph-name="arabicindicdigitfive" unicode="&#x665;" horiz-adv-x="1149" 
d="M608 1182q26 0 60 -22t69.5 -57t69.5 -79t59.5 -87.5t40 -83t10.5 -64.5q0 -138 -26 -237.5t-78.5 -163.5t-133 -94.5t-189.5 -30.5q-255 0 -255 259q0 39 14 103.5t39 138t59.5 148t76 134.5t88.5 98t96 38zM481 928q-21 -20 -42.5 -53.5t-39 -72t-29 -75.5t-11.5 -62
q0 -48 26.5 -80t68.5 -50t93.5 -22t101.5 4t93 27t68 48l4 35q-163 299 -333 301z" />
    <glyph glyph-name="arabicindicdigitsix" unicode="&#x666;" horiz-adv-x="1149" 
d="M791 1185q-1 -22 -7 -65.5t-13 -91t-13 -91t-6 -65.5q0 -309 195 -546q1 -10 -2 -33t-8.5 -51.5t-13 -59t-15 -56t-15 -42t-13.5 -16.5q-26 0 -59 50.5t-70 138.5q-34 85 -53 154t-19 109q0 68 0.5 118.5t1.5 87.5t2 63t3 45.5t4 35.5t5 33q-49 -7 -104.5 -11.5
t-110.5 -3.5t-106 9t-89.5 27.5t-61.5 51.5t-23 81q0 20 9.5 66.5t29.5 117.5q83 -41 149 -62t128 -26.5t127.5 3.5t147.5 29z" />
    <glyph glyph-name="arabicindicdigitseven" unicode="&#x667;" horiz-adv-x="1149" 
d="M1030 1059q-121 -177 -216 -387t-160 -433q-22 -78 -39.5 -124.5t-25.5 -46.5q-4 0 -15 25t-26 64.5t-32 88t-33 96t-30 88t-22 64.5q-37 97 -86.5 189.5t-112.5 181.5l1 -2l-14 17.5t-23.5 27.5t-27.5 31t-26 30t-19 23t-6 11q2 13 14 43.5t28 65.5t33 69t29 54
q40 -39 77.5 -98.5t73 -131t68.5 -150.5t64 -156.5t59.5 -149t54.5 -128.5q28 66 55 140.5t54.5 152t57 154.5t63.5 148t74 133.5t88 110.5z" />
    <glyph glyph-name="arabicindicdigiteight" unicode="&#x668;" horiz-adv-x="1149" 
d="M567 1243q5 0 14 -17.5t21 -47.5t26.5 -71.5t31.5 -89.5q19 -54 41 -113t46.5 -119t53 -119t61.5 -112l155 -254q-6 -25 -18 -62.5t-25 -73t-25 -60.5t-18 -25q-79 0 -377 774q-54 -120 -98.5 -236.5t-90.5 -220.5t-98 -191.5t-122 -148.5q-11 37 -15 95t-6 130
q66 64 123 157.5t110 217.5q19 49 55 157t87 275q48 155 68 155z" />
    <glyph glyph-name="arabicindicdigitnine" unicode="&#x669;" horiz-adv-x="1149" 
d="M939 298q-4 -18 -13 -53t-20.5 -74.5t-24 -77.5t-22.5 -62q-47 54 -78 118t-54 139t-42.5 160t-43.5 180q-214 0 -319 52t-105 165q0 129 110 313q118 202 226 202q45 0 78.5 -25t59 -85t44 -161t32.5 -253q13 -129 27.5 -211.5t28.5 -118.5zM497 1118q-38 0 -70.5 -36.5
t-57.5 -111.5q72 -49 126.5 -70t100.5 -21q-1 47 -6.5 90.5t-16.5 76.5t-29.5 52.5t-46.5 19.5z" />
    <glyph glyph-name="arabicpercentsign" unicode="&#x66a;" horiz-adv-x="829" 
d="M133 1258q22 0 42 -8.5t35 -23t23.5 -34.5t8.5 -43t-8.5 -43t-23.5 -35t-35 -23.5t-42 -8.5t-42 8.5t-35 23.5t-24 35t-9 43t9 43t24 34.5t35 23t42 8.5zM654 302q22 0 42 -8.5t35 -23.5t24 -35t9 -42q0 -23 -9 -42.5t-24 -34.5t-35 -23.5t-42 -8.5q-23 0 -42.5 8.5
t-34.5 23.5t-23.5 34.5t-8.5 42.5q0 22 8.5 42t23.5 35t34.5 23.5t42.5 8.5zM679 1413q-54 -182 -105 -351t-101 -336t-101 -336t-106 -350q-43 -23 -83.5 -45t-82.5 -44q54 181 105 350.5t101.5 337t101.5 336.5t105 350z" />
    <glyph glyph-name="arabicfivepointedstar" unicode="&#x66d;" horiz-adv-x="815" 
d="M374 1445h68l17 -213l163 139l49 -49l-140 -162l214 -18v-68l-214 -17l140 -163l-49 -48l-163 139l-17 -214h-68l-17 214l-164 -139l-47 48l139 163l-214 17v68l214 18l-139 162l47 49l164 -139z" />
    <glyph glyph-name="bullet-def" unicode="&#x6f9;" horiz-adv-x="1033" 
d="M93 1109h934v-934h-934v934zM223 304h675v675h-675v-675z" />
    <glyph glyph-name="zeronojoin" unicode="&#x200c;" horiz-adv-x="45" 
d="M35 -80h-25v1631h25v-1631z" />
    <glyph glyph-name="zerojoin" unicode="&#x200d;" horiz-adv-x="45" 
d="M148 1427l-16 -16l-97 96v-1587h-25v1586l-96 -95l-16 16l109 109l-109 108l16 16l109 -108l109 108l16 -16l-109 -108z" />
    <glyph glyph-name="lefttoright" unicode="&#x200e;" horiz-adv-x="45" 
d="M291 1537q-32 -33 -62.5 -63.5l-62.5 -62.5l-17 17l97 97h-213v-1605h-25v1631h234l-93 93l17 17z" />
    <glyph glyph-name="fathalow" 
d="M401 1225l-340 -193l17 91l340 193z" />
    <glyph glyph-name="dammalow" horiz-adv-x="414" 
d="M346 1204q-11 -23 -37.5 -52.5t-62.5 -55t-78.5 -42.5t-85.5 -15q-29 2 -47.5 3t-28.5 2t-12.5 1.5t-0.5 1.5q61 25 105.5 43t79 36t62.5 39.5t56 54.5q-47 11 -69 34t-25.5 51t9 57.5t34 53.5t49.5 38.5t56 13.5q16 -1 25 -12.5t12.5 -29t2.5 -39t-3.5 -41.5t-6.5 -36.5
t-7 -24.5l44 -13l-19 -80zM321 1381q-5 6 -12 8t-12 2q-17 2 -27 -8.5t-11 -24.5q-2 -25 20 -37t51 -23q2 20 2 38q0 15 -2 28.5t-9 18.5v-2z" />
    <glyph glyph-name="sukunlow" horiz-adv-x="328" 
d="M344 1249q5 -34 -10 -71.5t-41 -87.5v1q0 1 1 2l-3 -5q-24 -14 -61.5 -26.5t-74 -15t-65 11t-34.5 51.5q-5 33 3.5 75.5t27 81.5t46 67t59.5 33q28 4 54 -6.5t46.5 -28.5t34.5 -40.5t17 -41.5zM280 1181q-3 14 -13.5 30t-25 29.5t-31.5 22t-35 5.5q-30 -5 -44 -27
t-11 -45q3 -22 21 -32.5t42 -11t50 6.5t46 21zM293 1090q0 -1 -1 -1zM292 1089q0 -1 -1 -1q1 0 1 1z" />
    <glyph glyph-name="fathatanlow" 
d="M391 1222l-340 -193l17 91l340 193zM405 1389l-340 -193l17 91l340 193z" />
    <glyph glyph-name="dammatanlow" horiz-adv-x="469" 
d="M408 1207q-6 -14 -19.5 -33.5t-32 -40t-40.5 -39.5t-45.5 -31t-47.5 -15t-46 8t-24 31.5t3 42t10.5 42t-2 32t-34.5 10.5t-86 -20q19 27 44.5 43.5t50.5 22t47 -1t34 -24.5t10.5 -48t-23.5 -72q46 20 85.5 44t71.5 62q-41 10 -60.5 31.5t-22 47.5t8 53t30 49.5t44 36
t49.5 12.5q21 -2 28 -24.5t6.5 -51t-6 -55.5t-8.5 -37l38 -12l-17 -76zM387 1368q-10 10 -23 10q-14 1 -22.5 -8.5t-8.5 -21.5q-2 -11 3 -19t14 -14t20.5 -11.5t24.5 -11.5q2 19 2 35q0 14 -2.5 26.5t-7.5 16.5v-2z" />
    <glyph glyph-name="shaddalow" horiz-adv-x="425" 
d="M396 1364q11 -17 17.5 -36t11.5 -38q6 -33 3 -67t-15 -62t-33 -45.5t-51 -17.5q-25 0 -37.5 9t-27.5 23q-6 -10 -15 -23t-22 -25t-31 -21t-40 -11q-35 -3 -56 10t-31 35t-11.5 49.5t2 53.5t10.5 47.5t14 31.5q0 -3 5 1t11.5 9t11.5 8.5t5 0.5q-8 -20 -13.5 -46.5t-3 -50
t14 -39.5t37.5 -15q29 0 44.5 16t23.5 37.5t12.5 44.5t12.5 38q1 -3 5 0t9 7.5t9.5 8t5.5 0.5q-8 -29 -2.5 -54t19.5 -40t35.5 -18t46.5 14q6 9 5.5 22t-4.5 26.5t-11 27t-14 23.5q13 18 24.5 34t22.5 32z" />
    <glyph glyph-name="kasralow" 
d="M395 -148l-340 -193l17 91l340 193z" />
    <glyph glyph-name="kasratanlow" 
d="M405 -148l-340 -193l17 91l340 193zM378 -316l-340 -193l17 91l340 193z" />
    <glyph glyph-name="shaddawithfathaisolatedlow" horiz-adv-x="425" 
d="M397 1372q5 -8 5.5 -12.5t-0.5 -8.5t-1.5 -8.5t3.5 -13.5q12 -32 14.5 -66t-5 -63.5t-25.5 -50.5t-47 -26q-25 -4 -39 3t-31 18q-4 -11 -10.5 -25.5t-18 -28.5t-27 -25.5t-37.5 -16.5q-34 -9 -56 -3.5t-35 20t-17.5 35t-4.5 40.5q0 21 4.5 39.5t9.5 29.5q0 -3 4.5 1.5
t9.5 10.5t10 10.5t5 1.5q-5 -21 -7 -40t2 -32.5t17 -19t38 -0.5q28 5 41 23t17.5 40.5t5.5 46t6 39.5q1 -3 4.5 1t7.5 9t8 9.5t6 1.5q-3 -30 6.5 -54t26 -36.5t38 -11.5t42.5 21q4 10 2 23t-8.5 25.5t-15.5 24.5t-18 21q5 10 14.5 15.5t20 10t20 9.5t15.5 13zM400 1452
l-340 -193l17 91l340 193z" />
    <glyph glyph-name="shaddawithdammaisolatedlow" horiz-adv-x="425" 
d="M381 1402q13 -15 22.5 -33t17.5 -36q11 -32 13 -66t-6 -63.5t-26.5 -50t-47.5 -24.5q-25 -4 -38.5 3t-30.5 19q-4 -11 -11 -25t-18.5 -28t-27.5 -25.5t-38 -16.5q-34 -8 -56.5 1.5t-36 29.5t-19 47.5t-6 54t3.5 48.5t9 33q0 -3 5 1.5t10.5 10.5t10 10t4.5 1
q-5 -21 -6.5 -47.5t4 -49.5t19.5 -37.5t40 -9.5q28 5 41 23t18 40.5t6.5 45.5t6.5 39q1 -3 4.5 1t8 9t8 9.5t5.5 1.5q-3 -30 6 -54t25.5 -37t38 -12.5t43.5 20.5q4 10 2 23t-8.5 26t-15 25t-17.5 21q11 20 19.5 37.5t17.5 34.5zM356 1471q-11 -18 -37 -41t-61.5 -43.5
t-76.5 -34t-83 -11.5q-57 4 -75 4q-17 0 -12 2q60 20 103 34t77 28t61.5 31t54.5 43q-46 8 -67.5 26.5t-25 40.5t8.5 45t33 42t48.5 30.5t55.5 10.5q23 -1 31 -20t7.5 -43.5t-6.5 -47.5t-10 -33l43 -10l-19 -63zM331 1610q-5 5 -11.5 6.5t-11.5 1.5q-17 1 -26.5 -7
t-10.5 -19q-2 -20 19 -29.5t50 -17.5q2 16 2 30q0 11 -2 22t-9 14v-1z" />
    <glyph glyph-name="shaddawithfathatanisolatedlow" horiz-adv-x="425" 
d="M412 1701q0 -47 -8 -65t-41 -37l-289 -166q0 45 12 65t54 44zM412 1550q0 -47 -8 -64.5t-41 -36.5l-289 -166q0 45 12 65q12 17 54 42zM425 1277q0 -76 -29.5 -121t-75.5 -45q-21 0 -64 21q-38 -87 -108 -87q-78 0 -78 109q0 29 22 101l23 4q0 -111 39 -111q29 0 57.5 48
t32.5 114l19 6q24 -98 61 -98q24 0 44 42.5t20 104.5l22 11q15 -51 15 -99z" />
    </font>
</defs>
</svg>
