<?xml version="1.0" encoding="utf-8"?>
<!-- Generator: Adobe Illustrator 19.0.0, SVG Export Plug-In . SVG Version: 6.00 Build 0)  -->
<svg version="1.1" id="Layer_1" xmlns="http://www.w3.org/2000/svg" xmlns:xlink="http://www.w3.org/1999/xlink" x="0px" y="0px"
	 viewBox="0 0 301.7 301.7" style="enable-background:new 0 0 301.7 301.7;" xml:space="preserve">
<style type="text/css">
	.st0{fill:#1D3D6B;}
	.st1{fill:#006594;}
	.st2{fill:#FCAF17;}
</style>
<path id="XMLID_149_" class="st0" d="M82.2,59.9C82.2,59.9,82.2,59.9,82.2,59.9C82.2,59.9,82.2,59.9,82.2,59.9L82.2,59.9z"/>
<path id="XMLID_148_" class="st0" d="M82.2,59.9L82.2,59.9C82.2,59.8,82.2,59.8,82.2,59.9C82.2,59.8,82.2,59.9,82.2,59.9"/>
<g id="XMLID_3_">
	<path id="XMLID_4_" class="st1" d="M256.8,218.3c-0.7,0.8-0.3,1.6,0,2.3c-0.6,0.6-1.1,0.5-1.7,0.2c-0.7-0.3-0.4-0.9-0.4-1.4
		c0-0.1-0.1-0.2-0.2-0.4c-0.3,0.4-0.5,0.8-0.8,1.1c-0.2,0.3-0.4,0.7-0.7,1c-0.6,0.7-1.5,0.8-2.2,0.5c-0.7-0.4-1-0.9-0.8-1.8
		c0-0.1-0.1-0.1-0.2-0.4c-0.6,0.4-1.1,0.7-1.7,1.1c-1.2,0.8-2.4,1.3-3.9,1.3c-1.6,0-2.3-0.5-2.7-2.2c-0.3,0.5-0.5,0.9-0.8,1.2
		c-0.3,0.3-0.5,0.7-0.9,0.8c-1.5,0.6-3.4,0-4.3-1.4c-0.3-0.5-0.6-1-0.9-1.5c-0.5-0.6-0.9-0.8-1.6-0.5c-0.4,0.2-0.8,0.4-1.1,0.8
		c-0.7,0.9-1.3,1.8-1.8,2.7c-0.4,0.7-0.6,1.5-0.9,2.2c-0.3,0.6-0.6,1-1.3,1c-0.6,0-1-0.5-1.2-1c-0.5-1-0.7-2.1-0.6-3.2
		c0-0.7,0-1.4-0.1-2.1c0.4-0.5,0.9-1,1.4-1.5c-0.3-0.5-0.5-1-0.8-1.4c0.8-1.4,0.8-1.4-0.1-2.6c-0.1-0.2-0.3-0.4-0.5-0.6
		c-0.2,0.2-0.4,0.4-0.6,0.5c-0.7,0.8-0.7,0.9-0.1,1.7c0.2,0.3,0.4,0.5,0.6,0.8c-0.3,0.4-0.6,0.7-1,1c0.4,0.7,0.7,1.4,1,2.1
		c-0.2,0.8-0.4,1.6-0.5,2.4c-0.1,1.6,0.2,3.1,1.2,4.4c1,1.4,2.3,1.3,3.1-0.3c0.4-0.9,0.8-1.8,1.1-2.7c0.4-1,1.1-1.7,2-2.2
		c0.6-0.4,0.9-0.3,1.4,0.3c0.2,0.4,0.5,0.8,0.7,1.2c1.2,2,5.2,2.8,6.3,0.2c0,0,0.1,0,0.1-0.1c1.1,1.6,2.3,2,4.2,1.4
		c1-0.3,1.9-0.9,2.8-1.4c0.3-0.2,0.7-0.4,1.1-0.7c0.2,1.1,0.6,1.9,1.6,2c1.1,0.2,2-0.2,2.6-1.2c0.1-0.2,0.3-0.4,0.4-0.6
		c0.3,0.3,0.5,0.5,0.8,0.7c0.6,0.4,1.5,0.4,2.1,0C257.8,221.6,257.9,219.3,256.8,218.3z"/>
	<path id="XMLID_18_" class="st1" d="M245.7,227.4c-0.6-0.3-1.3-0.4-1.9-0.5c-0.2-0.1-0.4,0-0.6-0.1c-1-0.6-1-0.6-1.9-0.5
		c0.2,0.6,0.2,1.2-0.3,1.7c-0.6,0.8-0.8,1.7,0.1,2.6c-1.1,0.6-2.1,1.1-3,1.6c-0.9,0.5-2,0.7-2.8,1.6c1.8,0.5,3.1-0.3,4.4-1.2
		c1.6-1.1,3.2-2,5.2-2c0.1,0,0.2-0.1,0.4-0.1c0.7-0.1,1.1-0.5,1.3-1.2C246.7,228.4,246.5,227.7,245.7,227.4z M241.2,229
		c0.4-0.5,0.7-0.8,1.2-1.5c0.3,0.4,0.6,0.7,0.8,1C242.4,229.7,242.4,229.7,241.2,229z M243.5,229.5c0.1-0.6,0.1-1,0.1-1.5
		c0.9-0.1,1.6,0.1,2.4,0.6C245.3,229.4,244.4,229.4,243.5,229.5z"/>
	<path id="XMLID_20_" class="st1" d="M249.5,216c0.1,0.5,0.1,1,0.2,1.5c0.5-1.5,0.2-2.9,0-4.4c0.5-0.5,0.5-0.5,1.3-0.6
		c0.2,0,0.5-0.2,0.6-0.4c0.3-0.6,0.5-1.3,0.4-2.2c-0.3,0.4-0.6,0.7-0.9,1.2c-0.2-0.6-0.3-0.9-0.4-1.4c-0.2,0.3-0.3,0.4-0.3,0.6
		c-0.1,0.4-0.2,0.9-0.8,1c-0.6,0.1-0.7-0.5-0.9-0.9c0-0.1-0.1-0.1-0.2-0.1c-0.3,0.7-0.2,1.4,0.1,2.1
		C248.9,213.6,249.2,214.8,249.5,216z"/>
	<path id="XMLID_21_" class="st1" d="M245,216c0.1,0.5,0.1,1,0.2,1.5c0.1,0,0.2,0,0.3,0c0-0.7,0-1.5,0-2.2c0-0.7-0.2-1.5-0.3-2.2
		c0.4-0.4,0.7-0.9,1.4-0.5c0.1,0,0.4-0.1,0.5-0.3c0.4-0.7,0.5-1.4,0.5-2.3c-0.5,0.3-0.3,1-1,0.8c-0.1-0.3-0.2-0.6-0.3-1
		c-0.2,0.2-0.3,0.3-0.3,0.4c-0.2,0.5-0.2,1.1-0.8,1.2c-0.7,0.1-0.7-0.6-1-0.9c0,0-0.1,0-0.2-0.1c-0.3,1.2-0.2,1.1,0.1,2.1
		C244.4,213.6,244.7,214.8,245,216z"/>
	<path id="XMLID_22_" class="st1" d="M254.5,216.8c0.1,0.2,0.1,0.5,0.2,0.7c0.8-2.2,1.3-4.3,1.8-6.5c0.1-0.3,0-0.6-0.1-0.9
		c-1,1.4-1,3-1.5,4.7c-0.3-0.9-0.5-1.6-0.8-2.2c-0.3-0.7-0.4-1.5-1.1-2c-0.3,1.5-0.2,1.4,0.2,2.5
		C253.8,214.2,254.1,215.5,254.5,216.8z"/>
	<path id="XMLID_23_" class="st1" d="M241.8,217.8c0.8-2.2-0.3-6.3-1.8-7.7c-0.2,0.7-0.2,1.4,0.1,2.1
		C240.9,213.9,241.8,215.7,241.8,217.8z"/>
	<path id="XMLID_24_" class="st1" d="M235.6,214.6c-0.3-0.2-0.6-0.3-1-0.5c-0.2,0.6-0.3,1.1-0.5,1.8c0.7,0.4,1.3,0.7,2,1.1
		C237,215.5,236.9,215.2,235.6,214.6z"/>
</g>
<path id="XMLID_136_" class="st0" d="M152.3,260.2c0.5,0.3,1,0.6,1.6,0.9c0-0.1,0.1-0.1,0.1-0.2c-0.5-0.3-1-0.6-1.5-0.9
	C152.4,260.1,152.3,260.1,152.3,260.2"/>
<g id="XMLID_7_">
	<path id="XMLID_8_" class="st1" d="M149.9,264.3c-8,0-15.9,0.1-23.9,0.1c-5.4,0.1-10.8,0.2-16.2,0.3c-0.3,0-0.7,0-1.2,0
		c0.2-0.3,0.3-0.4,0.4-0.5c1.5-1.5,3.1-3,4.7-4.5c1.5-1.4,3.1-2.6,4.2-4.3c0.2-0.3,0.7-0.4,1.1-0.5c1.1-0.2,2.2-0.3,3.3-0.4
		c1.1-0.1,2.2-0.4,3.3-0.4c1.8,0,3.6,0,5.4,0.1c4.4,0.2,8.6,1.2,12.8,2.5c2.9,0.9,5.7,2.2,8.5,3.5c0.1-0.1,0.2-0.2,0.2-0.2
		c-2-1.4-4.2-2.5-6.4-3.4c-5.5-2.2-11.3-3-17.1-3.3c-3.2-0.2-6.5-0.1-9.7-0.2c-0.9,0-1.6,0.2-2.2,0.8c-0.4,0.4-0.9,0.8-1.4,1.2
		c-1,0.9-2,1.8-3.1,2.8c-2.7,2.4-5.4,4.9-8.1,7.3c-0.2,0.1-0.3,0.3-0.6,0.7c1.6,0,3,0,4.4,0c5.4,0.1,10.8,0.1,16.2,0.2
		c4.3,0.1,8.7,0.2,13,0.3c0.9,0,1.8,0.1,2.7,0.1c3.4,0.1,6.8,0.2,10.2,0.3c0.4,0,0.7-0.1,0.8-0.5c0.6-1.3,1.2-2.5,1.8-3.8
		c-0.3,0.1-0.6,0.4-0.7,0.6C151.8,264,151,264.3,149.9,264.3z"/>
	<path id="XMLID_36_" class="st1" d="M190.7,253.1c-1-0.1-2-0.1-3-0.1c-6.1-0.1-12.1,0.2-18.1,1.5c-4.6,1-9,2.7-12.9,5.3
		c-0.5,0.2-0.8,0.5-1.2,0.8c0,0.1,0.1,0.1,0.1,0.2c0.4-0.3,0.8-0.5,1.3-0.8c1.1-0.5,2.1-1,3.2-1.4c9-3.9,18.4-5.4,28.2-3.9
		c1.7,0.2,3,0.8,4.2,2c2.3,2.5,4.8,4.8,7.3,7.3c0.2,0.2,0.3,0.4,0.6,0.7c-0.3,0-0.5,0-0.7,0c-2.2-0.1-4.4-0.2-6.6-0.2
		c-7.2-0.1-14.3-0.2-21.5-0.2c-4.3,0-8.6,0-12.9,0c-0.6,0-1-0.1-1.4-0.6c-0.5-0.5-1-1-1.4-1.5c0.4,1.3,1,2.5,1.5,3.6
		c0.3,0.7,0.7,0.9,1.5,0.9c3.5-0.2,7-0.3,10.5-0.4c5.7-0.2,11.4-0.3,17.1-0.4c5.9-0.1,11.8-0.1,17.7-0.2c0.2,0,0.5-0.1,0.7-0.1
		c0-0.1,0.1-0.1,0.1-0.2c-4.4-4-8.7-8-13.1-12C191.5,253.2,191.1,253.1,190.7,253.1z"/>
	<path id="XMLID_64_" class="st1" d="M104.8,263.6c1.3-2.7,2.5-5.4,3.8-8.1c3.6-7.6,7.4-15.2,10.6-23c0.2-0.5,0.5-0.8,0.9-1.1
		c1.7-1.2,3.4-2.5,5-3.7c0.7-0.5,1.4-1.1,2.3-1.9c-0.1,0.4-0.2,0.6-0.2,0.8c-0.6,1.8-1.3,3.6-1.9,5.4c-0.5,1.4-1,2.9-1.5,4.3
		c-0.8,2.3-1.6,4.6-2.4,6.9c-0.4,1-0.8,2-1.1,3.1c-0.3,0.8-0.4,1.6-0.7,2.4l0,0c0.1-0.1,0.2-0.2,0.2-0.3c0.6-1.7,1.2-3.5,1.8-5.2
		c0.5-1.4,1-2.7,1.5-4.1c0.3-0.8,0.6-1.7,0.9-2.5c0.4-1.1,0.9-2.2,1.3-3.3c0.9-2.4,1.9-4.8,2.8-7.1c0.2-0.1,0.3-0.1,0.4-0.1
		c3-0.5,5.9-1.1,8.9-1.4c2.1-0.3,4.1-0.3,6.2-0.4c0-0.2,0-0.4,0-0.5c-1.1,0-2.1,0-3.2,0c-0.7,0-1.3-0.1-2-0.1
		c-3.2,0.4-6.3,0.9-9.5,1.3c-0.9,0.1-1.7,0.4-2.4,0.9c-2.4,1.8-4.9,3.6-7.3,5.4c-0.3,0.2-0.5,0.5-0.6,0.8c-0.8,1.7-1.6,3.5-2.5,5.3
		c-3.6,7.8-7.2,15.6-10.8,23.4c-0.6,1.3-1.2,2.7-1.8,4.1C104.3,264.6,104.5,264.1,104.8,263.6z"/>
	<path id="XMLID_65_" class="st1" d="M207,264.1c-5.1-10.8-10.2-21.5-15.3-32.3c-0.1-0.3-0.4-0.6-0.6-0.8c-2.5-1.8-5-3.7-7.5-5.5
		c-0.6-0.4-1.2-0.7-1.9-0.8c-2.9-0.4-5.8-0.8-8.7-1.2c0.2,0.4,0.3,0.7,0.5,1.1c2.9,0.5,5.7,0.9,8.6,1.4c0.5,1.3,1,2.6,1.5,3.9
		c1,2.5,2,5,3,7.5c0.7,1.9,1.4,3.8,2.2,5.7c0.3,0.9,0.6,1.8,1,2.7c0.3,0.7,0.6,1.3,0.9,2c-0.3-1.6-0.9-3.1-1.6-4.6
		c-0.7-2.1-1.5-4.1-2.2-6.2c-0.1-0.2-0.1-0.4-0.2-0.6c-0.9-2.8-1.9-5.7-2.8-8.5c-0.2-0.5-0.3-1-0.4-1.5c0-0.1,0-0.2,0-0.2
		c0,0,0.1,0.1,0.1,0.1c2.2,1.8,4.5,3.5,6.7,5.3c0.3,0.3,0.6,0.6,0.8,1c2.8,5.9,5.6,11.7,8.3,17.6c2.1,4.5,4.1,9.1,6.1,13.6
		c0.2,0.5,0.5,0.9,1,1.1c0.3,0.1,0.5,0.3,0.9,0.6C207.3,264.8,207.1,264.4,207,264.1z"/>
	<path id="XMLID_66_" class="st1" d="M155.9,228.8c0-0.4,0-0.7,0-1.1c0-0.1-0.1-0.2-0.1-0.3h-0.9c-0.1,1.7-0.2,3.4-0.3,5.1
		c-0.1,2.8-0.3,5.6-0.4,8.4c-0.2,5.5-0.5,10.9-0.7,16.4c-0.1,1.1,0.3,2,0.9,3c1.2-1,1.5-2.2,1.5-3.7
		C155.9,247.3,155.9,238.1,155.9,228.8z"/>
	<path id="XMLID_67_" class="st1" d="M126.3,245.8c0.3,0,0.6,0.1,0.8,0.1c2.7,0.1,5.4,0.4,8.1,0.9c3.4,0.7,6.8,1.4,10.2,2.1
		c0.3,0.1,0.6,0.1,1,0.1c0-0.1,0-0.1,0-0.2c-6.3-3.3-13-4.4-20.1-4.4V245.8z"/>
	<path id="XMLID_68_" class="st1" d="M162.1,240.3c0,0.1,0.1,0.2,0.1,0.2c2.6-0.5,5.2-1.1,7.7-1.6c3.7-0.8,7.3-1.7,11.1-1.8
		c0.1,0,0.1-0.1,0.2-0.1c0-0.1,0-0.2,0-0.4c0-0.2-0.1-0.3-0.1-0.5C174.4,236.1,168.1,237.5,162.1,240.3z"/>
	<path id="XMLID_69_" class="st1" d="M132.2,236.1c-0.8,0-1.7,0-2.5,0v1.1c0.7,0,1.3,0,1.9,0c2.8,0.3,5.6,0.9,8.4,1.5
		c2.8,0.7,5.5,1.3,8.3,1.9C146.2,238.6,137.8,236.4,132.2,236.1z"/>
	<path id="XMLID_70_" class="st1" d="M131.1,229.7c0,0.3,0,0.6,0,0.8c0,0.1,0.1,0.1,0.1,0.2c6,0.1,11.7,1.9,17.6,3.1
		C143.4,230.6,137.4,229.8,131.1,229.7z"/>
	<path id="XMLID_71_" class="st1" d="M155.2,225.4c0.3,0.5,0.1,1.1,0.6,1.4c0.9-0.4,1.6-0.8,2.4-1.1c0.2-0.6,0.3-1.1,0.5-1.7
		c-0.9,0.2-1.9,0.4-2.8,0.7c-0.4,0.1-0.8,0.2-1.2,0c-0.5-0.1-1-0.3-1.5-0.4c-1.8-0.4-3.5-0.7-5.4-0.7c-0.2,0-0.3-0.1-0.5-0.1
		c-0.8-0.1-1,0.6-1.2,1.1c3.1,0,5.9,1.1,8.6,2.4C155,226.3,155.1,225.9,155.2,225.4z"/>
	<path id="XMLID_72_" class="st1" d="M161,234.1c1-0.2,2-0.4,3-0.7c4.9-1.2,9.7-3,14.8-3.1c0.3,0,0.4-0.2,0.3-0.6
		C172.8,229.7,166.7,230.8,161,234.1z"/>
	<path id="XMLID_73_" class="st1" d="M167.6,224.2c1,0,2.1,0.1,3.1,0.2c-0.3-0.4-0.5-0.9-1.1-1c-0.6,0-1.3,0.1-1.9,0.1
		c-1.5,0-2.9,0-4.4,0c-0.3,0-0.7-0.1-1-0.2c-0.8,0.3-1.5,0.8-2,1.5c0.1,0,0.3,0,0.4,0C163,224.3,165.3,224.1,167.6,224.2z"/>
	<path id="XMLID_74_" class="st1" d="M190.6,247.7C190.6,247.7,190.6,247.7,190.6,247.7L190.6,247.7c0.1,0.2,0.1,0.3,0.2,0.5l0,0
		c0,0,0,0,0,0c0,0,0,0,0,0l0,0C190.8,248,190.7,247.8,190.6,247.7L190.6,247.7C190.6,247.7,190.6,247.7,190.6,247.7z"/>
	<path id="XMLID_75_" class="st1" d="M163.4,249c0,0.1,0,0.1,0,0.2c0.3-0.1,0.7-0.2,1-0.2c2.3-0.5,4.5-0.9,6.8-1.4
		c3.7-0.8,7.4-1.5,11.2-1.7c0.7,0,1.4-0.1,2.2-0.2c-0.2-0.5-0.3-1-0.5-1.4c-6.2-0.1-13.3,1.1-20.2,4.5
		C163.7,248.9,163.6,249,163.4,249z"/>
	<path id="XMLID_76_" class="st1" d="M119.6,249.3c0-0.2,0.1-0.5,0.1-0.7l0,0C119.4,248.8,119.3,249,119.6,249.3z"/>
	<path id="XMLID_77_" class="st1" d="M190.8,248.2c0,0.2,0.1,0.5,0.1,0.7c0.1,0,0.2-0.1,0.2-0.1C191.1,248.6,191,248.4,190.8,248.2z
		"/>
</g>
<path id="XMLID_118_" class="st0" d="M143.8,224.9C143.8,224.9,143.8,224.9,143.8,224.9C143.8,224.9,143.8,224.9,143.8,224.9
	L143.8,224.9z"/>
<path id="XMLID_117_" class="st1" d="M68.1,223.2c-0.1,0.1-0.2,0.1-0.3,0.1c-0.7,1-1.6,1.5-2.8,1.3c-1.4-0.1-2.5-0.7-3.2-1.9
	c-0.2-0.3-0.3-0.7-0.6-1c-0.4-0.6-0.7-0.7-1.3-0.3c-0.9,0.5-1.5,1.3-1.9,2.3c-0.3,0.8-0.6,1.6-1,2.3c-0.7,1.6-2.1,1.7-3,0.3
	c-0.4-0.6-0.7-1.3-0.9-2.1c-0.3-1.5-0.3-2.9,0.4-4.4c0,0.4,0,0.8,0,1.1c-0.2,1.3,0,2.5,0.5,3.7c0.2,0.5,0.5,1.1,1.2,1.1
	c0.8,0,1.1-0.5,1.4-1.1c0.3-0.7,0.6-1.4,0.9-2.1c0.5-1.2,1.2-2.2,2.3-2.9c0.9-0.6,1.4-0.5,2.1,0.4c0.3,0.4,0.5,0.8,0.7,1.2
	c0.9,1.3,2.4,1.9,4,1.5c0.4-0.1,0.8-0.5,1.1-0.8c0.3-0.3,0.5-0.7,0.7-1.1c0.4,0.6,0.6,1.1,1,1.5c0.5,0.5,1.2,0.5,1.9,0.4
	c1.2-0.1,2.3-0.5,3.3-1.1c0.6-0.4,1.2-0.7,1.8-1.2c0.1,0.3,0.1,0.4,0.1,0.5c-0.1,0.8,0.2,1.3,0.9,1.6c0.8,0.3,1.4,0,1.9-0.5
	c0.3-0.3,0.4-0.6,0.6-0.9c0.2-0.4,0.5-0.7,0.9-1.3c0.2,0.8-0.4,1.6,0.5,2c0.6,0.2,1.1,0.2,1.7-0.2c-0.4-0.8-0.7-1.5,0-2.3
	c0.9,1.1,1,2.8,0.2,3.8c-0.6,0.7-1.6,0.8-2.4,0.3c-0.2-0.2-0.4-0.4-0.6-0.7c-0.8,0.8-1.3,1.9-2.5,1.8c-1.3-0.1-1.8-0.9-2-2
	c-0.4,0.3-0.8,0.5-1.1,0.7c-0.7,0.4-1.5,0.8-2.2,1.1C70.7,224.9,69.2,224.7,68.1,223.2"/>
<path id="XMLID_116_" class="st1" d="M69,228.3c-1.7,2.9-4.5,3.9-7.5,4.3c0.2-0.1,0.4-0.3,0.6-0.4c1.5-0.8,3-1.6,4.5-2.4
	c0.9-0.5,1.6-1.2,2.1-2.1c0.2-0.4,0.5-0.7,0.7-1c0.6-0.6,1.2-0.4,1.5,0.4c0.1,0.2,0.1,0.5,0.1,0.7c0,0.8-0.4,1-1.2,0.8
	C69.6,228.6,69.3,228.5,69,228.3"/>
<path id="XMLID_113_" class="st1" d="M70.5,214.3c0.1-0.2,0.2-0.2,0.3-0.3c-0.1-0.1-0.2-0.2-0.3-0.2c-0.1,0-0.2,0.2-0.2,0.2
	C70.2,214,70.3,214.1,70.5,214.3 M71.3,215.6c-1.4,0.3-1.8,0-1.7-1.2c0-0.6,0.2-1.2,0.5-1.8c0.3-0.6,0.9-0.6,1.3-0.1
	c0.2,0.4,0.4,0.8,0.5,1.3c0.2,1.3,0.4,2.6,1.1,3.8c0.3,0.5,0.3,1-0.2,1.7C71.7,218.2,71.7,216.9,71.3,215.6"/>
<path id="XMLID_112_" class="st1" d="M80.9,212.2c0.2,0.6,0.3,0.9,0.4,1.2c0.4,1,0.8,2,1.3,2.9c0.5,0.8,0.5,1.5,0.2,2.5
	c-1-1.1-1.3-2.5-2-3.8c-0.4,1.3-0.8,2.5-1.2,3.7c-0.1,0-0.2,0-0.3-0.1c0-0.4-0.1-0.8,0-1.2C79.8,215.9,80.3,214.2,80.9,212.2"/>
<path id="XMLID_111_" class="st1" d="M54.8,218.5c-0.5,0.4-0.9,0.7-1.4,1.1c-0.4-0.7-0.7-1.2-1-1.8c0.4-0.3,0.7-0.6,1-0.9
	c-0.4-0.5-0.7-1.1-1.2-1.7c0.4-0.4,0.7-0.8,1.1-1.2c1.5,1.3,1.6,1.6,0.7,3C54.3,217.4,54.5,217.9,54.8,218.5"/>
<path id="XMLID_110_" class="st1" d="M65.2,212.4c1.7,1.9,2.6,4.8,2,7c-0.1-0.1-0.2-0.2-0.2-0.3c0-1.7-0.8-3-1.5-4.4
	C64.8,213.6,64.8,213.5,65.2,212.4"/>
<path id="XMLID_109_" class="st1" d="M76.9,219.3c0-1.9-1-3.4-1.8-4.9c-0.4-0.7-0.4-1.3-0.1-2C76.7,214,77.6,217.3,76.9,219.3"/>
<path id="XMLID_108_" class="st1" d="M63.2,218.2c-0.7-0.4-1.3-0.7-1.9-1.1c0.2-0.6,0.4-1.1,0.5-1.6c0.4,0.2,0.6,0.3,0.9,0.4
	C64,216.5,64.1,216.7,63.2,218.2"/>
<path id="XMLID_107_" class="st1" d="M70.5,214.3c-0.1-0.1-0.2-0.2-0.3-0.4c0,0,0.2-0.2,0.2-0.2c0.1,0,0.2,0.2,0.3,0.2
	C70.7,214,70.6,214.1,70.5,214.3"/>
<rect id="XMLID_106_" x="23" y="198.2" class="st1" width="95" height="0.5"/>
<rect id="XMLID_105_" x="169.5" y="198.2" class="st1" width="108.9" height="0.5"/>
<g id="XMLID_1_">
	<path id="XMLID_31_" class="st1" d="M113.8,53.2c0.1-1,0-1.9,0-2.9c0-0.9-0.5-1.5-1.4-1.9c-2.3-1-5.8,0.1-7.1,2.3
		c-1.9,3.1-3.6,6.3-4.7,9.8c-0.1,0.4-0.1,0.9-0.6,1.1c-0.1-0.2-0.2-0.2-0.2-0.4c-0.6-1.8-1.6-3.3-2.7-4.8c-2.5-3.1-5.2-5.9-8.2-8.4
		c-1.1-0.9-2-1.9-3.1-2.8c-0.1-0.1-0.1-0.2-0.1-0.4c0.3-0.1,0.6-0.2,1-0.3c-0.1-0.5-0.1-1-0.3-1.5c-0.4-1.5-0.5-1.5-2-1.5
		c-1.4,0-2.7-0.3-3.9-0.8c-0.2-0.1-0.5-0.1-0.9-0.3c0.2,0.7,0.3,1.3,0.5,1.8c0.4,1.1,1,2.2,2.1,2.5c0.9,0.3,1.3,0.8,1.9,1.3
		c0.5,0.5,1,1,1.5,1.5c4.5,4.6,9.1,9.3,13.6,13.9c0.6,0.6,0.7,1.2,0.4,2c-0.8,2.2-2.3,3.8-4.4,4.9c-1.9,1-3.6,0.9-5.2-0.5
		c-1.7-1.5-3.3-3.1-4.8-4.7c-1.1-1.1-2-2.3-3-3.5c0,0.4-0.1,0.7,0,1.1c0.4,1.8,1,3.6,2.2,5.1c1.5,1.8,2.2,4,2.7,6.3
		c0.5,2.1-0.3,3.4-2.4,4.2c-1.5,0.6-3.1,0.5-4.7,0.3c-0.8-0.1-1.4-0.4-1.9-1.1c-0.3-0.4-0.8-0.8-1.2-1.2c-0.4,0.6-0.5,1.1-0.3,1.6
		c0.7,1.7,0.7,3.5,0.7,5.3c-0.1,2.7-0.9,4.9-3.3,6.4c-0.3,0.2-0.6,0.5-0.9,0.7c-0.2,0.1-0.4,0.4-0.6,0.4c-1.4,0-2.9,0.5-4.3-0.2
		c-1.6-0.8-3.1-1.6-4.6-2.6c-2.6-1.7-4.7-3.9-6.8-6.1c-0.3-0.3-0.6-0.7-1.2-0.9c0.1,0.4,0.2,0.7,0.2,1c0,0.9,0.3,1.5,1.1,2
		c0.7,0.5,1.1,1.4,0.9,2.3c-0.6,3.4-1.1,6.7-1.7,10.1c-0.1,0.8-0.3,1.5,0.3,2.1c0.5,0.6,0.5,1.5,1.3,1.9c1-1,2-2,3.1-2.9
		c2.1-1.7,2.7-3.9,2.3-6.5c0-0.3-0.1-0.7-0.1-1.1c0.2,0.2,0.4,0.2,0.5,0.3c1.5,1.6,3.4,2.8,5.2,3.9c0.4,0.2,0.8,0.4,1.3,0.5
		c2.5,0.6,4.7,0,6.5-1.7c2.8-2.4,4-5.5,3.4-9.2C80,81.4,80,81,79.9,80.5c0.3,0,0.5,0,0.7,0c1.6,0.4,3.3,0.3,4.8-0.1
		c2.1-0.5,3.9-1.4,5.4-3c0.5-0.5,0.7-1,0.4-1.7c-0.4-0.9-0.8-1.9-1.3-2.9c-0.2-0.4-0.3-0.7-0.5-1.1c0.1-0.1,0.1-0.1,0.2-0.2
		c0.4,0.3,0.9,0.5,1.3,0.9c1,0.8,2.1,1.1,3.3,0.7c0.9-0.3,1.9-0.7,2.7-1.3c2.5-1.8,4.9-3.6,7.2-5.6c3.8-3.3,6.9-7.3,9.3-11.8
		C113.6,54.1,113.8,53.7,113.8,53.2z M58.7,91.6c0.1-2.2,0.2-4.4,0.3-6.5c2,0.9,2.5,1.6,2.3,3.5C61.3,89.7,60.4,91.4,58.7,91.6z
		 M102.5,62.7c-0.1,0-0.2-0.1-0.3-0.1c0.1-0.5,0.2-1.1,0.3-1.6c0.6-2.6,1.7-5.1,3-7.4c0.5-0.9,1.1-1.4,2.1-1.7
		c0.8-0.2,1.6-0.4,2.4-0.6c0.5-0.1,1.1-0.2,1.6,0.5C109,55.8,105.8,59.4,102.5,62.7z"/>
	<path id="XMLID_37_" class="st1" d="M52.8,164.5c-0.6-0.7-1.2-1.3-2.1-1.4c-1.2-0.2-2.3-0.2-3.5-0.3c-0.3,0-0.6,0.1-1.1,0.1
		c0.6-1,0.5-2,0.2-2.9c-0.2-0.6-0.4-1.3-0.7-1.9c-0.4-0.7-0.3-1.3,0.2-1.8c0.3-0.3,0.5-0.6,0.7-0.9c1-1.5,0.6-3-0.9-3.9
		c-0.3-0.2-0.6-0.3-0.9-0.6c0.3-0.4,0.5-0.8,0.8-1.2c0.9-1.2,1.5-2.4,0.3-3.9c0.6,0,1,0,1.3,0c1.6-0.2,3.3-0.4,4.9-0.8
		c1.6-0.4,2.6-1.5,2.9-3.2c0.2-1.5,0-2.8-0.6-4.2c-0.5-1.2-1.4-2-2.8-2.3c-0.6-0.1-1.2-0.3-1.8-0.5c-0.9-0.3-1.8-0.2-2.7,0.1
		c-1.3,0.4-2.5,0.9-3.9,1.4c0.9,0.6,1.9,1.3,2.8,1.8c0.2,0.1,0.6,0.1,0.9,0c0.7-0.2,1.4-0.5,2.1-0.8c0.8-0.3,1.6,0.1,1.7,1
		c0.2,1.3,0.2,2.7-0.5,3.9c-0.3,0.5-0.7,0.7-1.2,0.7c-0.6,0-1.1,0.2-1.7,0.3c-1.6,0.3-3.1,0.8-4.7,0.8c-4.3,0.1-8.7,0-13,0
		c-0.8,0-1.5-0.1-2.4-0.2c1,1.2,2.2,1.7,3.5,1.9c2,0.4,4.1,0.8,6.2,0.6c1.9-0.2,3.9-0.2,5.9-0.4c0.9,0.6,0.7,1.5,0.5,2.4
		c-0.2,0.8-0.7,1.5-1.7,1.4c-0.8-0.1-1.6,0-2.5,0c0.4,1.5,1.3,2.2,2.6,2.3c0.3,0,0.6,0.1,0.9,0.2c1,0.2,1.6,1.1,1.4,2
		c-0.2,1.3-0.7,1.7-1.8,1.7c-0.8,0-1.7,0-2.6,0c0.5,1.8,2.2,2,3.2,3c0,0.9,0.1,1.8,0,2.6c0,0.5-0.3,1-0.6,1.3
		c-0.9,1.1-2.1,1.6-3.4,2c-0.3,0.1-0.6,0.2-1,0.3c1,0.7,1.9,1.3,2.8,1.9c0.4,0.3,0.8,0.3,1.3,0.1c1.4-0.5,2.9-0.9,4.3-1.4
		c1.2-0.3,2.3-0.5,3.5-0.8c1.4,2.1,2.3,4.1,2.4,6.5c0.1,1.6-0.2,3.1-1.1,4.4c-0.6,0.9-1.5,1.5-2.6,1.8c-1.1,0.3-2.2,0-3.2-0.2
		c-1.1-0.3-2.1-0.6-3.2-0.9c2.7,2.3,5.6,3.5,9.2,3c2.2-0.3,3.8-1.5,4.6-3.6c0.6-1.5,0.7-3.1,0.4-4.7
		C55.8,169.1,54.5,166.7,52.8,164.5z"/>
	<path id="XMLID_38_" class="st1" d="M54.6,121.1c-1.9-0.5-3.8-0.8-5.8,0c-0.9,0.3-1.8,0.5-2.8,0.7c0.6,0.3,1.2,0.5,1.6,0.9
		c1,0.8,2.1,0.8,3.2,0.6c0.3-0.1,0.6-0.1,0.8-0.2c1.2-0.3,2,0.2,2,1.4c0,0.8-0.1,1.7-0.2,2.5c-0.2,0.9-0.8,1.5-1.7,1.6
		c-1.8,0.2-3.6,0.5-5.3,0.6c-4.1,0.2-8.2,0.3-12.2-0.8c-1.6-0.4-3.1-0.9-4.8-1.4c0.1,0.4,0.1,0.8,0.3,0.9c0.6,0.6,1.3,1.2,2,1.6
		c1.8,1,3.8,1.4,5.8,1.5c4.1,0.2,8.2,0.4,12.3,0.4c1.7,0,3.3-0.3,4.9-0.7c1.6-0.3,2.6-1.4,2.9-3c0.5-2.5-0.4-4.6-2.3-6.3
		C55.3,121.3,55,121.2,54.6,121.1z"/>
	<path id="XMLID_39_" class="st1" d="M67.2,76.2c0.9,0.2,1.7-0.2,2.1-1c0.3-0.7,0.5-1.5,0.1-2.3c1.9-0.9,2.4-1.7,2-3.2
		c-0.5-1.7-1.7-2.8-3.1-3.7c-0.4,0.4-0.2,0.7,0,1c0.4,0.6,0.7,1.1,1,1.7c0.2,0.5,0.2,1.1-0.3,1.4c-0.3,0.2-0.9,0.1-1.3,0
		c-0.4-0.1-0.8-0.4-1.3-0.6c-0.1,0.1-0.1,0.1-0.2,0.2c0.2,0.4,0.3,0.7,0.5,1.1c0.2,0.7,0.5,1.3,0.7,2c0.1,0.4,0.1,1-0.4,1.2
		s-0.9,0-1.2-0.3c-0.4-0.3-0.7-0.6-1.1-0.9c-0.1,0.2-0.2,0.2-0.2,0.3C64.6,74.2,66,75.9,67.2,76.2z"/>
	<path id="XMLID_40_" class="st1" d="M55.1,113.6c0.7-2.9,1-5.9,2.8-8.6c-0.8-0.4-1.5-0.7-2.4-1.1c-0.2,0.4-0.4,0.8-0.5,1.1
		c-0.5,1.6-1,3.3-1.4,4.9c-0.5,1.6-0.9,3.3-1.3,4.9C53.9,116,54.7,115.6,55.1,113.6z"/>
	<path id="XMLID_41_" class="st1" d="M47.4,85.9c1-0.4,2-0.7,2.9-1c0.1-1-0.6-1.7-1-2.5c0.9-0.6,1.8-1.1,2.7-1.6
		c-0.2-0.4-0.5-0.8-0.6-1.2c-0.5-1-1.4-1.3-2.4-1.2c-1,0.1-1.4,0.8-1.1,1.8c0.2,0.5,0.4,1.1,0.6,1.7c-0.6,0.3-1.2,0.6-1.8,0.9
		c-0.6,0.3-0.8,0.6-0.5,1.2C46.6,84.7,47,85.3,47.4,85.9z"/>
	<path id="XMLID_42_" class="st1" d="M85,87.9c0,0.9-0.1,1.8-0.1,2.6h-2.7c-0.4,1-0.2,1.9-0.1,2.8c1.1,0.2,2.2,0.3,3.4,0.5v-2.7h2.8
		C88.8,88.4,87.8,87.4,85,87.9z"/>
	<path id="XMLID_43_" class="st1" d="M60.3,139.1c-0.7,0.4-1.3,0.9-1.6,1.7c0.5,1.3,1.8,1.4,2.6,2.2c0.8-0.9,1.5-1.8,2.3-2.8
		c-0.5-0.4-1.1-0.6-1.5-1C61.5,138.6,60.9,138.7,60.3,139.1z"/>
	<path id="XMLID_44_" class="st1" d="M38.7,122.7c0.4,0.3,0.8,0.5,1.2,0.7c0.8-0.8,1.6-1.5,2.4-2.2c-0.3-0.3-0.5-0.6-0.7-0.8
		c-1.5-1.5-1.7-1.5-3.1,0.1C37.7,121.2,37.8,122,38.7,122.7z"/>
	<path id="XMLID_45_" class="st1" d="M76.3,63.6c0.1-1,0.1-1.8,0.1-2.7c0-0.2-0.3-0.6-0.6-0.7c-0.7-0.3-1.4-0.4-2.2-0.6
		c-0.2,1.2-1,2.1-0.7,3.3C74,63.2,75.1,63.4,76.3,63.6z"/>
	<path id="XMLID_46_" class="st1" d="M224.1,78.9c1.5-3.2,3.1-6.4,4.6-9.6c0.5-1,1.1-2,1.7-2.9c0-0.1,0.2-0.1,0.3-0.2
		c0.2,0.3,0.3,0.5,0.5,0.8c0.8-0.3,1.5-0.7,2.1-1.4c0.4-0.5,0.6-1.1,0.2-1.7c-0.8-1.2-0.9-2.5-0.6-3.8c0.1-0.3,0-0.6,0.1-1.1
		c-1.8,0.9-3.1,2-3.3,4c0,0.4-0.2,0.8-0.4,1.2c-0.3,0.8-0.7,1.5-1.1,2.2c-2.2,4.4-4.4,8.7-6.6,13.1c-0.3,0.6-0.7,1.2-1.2,1.9
		c-1.3-1.3-2.2-2.7-2.8-4.3c-0.2-0.6-0.1-1.1,0.4-1.6c0.7-0.6,1.3-1.2,2-1.8c0.2-0.2,0.3-0.4,0.5-0.6c0-0.1-0.1-0.1-0.1-0.2
		c-0.4,0.1-0.7,0.2-1.1,0.4c-2.9,1.3-5.9,1.7-9,0.7c-2-0.6-3.5-1.9-4.3-3.9c-0.6-1.5-0.8-3-0.4-4.8c0.7,0.4,1.3,0.7,1.9,1.1
		c0.8,0.4,1.6,0.8,2.4,1.1c0.5,0.3,0.9,0.1,1.3-0.4c0.6-0.8,1.2-1.5,1.8-2.4c-1.1-0.6-2.2-1.1-3.3-1.6c-3.7-1.7-6.5-4.2-8.1-8
		c-0.5-1.1-1.1-2.3-1.9-3.3c-1.8-2.5-4.4-3.8-7.4-3.6c-3.3,0.2-5.7,2-7.1,5c-0.1,0.2-0.2,0.5-0.3,0.9c0.6-0.3,1-0.5,1.4-0.7
		c1.2-0.6,2.5-1,3.9-1.3c3.7-0.6,6.9,1.8,7.6,5.6c-0.6,0.1-1.2,0.2-1.8,0.2c-1.5-0.1-2.9-0.2-4.4-0.5c-1.8-0.3-3.5-0.7-5.2-1.3
		c-1.8-0.6-3-2.1-3.5-4c-0.2-1.1-0.5-2.2-0.5-3.3c0.1-3.6,0.3-7.3,0.6-10.9c0.3-3.3,0.7-6.6,1-9.8c0-0.4-0.1-0.7-0.2-1.1
		c-0.1,0-0.3,0-0.4,0c-0.2,0.6-0.4,1.2-0.5,1.8c-0.4,2.7-0.9,5.4-1.2,8c-0.5,4.1-1,8.3-1.5,12.4c-0.2,1.4-0.3,2.7-0.3,4.1
		c0.1,4.1,2.3,6.6,6.2,7.1c1.6,0.2,3.2,0.4,4.9,0.5c3.3,0.4,6.5,0.9,9.7,2c1.2,0.4,2.4,1,3.4,1.5c-0.2,1.9-0.5,3.7-0.5,5.4
		c0,1.2,0.2,2.3,0.6,3.4c0.9,2.7,3.3,4.5,6.1,4.5c1.5,0,2.9-0.2,4.4-0.2c1,0,1.4,0.3,1.6,1.2c0.1,0.6,0.2,1.3,0.3,2
		c0.3,1.7,0.9,3.2,2.1,4.4c2.2-1,3.3-2.1,4.2-3.9C223.2,80.6,223.6,79.8,224.1,78.9z"/>
	<path id="XMLID_49_" class="st1" d="M257,136.2c1.2-1.1,1.2-2.1,0-3.2c-1.3-1.3-2.8-2.3-4.7-2.8c-1.8-0.5-3.4-1.4-4.9-2.5
		c-0.8-0.6-1.7-1.3-1.8-2.4c-0.2-1.5,0.3-2.9,0.8-4.4c0.6,0.1,1.1,0.2,1.7,0.3c0.5,0.1,1.1,0,1.6,0c1.4,0,2.1-0.4,2.5-1.8
		c0.6-2.1,0.5-4.2-0.4-6.2c-0.5-1.2-1.5-2-2.9-2.2c-1.3-0.2-2.5,0-3.6,0.5c0.2,0.7,0.6,1.4,0.7,2c0.3,1.5-0.6,2.8-2,3.1
		c-0.2-0.3-0.5-0.5-0.7-0.8c-1.1-1.3-2.2-2.5-3.4-3.7c-0.6-0.6-0.9-1.3-0.8-2.1c0.2-1.9,0.5-3.7,2-5c1.2-1,2.3-2.1,3.5-3
		c2.1-1.5,4.2-2.8,6.4-4.2c0.5-0.3,0.9-0.6,1.4-1c-1.1-0.3-2-0.5-2.9,0.2c-0.5,0.4-1.1,0.5-1.7,0.7c-0.3,0.1-0.7,0-1-0.1
		c-2.8-1.4-5.5-2.9-8.3-4.4c-1.6-0.8-3.2-0.6-4.6,0.6c1,1.7,2,3.4,3,5.1c0.7,1.2,1.7,1.9,3.1,2.1c0.9,0.1,1.7,0.2,2.8,0.4
		c-0.8,0.6-1.5,1.1-2.1,1.6c-1.4,1-2.7,2-3.9,3.4c-2.1,2.4-2.5,6.4,1.1,9c1.2,0.9,2.4,1.8,3.7,2.6c1.2,0.7,1.6,1.8,1.3,3.1
		c-0.2,0.9-0.4,1.7-0.6,2.6c-0.2,1.1-0.3,2.2-0.3,3.2c0,0.9,0.5,1.6,1.3,1.9c0.7,0.3,1.5,0.5,2.2,0.8c0.6,0.2,1.2,0.4,1.8,0.7
		c0.1,3.9-1.3,7.6-1.1,11.5c0.3,0,0.5,0,0.7,0c2.1-0.3,4.1-1,6-2.1C254.3,138.2,255.7,137.3,257,136.2z M241.9,99.2
		c-1-0.3-1.7-1.4-1.8-3.2c1.9,0.7,3.8,1.5,5.7,2.2C244.9,99.4,243.8,99.7,241.9,99.2z M250.9,132.1c1.7,0.1,3,0.8,3.9,2.1
		c-0.7,1.4-1.7,2-3.9,2.3V132.1z"/>
	<path id="XMLID_51_" class="st1" d="M172.3,64.7c-2.8-0.1-5.7-0.5-8.4-1.1c-2-0.5-4-1.1-5.8-2.4c-1.1-0.8-1.7-1.8-1.9-3.1
		c-0.4-2.1,0.1-4,0.9-5.8c1.7-3.6,4.5-6.1,7.9-8c2.5-1.5,5.2-2.1,8.2-1.6c0.8,0.1,1.7,0,2.6,0c0-1.6,1.4-2.7,1.4-4.4
		c-0.4,0-0.6,0-0.9,0c-4.4,0.8-8.8,0.5-13.1-0.9c-2.1-0.7-4.2-1-6.4-0.6c-2.1,0.3-3.8,1.2-4.8,3.2c-0.5,1-0.7,2.2-0.1,3.4
		c1.1-0.7,2-1.4,3-2.1c0.9-0.6,1.9-0.9,3-0.7c0.9,0.2,1.7,0.3,2.6,0.5c0.7,0.2,1.4,0.6,2.3,1c-1,0.7-1.8,1.2-2.5,1.8
		c-3.3,2.5-5.8,5.7-6.8,9.8c-1.3,5,0.4,9.1,4.8,11.8c2.6,1.6,5.4,2.4,8.4,2.7c3.8,0.3,7.6,0,11.3-1c2.1-0.6,4.2-1.2,6.2-2.4
		c-1,0.1-2,0.2-3,0.2C178.2,64.8,175.3,64.7,172.3,64.7z"/>
	<path id="XMLID_52_" class="st1" d="M273.8,137c-1,0.3-1.9,0.5-2.9,0.9c-6.3,2.7-12.6,5.5-19,8.2c-0.8,0.3-1.5,0.8-2.1,1.3
		c-2,1.6-2.9,3.7-2.3,6.2c0.6,2.4,1.5,4.7,2.2,7c0.6,1.9,1.3,3.7,1.9,5.6c0.7,2.4,1.5,4.9,1.5,7.5c0,0.8,0.1,1.7,0.2,2.5
		c0.2,1.5,0.4,3,0.6,4.5c0.1,0.4,0.1,0.9,0.6,1c1,0.2,1.9,0.4,3.1,0.6c-0.2-1.5-0.4-2.8-0.5-4c-0.2-2.3-0.3-4.6,0.7-6.8
		c0.8-1.9,1.8-3.7,2.7-5.5c0.6-1.2,1.2-2.3,1.6-3.5c0.7-2.2,0.5-4.3-0.5-6.3c-1-1.9-2.5-3.5-4.3-4.6c-1.1-0.7-3.4-0.6-4.6,0.3
		c2.5,1.2,4.6,2.9,5.3,5.7c0.8,2.9-0.5,5.2-2.7,7.5c-0.4-0.9-0.7-1.5-0.9-2.2c-0.5-1.6-1-3.2-1.5-4.8c-0.3-1-0.6-2-0.9-3
		c-0.8-3-0.1-5.6,2.4-7.5c0.8-0.7,1.8-1.3,2.7-1.8c1.7-0.9,3.5-1.7,5.3-2.5c3.6-1.7,7.1-3.3,10.7-4.9c0.5-0.2,1.1-0.5,1.3-1.2
		C274.2,137,274,137,273.8,137z"/>
	<path id="XMLID_55_" class="st1" d="M135.2,38.8c-0.4-1.9-0.8-3.8-1.2-5.8c0-0.2,0-0.5,0-0.7c0.4,0,0.7,0.1,1,0.1
		c0.1-0.2,0.1-0.4,0.2-0.5c0.7-1.7,0.8-2.6-1.4-3.7c-0.8-0.4-1.4-1.1-1.7-1.9c-0.2-0.4-0.3-0.7-0.6-1.2c-0.9,1.7-1.2,3.2-0.2,4.9
		c0.2,0.3,0.2,0.6,0.3,0.9c0.2,1.4,0.4,2.7,0.7,4.1c0.8,4.3,1.7,8.7,2.5,13c0.2,0.9,0.2,1.9,0.2,2.8c-1.8,0.4-3.5,0.8-5.1,1.2
		c-0.1-0.2-0.2-0.3-0.3-0.5c-0.2-0.4-0.3-0.8-0.5-1.2c-1-2.7-3-4.2-5.8-4.6c-1-0.1-1.5,0.2-1.9,1.1c-0.2,0.4-0.3,0.8-0.5,1.1
		c-1.5,2.3-1.6,4.8-1.5,7.4c0,0.7,0.2,1.5,1,1.9c0.6,0.3,1.2,0.7,1.8,0.9c0.6,0.3,1.2,0.4,1.9,0.1c1.3-0.5,2.6-1,3.9-1.4
		c0.1,0.2,0.1,0.3,0.1,0.4c0,2.8-1.6,4.9-3.2,7c-0.1,0.1-0.3,0.2-0.4,0.3c-2.7,1.9-5.8,3.1-9,4c-1,0.3-2.1,0.6-3.1,0.8
		c2.7,0.6,5.3,0.6,8,0.3c1.5-0.2,2.9-0.6,4.3-1.1c1.7-0.6,3-1.8,3.7-3.5c0.4-1,0.9-2,1.1-3.1c0.4-1.9,0.7-3.8,1.1-5.8
		c0.3-0.1,0.8-0.3,1.2-0.4c1.2-0.2,2.4-0.4,3.6-0.6c0.6-0.1,1-0.2,1.2-0.9c0.5-1.6,0.9-3.1,0.6-4.8
		C136.6,45.8,135.9,42.3,135.2,38.8z M125.7,53.2c-1.4,0.5-2.9,0.6-4.4,0.5c-0.5-1.3,0.1-2.3,0.6-3.3c0.1-0.2,0.5-0.3,0.7-0.3
		c1.3,0.1,2.5,0.6,3.4,1.6C126.6,52.4,126.5,52.9,125.7,53.2z"/>
	<path id="XMLID_56_" class="st1" d="M142.1,23.7c0-0.4-0.1-0.7-0.2-1.3c-0.7,1.6-1.4,2.9-2,4.3c-0.2,0.4-0.2,0.9-0.1,1.3
		c0.3,2.1,0.7,4.2,1.1,6.3c1.1,5.9,2.4,11.8,2.7,17.8c0.1,1,0.1,2,0.2,3.3c0.2-0.3,0.4-0.5,0.5-0.6c0.9-1.6,0.9-3.5,0.9-5.2
		c0-3.3-0.3-6.6-0.8-9.9C143.5,34.4,142.9,29,142.1,23.7z"/>
	<path id="XMLID_57_" class="st1" d="M239.5,73.5c1.5-1.9,3.1-3.8,4.9-5.9c-1.5,0.5-2.7,0.9-4,1.3c-0.7,0.2-1.2,0.6-1.7,1.2
		c-2.2,3.1-4.5,6.3-6.7,9.4c-2.9,4-5.9,7.9-9.5,11.3c-0.1,0.1-0.1,0.2-0.2,0.4c1.4,0.1,1.5,0,2.4-0.7c0.3-0.2,0.6-0.5,0.8-0.7
		c3.1-2.5,6-5.3,8.4-8.6C235.7,78.6,237.6,76,239.5,73.5z"/>
	<path id="XMLID_58_" class="st1" d="M254.7,107.3c-0.5-0.4-1.1-0.6-1.9-0.4c0.1,0.3,0.2,0.5,0.3,0.6c4.2,6.1,8.3,12.2,12.5,18.3
		c0.3,0.4,0.7,0.8,1.1,1.2c0.7,0.5,1.5,0.7,2.3,0.2c-0.1-0.2-0.1-0.2-0.1-0.3c-4-5.8-8-11.6-12.1-17.4
		C256.3,108.7,255.5,108,254.7,107.3z"/>
	<path id="XMLID_59_" class="st1" d="M266.7,158c-0.4-0.6-0.9-1.1-1.9-1.2c0.1,0.5,0.2,0.9,0.2,1.2c0.9,3.3,1.8,6.7,2.7,10
		c0.5,1.9,1,3.8,1.6,5.7c0.4,1.3,1.1,1.8,2.5,1.8c0-0.1,0-0.2,0-0.3c-1.4-5.1-2.9-10.2-4.3-15.3C267.4,159.2,267.1,158.6,266.7,158z
		"/>
	<path id="XMLID_60_" class="st1" d="M254.3,93.5c0.7,0,1.3,0,1.9,0c0.4,0,0.7-0.2,0.8-0.6c0.2-1,0.3-2,0-3c-0.9,0-1.6,0.1-2.2,0.1
		c0-0.9,0.1-1.8,0.1-2.6c0-0.6-0.6-1-1.1-0.8c-0.7,0.2-1.4,0.5-2.1,0.7c-0.1,1.1-0.1,2.2-0.2,3.4c1-0.1,1.8-0.1,2.9-0.2V93.5z"/>
	<path id="XMLID_61_" class="st1" d="M219.3,62c0.2-0.1,0.5-0.1,0.7-0.1c1.2-0.1,1.4-0.3,1.5-1.5c0-0.5,0-0.9,0-1.4
		c-0.1-0.7-0.3-0.9-1.1-0.8c-0.7,0.1-1.5,0.2-2.2,0.3c0.1,1.3,0.3,2.5,0.4,3.8C218.9,62.1,219.1,62,219.3,62z"/>
	<path id="XMLID_62_" class="st1" d="M192,67.9c-0.7,0.3-1.4,0.6-2.1,0.8c0.2,1.2,0.4,2.3,0.6,3.4c2.7-0.5,3.2-2.1,2.5-3.7
		C192.8,68,192.5,67.7,192,67.9z"/>
	<path id="XMLID_63_" class="st1" d="M244,169.6c-0.6-0.1-1.2-0.2-1.7-0.3c-0.4,1-0.7,2-1.2,3.2c0.1,0.1,0.3,0.1,0.4,0.2
		c2.2,0.9,2.6,0.7,3.4-1.5C245.2,170.1,245,169.8,244,169.6z"/>
</g>
<path id="XMLID_25_" class="st1" d="M150.9,5.8c-38.8,0-75.2,15.1-102.6,42.5S5.8,112.1,5.8,150.9c0,38.8,15.1,75.2,42.5,102.6
	S112.1,296,150.9,296s75.2-15.1,102.6-42.5S296,189.6,296,150.9c0-38.8-15.1-75.2-42.5-102.6S189.6,5.8,150.9,5.8 M150.9,301.7
	c-40.3,0-78.2-15.7-106.7-44.2C15.7,229,0,191.1,0,150.9c0-40.3,15.7-78.2,44.2-106.7C72.7,15.7,110.6,0,150.9,0
	S229,15.7,257.5,44.2c28.5,28.5,44.2,66.4,44.2,106.7c0,40.3-15.7,78.2-44.2,106.7C229,286,191.1,301.7,150.9,301.7"/>
<path id="XMLID_15_" class="st1" d="M150.9,15.2c-36.2,0-70.3,14.1-95.9,39.7c-25.6,25.6-39.7,59.7-39.7,95.9
	c0,36.2,14.1,70.3,39.7,95.9c25.6,25.6,59.7,39.7,95.9,39.7s70.3-14.1,95.9-39.7c25.6-25.6,39.7-59.7,39.7-95.9
	c0-36.2-14.1-70.3-39.7-95.9C221.1,29.3,187.1,15.2,150.9,15.2 M150.9,287.5c-36.5,0-70.8-14.2-96.7-40s-40-60.1-40-96.7
	c0-36.5,14.2-70.8,40-96.6s60.1-40,96.7-40s70.8,14.2,96.7,40s40,60.1,40,96.6c0,36.5-14.2,70.8-40,96.7S187.4,287.5,150.9,287.5"/>
<path id="XMLID_14_" class="st2" d="M171.8,142.5l32-33.3l-33.2,32.4c-0.3-0.2-0.6-0.4-0.9-0.6l14.6-19.2l-15.2,18.8
	c-0.4-0.2-0.8-0.5-1.2-0.7l18.4-28.9l-19.3,28.3c-0.4-0.2-0.8-0.4-1.2-0.6l11.5-20.8l-12.2,20.5c-0.4-0.2-0.8-0.4-1.2-0.5l21.6-41.7
	l-23,41.2c-0.4-0.1-0.8-0.3-1.2-0.4l9.2-22.5l-9.9,22.3c-0.1,0-0.3-0.1-0.4-0.1l10.3-32.7l-11.3,32.5c-0.5-0.1-1-0.2-1.5-0.3
	l6.1-23.5l-6.8,23.4c-0.2,0-0.3-0.1-0.5-0.1l1.8-47.2l-3.3,47c-0.7-0.1-1.3-0.1-2-0.1l-0.4-24.7l-0.4,24.7c-0.1,0-0.3,0-0.4,0
	l-3.3-34.4l2.2,34.4c-0.5,0-1,0.1-1.5,0.1l-3.6-23.9l2.8,24c-0.2,0-0.4,0.1-0.5,0.1l-14.3-44.5l12.9,44.7c-0.4,0.1-0.8,0.2-1.2,0.2
	l10.8,18.6l17.9-10.8C173,143.5,172.4,143,171.8,142.5"/>
<path id="XMLID_11_" class="st0" d="M175.3,173.5c-1.1-0.2-1.9-0.3-1.9-0.3S174.2,173.4,175.3,173.5"/>
<path id="XMLID_10_" class="st1" d="M192.3,137c-8.9-0.5-11.5,8.1-18.2,11.7c-6.7,3.6-22.1,12.9-22.1,12.9S113.9,96,112.7,83.9
	c0,0-5.5,3.6-3.8,12.6c0,0-3.6-0.8-2,3.7c0,0-3.5-0.5-1.7,4.9c0,0-1.4,0.2-0.9,2.2c0.5,2.1,1,3.8,1,3.8s-1.6,0.4-0.7,2.5
	c0.9,2,1.5,3.4,1.5,3.4s-1.7,1-0.8,3c0.9,2,1.8,3.9,1.8,3.9s-1.6,0.4-0.7,2.8c0.9,2.4,2.1,4.3,2.1,4.3s-0.7,0.7,0.3,3.2
	c0.9,2.5,2.2,5.4,2.2,5.4s-1,2,0.2,4.7c1.3,2.7,4.5,7.2,4.5,7.2s-1.7,2.3,0,6.5c1.7,4.2,1.8,3.6,1.8,3.6s-1.6,7,2.7,12.1
	c4.3,5.1,6.8,5.4,6.8,5.4s-1.1,0.5-0.4,2c0,0-2.3-0.7-1.7,1.6c0,0-9.4-2-15.8-1.6c-6.4,0.5-16.6-2.9-16.6-2.9l8.3,6.2
	c0,0-1.9,1.1-0.3,2.6c1.6,1.4,6.1,3.2,6.1,3.2s-1.4,0.6-0.7,1.4c0.6,0.8,3.3,1.8,3.3,1.8s-0.4,3.4,2.3,4c2.7,0.7,3.3,2.1,4.6,2.6
	c1.3,0.5,2.9,1.1,4.1,2.6c1.1,1.4,5.3,1.8,6.3,1.5c0,0,4.1,1.2,6.1-0.3c0,0,6.1,2,10.1-3l-0.2,8.1c0,0,2,2,3.3,0.4
	c1.3-1.6,2.3-3.2,3.8-2.7c1.5,0.5,3.8,1.5,4.6-0.2c0.8-1.8,1.7,5.1,3.1,4.5c1.5-0.7,4.2-4.3,3.9-9.7c0,0,4.3,6.5,6.9,3.8
	c2.6-2.7,3.5-6-0.6-11.9l-2.3-3.3c0,0,6.4,0.7,10.4-3.2c4-3.9,9.4-1,9.9,2.4c0,0,4.6-3.4-0.5-9.3c-3.4-4-7.5-5.4-9.9-5.9
	c-1.1-0.1-1.9-0.3-1.9-0.3s0.7,0,1.9,0.3c3,0.4,8.9,0.8,10.8-0.9c0,0,4.1,1.2,7.3-3.2c0,0,2.5-0.6,3.2-2.6c0,0,2.9-0.6,4.1-3
	c0,0,3.2-1.3,4-3.1c0,0,2.7-1.4,3.3-3.3c0,0,4.3-3,4.8-5.6c0,0,3.8-2.1,3.8-4.8c0,0,4.4-2.1,4.6-5.3c0,0,4.7-4.8,5.7-9.5
	c0,0,6.9-9.3,8-14.9C235,117.4,201.3,137.5,192.3,137"/>
<path id="XMLID_9_" class="st1" d="M182.4,214.9c0-1.8-0.3-3.6-0.8-5.4c-0.2-0.6-1.5-1.2-2.2-1.2c-1.9-0.1-3.8,0.1-5.6,0.4
	c-1.3,0.2-2-0.4-2.5-1.5c-0.3-0.6-2.6-5.7-2.8-6.3c-0.6,0.2-1.1,0.3-1.7,0.4c0.2,1.1,2.4,6.9,2.3,8c0.1,0.6,0.1,1.2-0.1,1.5
	c-0.1,0.3-0.2,0.5-0.3,0.8c-0.2,0.8-0.4,1.5-0.7,2.3c-0.1,0.4-0.3,0.8-0.4,1.2c-0.4,1.2,0.2,1.7,1.3,1.8c2.8,0.4,4.1-0.7,3.9-3.2
	c-0.6,0.4-1.2,0.9-2.1,1.5c0-1.1-0.1-1.8-0.1-2.5c0-0.7,0.1-1.3,0.1-2c2.5-0.3,3.7,0.4,4.2,2.6c0.1,0.4-0.3,1-0.4,1.5
	c-0.1,0.8-0.1,1.5-0.2,2.3c0.2,0.1,0.4,0.1,0.6,0.2c-0.4,0.3-0.8,0.6-1.3,0.9c0,1,1.8,0.8,2.5-0.5c0.8-1.6,2.4-3.1,1.1-5.1
	c-0.4-0.6-1-1-1.8-1.8c1.5,0,2.6,0.1,3.8,0.1c0.5,1.8-1.9,3.9,0.9,5.3c-0.5,0.6-1,1.1-1.4,1.6C180.7,218.4,182.4,217.1,182.4,214.9"
	/>
<path id="XMLID_6_" class="st1" d="M143.9,221.8c-0.9-1.5-1.7-3.2-2.2-5c-0.2-0.6,0.6-1.8,1.2-2.2c1.5-1.1,3.2-1.9,4.9-2.7
	c1.2-0.6,1.5-1.4,1.4-2.6c0-0.6-0.9-6.3-1-6.9c0.6-0.1,1.1-0.4,1.7-0.6c0.4,1.1,1.7,7.1,2.3,8c0.2,0.5,0.5,1,0.9,1.3
	c0.2,0.2,0.4,0.4,0.7,0.5c0.6,0.6,1.2,1.1,1.8,1.5c0.3,0.3,0.7,0.5,1,0.8c1,0.8,0.8,1.5-0.1,2.2c-2.2,1.8-3.8,1.7-5-0.6
	c0.7,0.1,1.4,0.1,2.6,0.2c-0.6-1-0.9-1.6-1.3-2.1c-0.4-0.5-0.8-1.1-1.1-1.6c-2.3,1.1-2.9,2.3-2.2,4.4c0.1,0.4,0.8,0.6,1.1,1
	c0.5,0.6,0.9,1.2,1.4,1.8c-0.1,0.2-0.3,0.3-0.4,0.5c0.5,0,1,0,1.6,0.1c0.6,0.8-1.1,1.6-2.3,0.9c-1.5-0.9-3.7-1.3-3.7-3.7
	c0-0.7,0.3-1.4,0.5-2.5c-1.2,0.8-2.2,1.5-3.1,2.1c0.5,1.8,3.7,2.2,2,5c0.7,0.2,1.4,0.4,2.1,0.6C147.2,223.9,145.1,223.7,143.9,221.8
	"/>
</svg>
